<svg id="Layer_3" data-name="Layer 3" xmlns="http://www.w3.org/2000/svg" viewBox="0 0 512 512">
  <title>angle-swap-vertical</title>
  <g>
    <path d="M152.66,215.94a21,21,0,0,1-29.53,0,20.53,20.53,0,0,1-.27-29l.27-.27L241.24,70.93a21.13,21.13,0,0,1,29.62,0l118,115.75a20.53,20.53,0,0,1,.18,29.07l-.18.19a21,21,0,0,1-29.53,0L256,121.09Z"/>
    <path d="M256,391.78l103.39-94.85a21,21,0,0,1,29.53,0l.18.19a20.53,20.53,0,0,1-.18,29.07l-118,115.75a21.13,21.13,0,0,1-29.62,0L123.13,326.19l-.27-.27a20.53,20.53,0,0,1,.27-29,21,21,0,0,1,29.53,0Z"/>
  </g>
</svg>
