<svg id="Layer_3" data-name="Layer 3" xmlns="http://www.w3.org/2000/svg" viewBox="0 0 512 512">
  <title>angle-swap-horizontal</title>
  <g>
    <path d="M296.5,152.66a21,21,0,0,1,0-29.53,20.52,20.52,0,0,1,29-.27l.27.27L441.5,241.24a21.11,21.11,0,0,1,0,29.62l-115.75,118a20.53,20.53,0,0,1-29.07.18l-.18-.18a21,21,0,0,1,0-29.53L391.35,256Z"/>
    <path d="M120.65,256,215.5,359.35a21,21,0,0,1,0,29.53l-.18.18a20.53,20.53,0,0,1-29.07-.18L70.5,270.86a21.11,21.11,0,0,1,0-29.62L186.25,123.13l.27-.27a20.52,20.52,0,0,1,29,.27,21,21,0,0,1,0,29.53Z"/>
  </g>
</svg>
