<svg id="Layer_3" data-name="Layer 3" xmlns="http://www.w3.org/2000/svg" viewBox="0 0 512 512">
  <title>attachment</title>
  <path d="M437.5,75.55A116.75,116.75,0,0,0,272.38,75L56.08,289.78A89.81,89.81,0,0,0,182.65,417.24L389.86,211.47A53.89,53.89,0,1,0,313.92,135L161,286.87a18,18,0,0,0,25.33,25.49l153-151.89A18,18,0,1,1,364.55,186L157.33,391.75a53.89,53.89,0,0,1-75.94-76.48L297.7,100.47A80.83,80.83,0,1,1,411.61,215.19L258,367.68a18,18,0,0,0,25.23,25.58L436.92,240.68A116.75,116.75,0,0,0,437.5,75.55Z"/>
</svg>
