<svg id="Layer_3" data-name="Layer 3" xmlns="http://www.w3.org/2000/svg" viewBox="0 0 512 512">
  <title>box</title>
  <path d="M433.24,123.45,260.86,64.92a24.17,24.17,0,0,0-10.59,0L77.82,123.53c-14,4.32-13.65,15.38-13.65,15.69V364.48a15.67,15.67,0,0,0,10.59,14.67l175.51,67.71c3.14,1.33,9.81.78,11.46,0l175.51-67.63a15.67,15.67,0,0,0,10.59-14.67V139.22C447.83,134.36,444.85,124.94,433.24,123.45ZM256,96.78,385,140,256,189,127,140ZM96,353.1V162.92L239.68,217.6v191Zm320,0L272.32,408.57V218.07L416,162.92Z"/>
</svg>
