<svg id="Layer_3" data-name="Layer 3" xmlns="http://www.w3.org/2000/svg" viewBox="0 0 512 512">
  <title>cog</title>
  <path d="M403.47,274.85a129.43,129.43,0,0,0,0-37.7l41.86-31.73a9.5,9.5,0,0,0,2.38-12.31L408,126.58c-2.38-4.23-7.74-5.77-12.1-4.23l-49.41,19.23A146.06,146.06,0,0,0,313,122.73l-7.54-51a9.59,9.59,0,0,0-9.72-8.08H216.36a9.58,9.58,0,0,0-9.72,8.08l-7.54,51a153.67,153.67,0,0,0-33.53,18.85l-49.41-19.23a9.81,9.81,0,0,0-12.1,4.23L64.38,193.11a9.29,9.29,0,0,0,2.38,12.31l41.86,31.73A148.66,148.66,0,0,0,107.23,256a148.66,148.66,0,0,0,1.39,18.85L66.76,306.58a9.49,9.49,0,0,0-2.38,12.31l39.68,66.53c2.38,4.23,7.74,5.77,12.1,4.23l49.41-19.23a145.85,145.85,0,0,0,33.53,18.85l7.54,51a9.58,9.58,0,0,0,9.72,8.08h79.37a9.59,9.59,0,0,0,9.72-8.08l7.54-51a153.9,153.9,0,0,0,33.53-18.85l49.41,19.23a9.81,9.81,0,0,0,12.1-4.23l39.68-66.53a9.5,9.5,0,0,0-2.38-12.31l-41.86-31.73ZM256,323.31c-38.29,0-69.44-30.19-69.44-67.31s31.15-67.31,69.44-67.31,69.45,30.19,69.45,67.31S294.34,323.31,256,323.31Z"/>
</svg>
