<svg id="Layer_3" data-name="Layer 3" xmlns="http://www.w3.org/2000/svg" viewBox="0 0 512 512">
  <title>facebook</title>
  <g id="Layer_8" data-name="Layer 8">
    <path d="M426.42,64.43H85.58A21.15,21.15,0,0,0,64.43,85.58V426.42a21.15,21.15,0,0,0,21.15,21.15h183.5V299.2H219.15V241.38h49.93V198.73c0-49.48,30.22-76.43,74.37-76.43a407.62,407.62,0,0,1,44.61,2.28v51.71l-30.61,0c-24,0-28.66,11.41-28.66,28.15v36.92h57.26l-7.46,57.82h-49.8V447.57h97.63a21.15,21.15,0,0,0,21.15-21.15V85.58A21.15,21.15,0,0,0,426.42,64.43Z"/>
  </g>
</svg>
