<svg id="Layer_3" data-name="Layer 3" xmlns="http://www.w3.org/2000/svg" viewBox="0 0 512 512">
  <title>linkedin</title>
  <g id="Layer_9" data-name="Layer 9">
    <path d="M419.35,64.27H92.57C77,64.27,64.26,76.64,64.26,91.91V420.06c0,15.28,12.69,27.67,28.31,27.67H419.35c15.64,0,28.39-12.39,28.39-27.67V91.91C447.74,76.64,435,64.27,419.35,64.27ZM178,391H121.12V208H178ZM149.57,183a33,33,0,1,1,33-33A33,33,0,0,1,149.57,183ZM391,391H334.19V302c0-21.23-.39-48.53-29.56-48.53-29.59,0-34.13,23.12-34.13,47V391H213.67V208h54.56v25H269c7.59-14.38,26.15-29.55,53.82-29.55,57.59,0,68.23,37.9,68.23,87.17Z"/>
  </g>
</svg>
