<svg id="Layer_3" data-name="Layer 3" xmlns="http://www.w3.org/2000/svg" viewBox="0 0 512 512">
  <title>pin</title>
  <path d="M494.61,153.54l-119.28-124a8.73,8.73,0,0,0-12.28-.24L327.64,63.38a8.7,8.7,0,0,0-.24,12.3l11,11.45L258.7,163.8l-65.91-1.29a8.84,8.84,0,0,0-6.19,2.4L160,190.46a8.72,8.72,0,0,0-.24,12.32l67.27,69.94L75.91,415a15,15,0,1,0,20.57,21.84L247.87,294.33l65.25,67.84a8.66,8.66,0,0,0,12.29.27L352,336.89a8.65,8.65,0,0,0,2.65-6.12l1.29-65.89,79.73-76.67,11,11.47a8.69,8.69,0,0,0,12.28.23l35.43-34.07A8.7,8.7,0,0,0,494.61,153.54Z"/>
</svg>
