<svg id="Layer_3" data-name="Layer 3" xmlns="http://www.w3.org/2000/svg" viewBox="0 0 512 512">
  <title>pull-up</title>
  <g>
    <path d="M501.35,341.35H10.67A10.67,10.67,0,0,0,0,352V501.36A10.65,10.65,0,0,0,10.67,512H501.35A10.63,10.63,0,0,0,512,501.36V352A10.66,10.66,0,0,0,501.35,341.35Z"/>
    <path d="M185.75,121.74l48.94-48.9V256a21.32,21.32,0,1,0,42.64,0V72.84l48.92,48.9a21.33,21.33,0,1,0,30.17-30.15L271.1,6.25a21.34,21.34,0,0,0-30.18,0L155.58,91.59a21.33,21.33,0,0,0,30.17,30.15Z"/>
  </g>
</svg>
