<svg id="Layer_3" data-name="Layer 3" xmlns="http://www.w3.org/2000/svg" viewBox="0 0 512 512">
  <title>pull-down</title>
  <g>
    <path d="M326.26,390.29l-48.94,48.89V256a21.32,21.32,0,1,0-42.64,0V439.18l-48.92-48.89a21.32,21.32,0,0,0-30.17,30.14l85.32,85.34a21.33,21.33,0,0,0,30.18,0l85.34-85.34a21.32,21.32,0,1,0-30.17-30.14Z"/>
    <path d="M501.35,0H10.67A10.67,10.67,0,0,0,0,10.67V160a10.65,10.65,0,0,0,10.67,10.66H501.35A10.63,10.63,0,0,0,512,160V10.67A10.66,10.66,0,0,0,501.35,0Z"/>
  </g>
</svg>
