<svg id="Layer_3" data-name="Layer 3" xmlns="http://www.w3.org/2000/svg" viewBox="0 0 512 512">
  <title>pull-right</title>
  <g>
    <path d="M170.67,501.33V10.67A10.68,10.68,0,0,0,160,0H10.67A10.65,10.65,0,0,0,0,10.67V501.33A10.63,10.63,0,0,0,10.67,512H160A10.66,10.66,0,0,0,170.67,501.33Z"/>
    <path d="M390.27,185.74l48.89,48.94H256a21.32,21.32,0,1,0,0,42.64H439.16l-48.89,48.92a21.32,21.32,0,0,0,30.14,30.16l85.34-85.31a21.35,21.35,0,0,0,0-30.19l-85.34-85.33a21.32,21.32,0,0,0-30.14,30.17Z"/>
  </g>
</svg>
