<svg id="Layer_3" data-name="Layer 3" xmlns="http://www.w3.org/2000/svg" viewBox="0 0 512 512">
  <title>pull-left</title>
  <g>
    <path d="M341.33,501.33V10.67A10.68,10.68,0,0,1,352,0H501.33A10.65,10.65,0,0,1,512,10.67V501.33A10.63,10.63,0,0,1,501.33,512H352A10.66,10.66,0,0,1,341.33,501.33Z"/>
    <path d="M121.73,185.74,72.84,234.68H256a21.32,21.32,0,1,1,0,42.64H72.84l48.89,48.92A21.32,21.32,0,0,1,91.59,356.4L6.25,271.09a21.35,21.35,0,0,1,0-30.19l85.34-85.33a21.32,21.32,0,0,1,30.14,30.17Z"/>
  </g>
</svg>
