<svg id="Layer_3" data-name="Layer 3" xmlns="http://www.w3.org/2000/svg" viewBox="0 0 512 512">
  <title>reload</title>
  <g id="Layer_7" data-name="Layer 7">
    <g>
      <path d="M445.74,247.08h0a22.08,22.08,0,0,0-16.56,5.27,22.93,22.93,0,0,0-7.77,15.51v.1A166.91,166.91,0,0,1,284.61,421c-60.17,10.91-121.33-11.75-159.33-58.09l23.46,3.38a20.57,20.57,0,0,0,16-3.86,21.44,21.44,0,0,0,8.72-15.09c1.13-13-7.5-24-19.68-25.17L81.61,311.52l-.31,0a23.09,23.09,0,0,0-25.12,19.39l-10.6,72.52,0,.31c-1.13,13,7.56,24.07,19.79,25.17,14.26,1.53,23.92-8.52,26.08-19.25l2.17-15c54.48,61.48,120,73.92,164.13,73.92a227.12,227.12,0,0,0,33.65-2.47l1.34-.2A212.67,212.67,0,0,0,466.53,271.35a22.13,22.13,0,0,0-5.28-16.51A23,23,0,0,0,445.74,247.08Z"/>
      <path d="M463,92.35a21.3,21.3,0,0,0-14.62-7.61h0a23.09,23.09,0,0,0-25.12,19.39l-2.63,18.55a214,214,0,0,0-204-75.87C121.18,64.09,50.09,144.11,43.76,241.43a23,23,0,0,0,5.86,17.48A20.67,20.67,0,0,0,65,265.72c12.33,0,21.8-8.88,23-21.6l0-.15a166.92,166.92,0,0,1,136.78-153c60.54-10.87,122,12.22,160,59.2l-19.05-2.73-.29,0a23.09,23.09,0,0,0-25.12,19.39l-.06.42a22.86,22.86,0,0,0,5.16,16.67A21.41,21.41,0,0,0,360,191.54l72.14,10.56.46.05c13.48.79,23.75-7.29,25-19.68l10.56-72.24,0-.26A24,24,0,0,0,463,92.35Z"/>
    </g>
  </g>
</svg>
