<svg id="Layer_3" data-name="Layer 3" xmlns="http://www.w3.org/2000/svg" viewBox="0 0 512 512">
  <title>twitter</title>
  <g id="Layer_7" data-name="Layer 7">
    <path d="M474,120.78a178.88,178.88,0,0,1-51.38,14.09A89.7,89.7,0,0,0,462,85.38a179,179,0,0,1-56.8,21.7,89.54,89.54,0,0,0-152.43,81.59A254,254,0,0,1,68.35,95.21,89.54,89.54,0,0,0,96,214.63a89.14,89.14,0,0,1-40.52-11.18c0,.37,0,.74,0,1.12a89.51,89.51,0,0,0,71.76,87.71,89.51,89.51,0,0,1-40.4,1.53,89.53,89.53,0,0,0,83.56,62.12,179.47,179.47,0,0,1-111.09,38.3A183.34,183.34,0,0,1,38,393a253.2,253.2,0,0,0,137.12,40.18c164.53,0,254.5-136.3,254.5-254.5,0-3.88-.08-7.74-.26-11.57A181.83,181.83,0,0,0,474,120.78"/>
  </g>
</svg>
