<svg version="1" xmlns="http://www.w3.org/2000/svg" width="682.667" height="682.667" viewBox="0 0 512.000000 512.000000"><path d="M0 256v256h512V0H0v256zm380.7-131.8c2.2 2 2.3 2.9 2.3 14.4 0 12 0 12.3-2.6 14.3-2.1 1.7-4.1 2.1-9.9 2.1-5.8 0-7.8-.4-9.9-2.1-2.6-2-2.6-2.3-2.6-14.2 0-11 .2-12.3 2.2-14.4 1.9-2 3.1-2.3 10.2-2.3 6.8 0 8.3.3 10.3 2.2zM243 185c16.5 4.1 29.6 12.8 36.3 24.2 3.9 6.7 7.4 18.1 8.6 28.3.7 5.6 1.1 34.5 1.1 76.9 0 78.1.9 71.6-9.5 71.6-5.2 0-6.5-.4-8.4-2.4-2.2-2.3-2.6-3.7-5.1-15.9-.7-3.7-1.6-5.7-2.5-5.7-.8 0-4.9 3.5-9.2 7.8-9.3 9.3-16.4 13.3-30 16.9-8.7 2.3-11.7 2.6-26.3 2.6-13.6 0-17.9-.4-24.1-2.1-24.4-6.6-39.4-22.2-43.5-45.4-2.7-14.7-.1-32.6 6.4-43.8 3.7-6.4 12.6-15.5 19.2-19.5 7.6-4.6 21.7-9.2 34.2-11.1 12-1.9 44.6-1.3 60.8 1 9.2 1.3 9.6 1.3 11.8-.7 1.9-1.8 2.2-3 2.2-10.7 0-37.1-10.7-51-41.4-53.9-10.6-1-24.8-.2-32.6 1.9-16.1 4.3-27.3 16.3-28.7 30.6-.9 8.9-2.6 10.4-12.8 10.4-7.4 0-8.4-.2-10.5-2.5-2-2.1-2.2-3.1-1.6-7.8 2.9-25.4 21-44.2 48.6-50.6 12.5-2.9 13-3 31.5-2.6 13.1.3 19 .8 25.5 2.5zm137.7 3.2l2.3 2.1v191.6l-2.6 2c-2.2 1.7-4.1 2.1-10.2 2.1-6.4 0-7.9-.3-9.9-2.2l-2.3-2.1V190.6l2.2-2.3c1.9-2 3.1-2.3 10.2-2.3 6.8 0 8.3.3 10.3 2.2z"/><path d="M199.7 287c-22.4 2.6-35.4 9.6-41.8 22.6-2.9 5.9-3.3 7.7-3.7 17.3-.8 20 5 31.3 19.4 37.7 7.2 3.2 15 4.4 27.9 4.4 20.1 0 33.6-5.1 46-17.5 12.3-12.2 17.5-26.5 17.5-47.9 0-8.8-.3-10.5-1.9-12-3.9-3.5-46-6.6-63.4-4.6z"/></svg>