<?xml version="1.0" encoding="UTF-8"?><!DOCTYPE svg PUBLIC "-//W3C//DTD SVG 1.1//EN" "http://www.w3.org/Graphics/SVG/1.1/DTD/svg11.dtd"><svg xmlns="http://www.w3.org/2000/svg"><symbol id="angle-down" viewBox="0 0 512 512"><path d="M381 168.33a25.41 25.41 0 0 1 35.7 0 24.8 24.8 0 0 1 .33 35l-.33.33-142.82 140a25.54 25.54 0 0 1-35.81 0l-142.7-140a24.83 24.83 0 0 1-.22-35.16l.22-.22a25.41 25.41 0 0 1 35.7 0l125 114.7z"/></symbol><symbol id="angle-left" viewBox="0 0 512 512"><path d="M343.67 381a25.41 25.41 0 0 1 0 35.7 24.8 24.8 0 0 1-35.05.33l-.33-.33-140-142.82a25.54 25.54 0 0 1 0-35.81l140-142.7a24.83 24.83 0 0 1 35.16-.22l.22.22a25.41 25.41 0 0 1 0 35.7L229 256.05z"/></symbol><symbol id="angle-right" viewBox="0 0 512 512"><path d="M168.33 131a25.41 25.41 0 0 1 0-35.7 24.8 24.8 0 0 1 35-.33l.33.33 140 142.82a25.54 25.54 0 0 1 0 35.81l-140 142.7a24.83 24.83 0 0 1-35.16.22l-.22-.22a25.41 25.41 0 0 1 0-35.7L283 256z"/></symbol><symbol id="angle-swap-horizontal" viewBox="0 0 512 512"><path d="M296.5 152.66a21 21 0 0 1 0-29.53 20.52 20.52 0 0 1 29-.27l.27.27L441.5 241.24a21.11 21.11 0 0 1 0 29.62l-115.75 118a20.53 20.53 0 0 1-29.07.18l-.18-.18a21 21 0 0 1 0-29.53L391.35 256zM120.65 256l94.85 103.35a21 21 0 0 1 0 29.53l-.18.18a20.53 20.53 0 0 1-29.07-.18L70.5 270.86a21.11 21.11 0 0 1 0-29.62l115.75-118.11.27-.27a20.52 20.52 0 0 1 29 .27 21 21 0 0 1 0 29.53z"/></symbol><symbol id="angle-swap-vertical" viewBox="0 0 512 512"><path d="M152.66 215.94a21 21 0 0 1-29.53 0 20.53 20.53 0 0 1-.27-29l.27-.27L241.24 70.93a21.13 21.13 0 0 1 29.62 0l118 115.75a20.53 20.53 0 0 1 .18 29.07l-.18.19a21 21 0 0 1-29.53 0L256 121.09zM256 391.78l103.39-94.85a21 21 0 0 1 29.53 0l.18.19a20.53 20.53 0 0 1-.18 29.07l-118 115.75a21.13 21.13 0 0 1-29.62 0L123.13 326.19l-.27-.27a20.53 20.53 0 0 1 .27-29 21 21 0 0 1 29.53 0z"/></symbol><symbol id="angle-up" viewBox="0 0 512 512"><path d="M131 343.67a25.41 25.41 0 0 1-35.7 0 24.8 24.8 0 0 1-.3-35.05l.33-.33 142.82-140a25.54 25.54 0 0 1 35.81 0l142.7 140a24.83 24.83 0 0 1 .22 35.16l-.22.22a25.41 25.41 0 0 1-35.7 0L256 229z"/></symbol><symbol id="arrow-down" viewBox="0 0 512 512"><path d="M352.7 279.5L285 347.1V93.7c0-16.3-13.2-29.5-29.5-29.5S226 77.4 226 93.7v253.4l-67.7-67.6c-11.7-11.4-30.4-11.1-41.7.6-11.1 11.4-11.1 29.7 0 41.1l118 118c11.5 11.5 30.2 11.5 41.8 0l118-118c11.7-11.4 11.9-30 .6-41.7-11.4-11.7-30-11.9-41.7-.6-.3.2-.5.4-.6.6z"/></symbol><symbol id="arrow-left" viewBox="0 0 512 512"><path d="M232.57 353.18l-67.63-67.7h253.37a29.5 29.5 0 1 0 0-59H164.94l67.63-67.67a29.5 29.5 0 1 0-41.7-41.73l-118 118a29.53 29.53 0 0 0 0 41.76l118 118a29.5 29.5 0 1 0 41.7-41.73z"/></symbol><symbol id="arrow-right" viewBox="0 0 512 512"><path d="M279.28 158.71l67.63 67.69H93.54a29.5 29.5 0 1 0 0 59h253.37l-67.63 67.67A29.5 29.5 0 0 0 321 394.79l118-118a29.53 29.53 0 0 0 0-41.79L321 117a29.5 29.5 0 1 0-41.7 41.73z"/></symbol><symbol id="arrow-up" viewBox="0 0 512 512"><path d="M158.82 232.57l67.7-67.63v253.37a29.5 29.5 0 1 0 59 0V164.94l67.67 67.63a29.5 29.5 0 0 0 41.73-41.7l-118-118a29.53 29.53 0 0 0-41.76 0l-118 118a29.5 29.5 0 1 0 41.73 41.7z"/></symbol><symbol id="attachment" viewBox="0 0 512 512"><path d="M437.5 75.55A116.75 116.75 0 0 0 272.38 75L56.08 289.78a89.81 89.81 0 0 0 126.57 127.46l207.21-205.77A53.89 53.89 0 1 0 313.92 135L161 286.87a18 18 0 0 0 25.33 25.49l153-151.89A18 18 0 1 1 364.55 186L157.33 391.75a53.89 53.89 0 0 1-75.94-76.48l216.31-214.8a80.83 80.83 0 1 1 113.91 114.72L258 367.68a18 18 0 0 0 25.23 25.58l153.69-152.58a116.75 116.75 0 0 0 .58-165.13z"/></symbol><symbol id="bookmark" viewBox="0 0 512 512"><path d="M374.13 59.12H137.88a26.25 26.25 0 0 0-26.25 26.25v360.94a6.55 6.55 0 0 0 9.81 5.7L256 375.12 390.56 452a6.48 6.48 0 0 0 3.25.86 6.55 6.55 0 0 0 6.57-6.56V85.37a26.26 26.26 0 0 0-26.25-26.25z"/></symbol><symbol id="box" viewBox="0 0 512 512"><path d="M433.24 123.45L260.86 64.92a24.17 24.17 0 0 0-10.59 0L77.82 123.53c-14 4.32-13.65 15.38-13.65 15.69v225.26a15.67 15.67 0 0 0 10.59 14.67l175.51 67.71c3.14 1.33 9.81.78 11.46 0l175.51-67.63a15.67 15.67 0 0 0 10.59-14.67V139.22c0-4.86-2.98-14.28-14.59-15.77zM256 96.78L385 140l-129 49-129-49zM96 353.1V162.92l143.68 54.68v191zm320 0l-143.68 55.47v-190.5L416 162.92z"/></symbol><symbol id="caret-down" viewBox="0 0 512 512"><path d="M406.25 153.21a6.28 6.28 0 0 0-5.49-3.21H111.22a6.29 6.29 0 0 0-5.37 9.55l144.77 239.19a6.29 6.29 0 0 0 10.76 0l144.77-239.19a6.23 6.23 0 0 0 .1-6.34z"/></symbol><symbol id="caret-left" viewBox="0 0 512 512"><path d="M348.68 406.25a6.28 6.28 0 0 0 3.21-5.49V111.22a6.29 6.29 0 0 0-9.56-5.37L103.15 250.62a6.28 6.28 0 0 0 0 10.76l239.18 144.77a6.25 6.25 0 0 0 6.35.1z"/></symbol><symbol id="caret-right" viewBox="0 0 512 512"><path d="M163.32 105.75a6.28 6.28 0 0 0-3.21 5.49v289.54a6.29 6.29 0 0 0 9.56 5.37l239.18-144.77a6.28 6.28 0 0 0 0-10.76L169.67 105.85a6.25 6.25 0 0 0-6.35-.1z"/></symbol><symbol id="caret-up" viewBox="0 0 512 512"><path d="M105.75 348.57a6.29 6.29 0 0 0 5.49 3.2h289.54a6.28 6.28 0 0 0 5.37-9.55L261.38 103a6.28 6.28 0 0 0-10.76 0L105.85 342.22a6.25 6.25 0 0 0-.1 6.35z"/></symbol><symbol id="check" viewBox="0 0 512 512"><path d="M195.47 435a39.71 39.71 0 0 1-28.12-11.65l-78.71-78.69a39.77 39.77 0 0 1 56.25-56.24L190.46 334 362.91 93.55a39.79 39.79 0 0 1 64.65 46.39L227.8 418.41A39.58 39.58 0 0 1 195.47 435z"/></symbol><symbol id="close" viewBox="0 0 512 512"><path d="M394 347.57L302.38 256l91.56-91.57A32.8 32.8 0 0 0 347.57 118L256 209.62l-91.57-91.56A32.8 32.8 0 0 0 118 164.43L209.62 256l-91.57 91.57A32.8 32.8 0 0 0 164.43 394L256 302.38l91.57 91.55A32.79 32.79 0 0 0 394 347.57z"/></symbol><symbol id="cog" viewBox="0 0 512 512"><path d="M403.47 274.85a129.43 129.43 0 0 0 0-37.7l41.86-31.73a9.5 9.5 0 0 0 2.38-12.31L408 126.58c-2.38-4.23-7.74-5.77-12.1-4.23l-49.41 19.23A146.06 146.06 0 0 0 313 122.73l-7.54-51a9.59 9.59 0 0 0-9.72-8.08h-79.38a9.58 9.58 0 0 0-9.72 8.08l-7.54 51a153.67 153.67 0 0 0-33.53 18.85l-49.41-19.23a9.81 9.81 0 0 0-12.1 4.23l-39.68 66.53a9.29 9.29 0 0 0 2.38 12.31l41.86 31.73a148.66 148.66 0 0 0-1.39 18.85 148.66 148.66 0 0 0 1.39 18.85l-41.86 31.73a9.49 9.49 0 0 0-2.38 12.31l39.68 66.53c2.38 4.23 7.74 5.77 12.1 4.23l49.41-19.23a145.85 145.85 0 0 0 33.53 18.85l7.54 51a9.58 9.58 0 0 0 9.72 8.08h79.37a9.59 9.59 0 0 0 9.72-8.08l7.54-51a153.9 153.9 0 0 0 33.53-18.85l49.41 19.23a9.81 9.81 0 0 0 12.1-4.23l39.68-66.53a9.5 9.5 0 0 0-2.38-12.31l-41.86-31.73zM256 323.31c-38.29 0-69.44-30.19-69.44-67.31s31.15-67.31 69.44-67.31 69.45 30.19 69.45 67.31-31.11 67.31-69.45 67.31z"/></symbol><symbol id="danger" viewBox="0 0 512 512"><path d="M256 64C150 64 64 150 64 256s86 192 192 192 192-86 192-192S362 64 256 64zm90.08 279.84a20.87 20.87 0 0 1-29.54 0l-58.32-58.31-58.32 58.33a20.89 20.89 0 0 1-29.53-29.55L228.69 256l-58.33-58.32a20.88 20.88 0 0 1 29.54-29.53l58.32 58.32 58.32-58.33a20.88 20.88 0 0 1 29.53 29.54L287.76 256l58.32 58.31a20.9 20.9 0 0 1 0 29.53z"/></symbol><symbol id="dots-horizontal" viewBox="0 0 512 512"><circle cx="403.21" cy="255.38" r="44.23"/><circle cx="256" cy="255.38" r="44.23"/><circle cx="108.79" cy="256.62" r="44.23"/></symbol><symbol id="dots-vertical" viewBox="0 0 512 512"><circle cx="255.89" cy="108.92" r="44.05"/><circle cx="255.89" cy="255.53" r="44.05"/><circle cx="257.11" cy="402.13" r="44.05"/></symbol><symbol id="facebook" viewBox="0 0 512 512"><path d="M426.42 64.43H85.58a21.15 21.15 0 0 0-21.15 21.15v340.84a21.15 21.15 0 0 0 21.15 21.15h183.5V299.2h-49.93v-57.82h49.93v-42.65c0-49.48 30.22-76.43 74.37-76.43a407.62 407.62 0 0 1 44.61 2.28v51.71h-30.61c-24 0-28.66 11.41-28.66 28.15v36.92h57.26l-7.46 57.82h-49.8v148.39h97.63a21.15 21.15 0 0 0 21.15-21.15V85.58a21.15 21.15 0 0 0-21.15-21.15z" id="Layer_8" data-name="Layer 8"/></symbol><symbol id="info" viewBox="0 0 512 512"><path d="M255.44 64c-106 0-192 86-192 192s86 192 192 192 192-86 192-192-85.96-192-192-192zm22.47 286.75H233V228.68h45zm0-144.55H233v-44.95h45z"/></symbol><symbol id="linkedin" viewBox="0 0 512 512"><path d="M419.35 64.27H92.57c-15.57 0-28.31 12.37-28.31 27.64v328.15c0 15.28 12.69 27.67 28.31 27.67h326.78c15.64 0 28.39-12.39 28.39-27.67V91.91c0-15.27-12.74-27.64-28.39-27.64zM178 391h-56.88V208H178zm-28.43-208a33 33 0 1 1 33-33 33 33 0 0 1-33 33zM391 391h-56.81v-89c0-21.23-.39-48.53-29.56-48.53-29.59 0-34.13 23.12-34.13 47V391h-56.83V208h54.56v25h.77c7.59-14.38 26.15-29.55 53.82-29.55 57.59 0 68.23 37.9 68.23 87.17z" id="Layer_9" data-name="Layer 9"/></symbol><symbol id="minus" viewBox="0 0 512 512"><path d="M93.7 223.21a32.8 32.8 0 0 0 0 65.6h324.58a32.8 32.8 0 0 0 0-65.59z" id="Layer_5" data-name="Layer 5"/></symbol><symbol id="papers" viewBox="0 0 512 512"><path d="M334.65 63.75H124.92A35.06 35.06 0 0 0 90 98.71v244.68h35V98.71h209.65zm52.43 69.91H194.83a35.06 35.06 0 0 0-35 35v244.63a35.06 35.06 0 0 0 35 35h192.25a35.06 35.06 0 0 0 34.95-35V168.61a35.06 35.06 0 0 0-34.95-34.95zm0 279.63H194.83V168.61h192.25z" id="content-copy"/></symbol><symbol id="pin" viewBox="0 0 512 512"><path d="M494.61 153.54l-119.28-124a8.73 8.73 0 0 0-12.28-.24l-35.41 34.08a8.7 8.7 0 0 0-.24 12.3l11 11.45-79.7 76.67-65.91-1.29a8.84 8.84 0 0 0-6.19 2.4L160 190.46a8.72 8.72 0 0 0-.24 12.32l67.27 69.94L75.91 415a15 15 0 1 0 20.57 21.84l151.39-142.51 65.25 67.84a8.66 8.66 0 0 0 12.29.27L352 336.89a8.65 8.65 0 0 0 2.65-6.12l1.29-65.89 79.73-76.67 11 11.47a8.69 8.69 0 0 0 12.28.23l35.43-34.07a8.7 8.7 0 0 0 .23-12.3z"/></symbol><symbol id="plus" viewBox="0 0 512 512"><path d="M418.3 223.2H288.79V93.72a32.8 32.8 0 0 0-65.6 0v129.49H93.7a32.8 32.8 0 0 0 0 65.6h129.5V418.3a32.8 32.8 0 0 0 65.6 0V288.8h129.47a32.8 32.8 0 0 0 0-65.59z" id="Layer_4" data-name="Layer 4"/></symbol><symbol id="pull-down" viewBox="0 0 512 512"><path d="M326.26 390.29l-48.94 48.89V256a21.32 21.32 0 1 0-42.64 0v183.18l-48.92-48.89a21.32 21.32 0 0 0-30.17 30.14l85.32 85.34a21.33 21.33 0 0 0 30.18 0l85.34-85.34a21.32 21.32 0 1 0-30.17-30.14zM501.35 0H10.67A10.67 10.67 0 0 0 0 10.67V160a10.65 10.65 0 0 0 10.67 10.66h490.68A10.63 10.63 0 0 0 512 160V10.67A10.66 10.66 0 0 0 501.35 0z"/></symbol><symbol id="pull-left" viewBox="0 0 512 512"><path d="M341.33 501.33V10.67A10.68 10.68 0 0 1 352 0h149.33A10.65 10.65 0 0 1 512 10.67v490.66A10.63 10.63 0 0 1 501.33 512H352a10.66 10.66 0 0 1-10.67-10.67zm-219.6-315.59l-48.89 48.94H256a21.32 21.32 0 1 1 0 42.64H72.84l48.89 48.92a21.32 21.32 0 0 1-30.14 30.16L6.25 271.09a21.35 21.35 0 0 1 0-30.19l85.34-85.33a21.32 21.32 0 0 1 30.14 30.17z"/></symbol><symbol id="pull-right" viewBox="0 0 512 512"><path d="M170.67 501.33V10.67A10.68 10.68 0 0 0 160 0H10.67A10.65 10.65 0 0 0 0 10.67v490.66A10.63 10.63 0 0 0 10.67 512H160a10.66 10.66 0 0 0 10.67-10.67zm219.6-315.59l48.89 48.94H256a21.32 21.32 0 1 0 0 42.64h183.16l-48.89 48.92a21.32 21.32 0 0 0 30.14 30.16l85.34-85.31a21.35 21.35 0 0 0 0-30.19l-85.34-85.33a21.32 21.32 0 0 0-30.14 30.17z"/></symbol><symbol id="pull-up" viewBox="0 0 512 512"><path d="M501.35 341.35H10.67A10.67 10.67 0 0 0 0 352v149.36A10.65 10.65 0 0 0 10.67 512h490.68A10.63 10.63 0 0 0 512 501.36V352a10.66 10.66 0 0 0-10.65-10.65zm-315.6-219.61l48.94-48.9V256a21.32 21.32 0 1 0 42.64 0V72.84l48.92 48.9a21.33 21.33 0 1 0 30.17-30.15L271.1 6.25a21.34 21.34 0 0 0-30.18 0l-85.34 85.34a21.33 21.33 0 0 0 30.17 30.15z"/></symbol><symbol id="reload" viewBox="0 0 512 512"><path d="M445.74 247.08a22.08 22.08 0 0 0-16.56 5.27 22.93 22.93 0 0 0-7.77 15.51v.1A166.91 166.91 0 0 1 284.61 421c-60.17 10.91-121.33-11.75-159.33-58.09l23.46 3.38a20.57 20.57 0 0 0 16-3.86 21.44 21.44 0 0 0 8.72-15.09c1.13-13-7.5-24-19.68-25.17l-72.17-10.65h-.31a23.09 23.09 0 0 0-25.12 19.39l-10.6 72.52v.31c-1.13 13 7.56 24.07 19.79 25.17 14.26 1.53 23.92-8.52 26.08-19.25l2.17-15c54.48 61.48 120 73.92 164.13 73.92a227.12 227.12 0 0 0 33.65-2.47l1.34-.2a212.67 212.67 0 0 0 173.79-194.56 22.13 22.13 0 0 0-5.28-16.51 23 23 0 0 0-15.51-7.76zM463 92.35a21.3 21.3 0 0 0-14.62-7.61 23.09 23.09 0 0 0-25.12 19.39l-2.63 18.55a214 214 0 0 0-204-75.87c-95.45 17.28-166.54 97.3-172.87 194.62a23 23 0 0 0 5.86 17.48A20.67 20.67 0 0 0 65 265.72c12.33 0 21.8-8.88 23-21.6v-.15a166.92 166.92 0 0 1 136.78-153c60.54-10.87 122 12.22 160 59.2l-19.05-2.73h-.29a23.09 23.09 0 0 0-25.12 19.39l-.06.42a22.86 22.86 0 0 0 5.16 16.67 21.41 21.41 0 0 0 14.58 7.62l72.14 10.56.46.05c13.48.79 23.75-7.29 25-19.68l10.56-72.24v-.26A24 24 0 0 0 463 92.35z" id="Layer_7" data-name="Layer 7"/></symbol><symbol id="search" viewBox="0 0 512 512"><path d="M193.76 346.45a152 152 0 0 0 95.56-33.79l129.93 130.59a17 17 0 0 0 24.06-23.94l-130.1-130.75a151.69 151.69 0 0 0 33.24-94.8c0-84.2-68.49-152.69-152.69-152.69S41.07 109.56 41.07 193.76s68.49 152.69 152.69 152.69zm0-271.45A118.76 118.76 0 1 1 75 193.76 118.89 118.89 0 0 1 193.76 75z"/></symbol><symbol id="success" viewBox="0 0 512 512"><path d="M256 64C150 64 64 150 64 256s86 192 192 192 192-86 192-192S362 64 256 64zm90.81 130.57L241.07 342a21.06 21.06 0 0 1-32 2.61l-41.66-41.65a21.05 21.05 0 0 1 29.78-29.77l24.12 24.11L312.59 170a21.06 21.06 0 0 1 34.22 24.56z"/></symbol><symbol id="twitter" viewBox="0 0 512 512"><path d="M474 120.78a178.88 178.88 0 0 1-51.38 14.09A89.7 89.7 0 0 0 462 85.38a179 179 0 0 1-56.8 21.7 89.54 89.54 0 0 0-152.43 81.59A254 254 0 0 1 68.35 95.21 89.54 89.54 0 0 0 96 214.63a89.14 89.14 0 0 1-40.52-11.18v1.12a89.51 89.51 0 0 0 71.76 87.71 89.51 89.51 0 0 1-40.4 1.53 89.53 89.53 0 0 0 83.56 62.12 179.47 179.47 0 0 1-111.09 38.3A183.34 183.34 0 0 1 38 393a253.2 253.2 0 0 0 137.12 40.18c164.53 0 254.5-136.3 254.5-254.5 0-3.88-.08-7.74-.26-11.57A181.83 181.83 0 0 0 474 120.78" id="Layer_7" data-name="Layer 7"/></symbol><symbol id="user" viewBox="0 0 512 512"><circle cx="256" cy="159.92" r="96.08"/><path d="M256 304c-64.85 0-192.15 31.22-192.15 96.08v48h384.3v-48c0-64.82-127.3-96.08-192.15-96.08z"/></symbol><symbol id="warning" viewBox="0 0 512 512"><path d="M256 64C150 64 64 150 64 256s86 192 192 192 192-86 192-192S362 64 256 64zm22.48 286.75h-45V305.8h45zm0-67.43h-45V161.25h45z"/></symbol><symbol id="drilling-well-white" viewBox="0 0 512 512"><g id="Layer_3"><path d="M131 446.8h-1.2c-1.7-.6-2.3-2.3-1.7-4l60.6-135.7c.6-1.7 2.3-2.3 4-1.7 1.7.6 2.3 2.3 1.7 4l-60.6 135.7c-.5 1.2-1.7 1.7-2.8 1.7zm243.7 0c-1.2 0-2.3-.6-2.9-1.7L310 310.6c-.6-1.7 0-2.9 1.2-4 1.7-.6 2.9 0 4 1.2L377 442.2c.6 1.7 0 2.9-1.2 4-.6.6-.6.6-1.1.6z"/><path d="M312.9 312.3l-121.3-1.2c-1.7 0-2.9-1.2-2.9-2.9s1.2-2.9 2.9-2.9l121.3 1.2c1.7 0 2.9 1.2 2.9 2.9s-1.2 2.9-2.9 2.9zm47.9 103.9h-216c-1.7 0-2.9-1.2-2.9-2.9s1.2-2.9 2.9-2.9h216c1.7 0 2.9 1.2 2.9 2.9 0 1.8-1.2 2.9-2.9 2.9z"/><path d="M276.5 416.2c-1.7 0-2.9-1.2-2.9-2.9V308.8c0-1.7 1.2-2.9 2.9-2.9s2.9 1.2 2.9 2.9v104.5c0 1.8-1.2 2.9-2.9 2.9zm-44.5 0c-1.7 0-2.9-1.2-2.9-2.9V308.8c0-1.7 1.2-2.9 2.9-2.9s2.9 1.2 2.9 2.9v104.5c0 1.8-1.1 2.9-2.9 2.9z"/><path d="M232 416.2c-1.2 0-2.3-.6-2.9-1.7l-40.4-105.1c-.6-1.7 0-2.9 1.7-3.5 1.7-.6 2.9 0 3.5 1.7l40.4 105.1c.6 1.7 0 2.9-1.7 3.5h-.6zm44.5 0h-1.2c-1.7-.6-2.3-2.3-1.7-3.5L310 308.8c.6-1.7 2.3-2.3 3.5-1.7 1.7.6 2.3 2.3 1.7 3.5l-36.4 103.9c0 1.2-1.1 1.7-2.3 1.7z"/><path d="M191.6 311.1c-1.2 0-1.7-.6-2.3-1.7l-23.7-41c-.6-1.2-.6-2.9 1.2-4 1.2-.6 2.9-.6 4 1.2l23.1 41.6c.6 1.2.6 2.9-1.2 4 .1-.1-.5-.1-1.1-.1zm121.3 1.2c-.6 0-1.2 0-1.2-.6-1.2-.6-1.7-2.3-1.2-4l22.5-42.2c.6-1.2 2.3-1.7 4-1.2 1.2.6 1.7 2.3 1.2 4l-23.1 42.2c.1 1.2-1.1 1.8-2.2 1.8z"/><path d="M335.4 270.1H167.9c-1.7 0-2.9-1.2-2.9-2.9s1.2-2.9 2.9-2.9h167.5c1.7 0 2.9 1.2 2.9 2.9s-1.2 2.9-2.9 2.9z"/><path d="M232 270.1c-1.7 0-2.9-1.2-2.9-2.9V184c0-1.7 1.2-2.9 2.9-2.9s2.9 1.2 2.9 2.9v83.2c0 1.8-1.1 2.9-2.9 2.9zm44.5 0c-1.7 0-2.9-1.2-2.9-2.9V184c0-1.7 1.2-2.9 2.9-2.9s2.9 1.2 2.9 2.9v83.2c0 1.8-1.2 2.9-2.9 2.9z"/><path d="M276.5 187H232c-1.7 0-2.9-1.2-2.9-2.9s1.2-2.9 2.9-2.9h44.5c1.7 0 2.9 1.2 2.9 2.9s-1.2 2.9-2.9 2.9z"/><path d="M300.2 270.1c-1.2 0-2.3-.6-2.9-2.3l-23.7-83.2c-.6-1.7.6-2.9 1.7-3.5 1.7-.6 2.9.6 3.5 1.7l24.3 83.7c.6 1.7-.6 2.9-1.7 3.5-.6.1-1.2.1-1.2.1zm-97 0H202c-1.7-.6-2.3-2.3-1.7-3.5l28.9-83.2c.6-1.7 2.3-2.3 3.5-1.7 1.7.6 2.3 2.3 1.7 3.5l-28.9 83.2c0 1.2-1.2 1.7-2.3 1.7z"/><path d="M276.5 187c-.6 0-1.7 0-2.3-.6-1.2-1.2-1.2-2.9 0-4l28.9-28.9c1.2-1.2 2.9-1.2 4 0 1.2 1.2 1.2 2.9 0 4l-28.9 28.9c0 .6-1.1.6-1.7.6zm-44.5 0c-.6 0-1.7 0-2.3-.6L200.3 157c-1.2-1.2-1.2-2.9 0-4s2.9-1.2 4 0l29.4 29.4c1.2 1.2 1.2 2.9 0 4 .1.6-1.1.6-1.7.6z"/><path d="M305.4 158.1l-102.8-.6c-1.7 0-2.9-1.2-2.9-2.9s1.2-2.9 2.9-2.9l102.8.6c1.7 0 2.9 1.2 2.9 2.9s-1.2 2.9-2.9 2.9z"/><path d="M232 157.5c-1.7 0-2.9-1.2-2.9-2.9v-35.2c0-1.7 1.2-2.9 2.9-2.9s2.9 1.2 2.9 2.9v35.2c0 1.8-1.1 2.9-2.9 2.9zm44.5 0c-1.7 0-2.9-1.2-2.9-2.9v-35.2c0-1.7 1.2-2.9 2.9-2.9s2.9 1.2 2.9 2.9v35.2c0 1.8-1.2 2.9-2.9 2.9z"/><path d="M276.5 122.3H232c-1.7 0-2.9-1.2-2.9-2.9s1.2-2.9 2.9-2.9h44.5c1.7 0 2.9 1.2 2.9 2.9 0 1.8-1.2 2.9-2.9 2.9zm-5.8-25.4c-.6 0-1.7-.6-2.3-1.2-1.2-1.2-.6-2.9.6-4 2.3-2.3 11-9.8 11.5-19.6 0-5.8-2.3-11-7.5-16.7-13.3-13.3-21.4-27.1-24.3-37-1.7 2.3-4 4.6-6.9 8.1-8.7 9.2-20.2 21.9-20.8 31.8-.6 16.2 15 33.5 15.6 33.5 1.2 1.2 1.2 2.9 0 4s-2.9 1.2-4 0c-.6-.6-17.3-19.6-16.7-38.1.6-11.5 12.7-24.8 22.5-35.2 4.6-4.6 9.8-10.4 9.8-12.1s1.7-2.3 2.9-2.3c1.7 0 2.9 1.2 2.9 2.9 0 5.8 5.2 21.9 24.3 40.4 6.4 6.4 9.8 13.3 9.2 20.8-.6 11.5-9.8 20.8-13.3 23.7-2.3 1-2.9 1-3.5 1zM91.1 448H66.9c-1.7 0-2.9-1.2-2.9-2.9s1.2-2.9 2.9-2.9h24.3c1.7 0 2.9 1.2 2.9 2.9-.1 1.7-1.2 2.9-3 2.9zm298.6 0H118.3c-1.7 0-2.9-1.2-2.9-2.9s1.2-2.9 2.9-2.9h271.4c1.7 0 2.9 1.2 2.9 2.9s-1.2 2.9-2.9 2.9zm55.4 0h-28.3c-1.7 0-2.9-1.2-2.9-2.9s1.2-2.9 2.9-2.9h28.3c1.7 0 2.9 1.2 2.9 2.9s-1.2 2.9-2.9 2.9z"/></g></symbol><symbol id="drilling-well" viewBox="0 0 512 512"><g id="Layer_3"><path d="M131 446.8h-1.2c-1.7-.6-2.3-2.3-1.7-4l60.6-135.7c.6-1.7 2.3-2.3 4-1.7 1.7.6 2.3 2.3 1.7 4l-60.6 135.7c-.5 1.2-1.7 1.7-2.8 1.7zm243.7 0c-1.2 0-2.3-.6-2.9-1.7L310 310.6c-.6-1.7 0-2.9 1.2-4 1.7-.6 2.9 0 4 1.2L377 442.2c.6 1.7 0 2.9-1.2 4-.6.6-.6.6-1.1.6z"/><path d="M312.9 312.3l-121.3-1.2c-1.7 0-2.9-1.2-2.9-2.9s1.2-2.9 2.9-2.9l121.3 1.2c1.7 0 2.9 1.2 2.9 2.9s-1.2 2.9-2.9 2.9zm47.9 103.9h-216c-1.7 0-2.9-1.2-2.9-2.9s1.2-2.9 2.9-2.9h216c1.7 0 2.9 1.2 2.9 2.9 0 1.8-1.2 2.9-2.9 2.9z"/><path d="M276.5 416.2c-1.7 0-2.9-1.2-2.9-2.9V308.8c0-1.7 1.2-2.9 2.9-2.9s2.9 1.2 2.9 2.9v104.5c0 1.8-1.2 2.9-2.9 2.9zm-44.5 0c-1.7 0-2.9-1.2-2.9-2.9V308.8c0-1.7 1.2-2.9 2.9-2.9s2.9 1.2 2.9 2.9v104.5c0 1.8-1.1 2.9-2.9 2.9z"/><path d="M232 416.2c-1.2 0-2.3-.6-2.9-1.7l-40.4-105.1c-.6-1.7 0-2.9 1.7-3.5 1.7-.6 2.9 0 3.5 1.7l40.4 105.1c.6 1.7 0 2.9-1.7 3.5h-.6zm44.5 0h-1.2c-1.7-.6-2.3-2.3-1.7-3.5L310 308.8c.6-1.7 2.3-2.3 3.5-1.7 1.7.6 2.3 2.3 1.7 3.5l-36.4 103.9c0 1.2-1.1 1.7-2.3 1.7z"/><path d="M191.6 311.1c-1.2 0-1.7-.6-2.3-1.7l-23.7-41c-.6-1.2-.6-2.9 1.2-4 1.2-.6 2.9-.6 4 1.2l23.1 41.6c.6 1.2.6 2.9-1.2 4 .1-.1-.5-.1-1.1-.1zm121.3 1.2c-.6 0-1.2 0-1.2-.6-1.2-.6-1.7-2.3-1.2-4l22.5-42.2c.6-1.2 2.3-1.7 4-1.2 1.2.6 1.7 2.3 1.2 4l-23.1 42.2c.1 1.2-1.1 1.8-2.2 1.8z"/><path d="M335.4 270.1H167.9c-1.7 0-2.9-1.2-2.9-2.9s1.2-2.9 2.9-2.9h167.5c1.7 0 2.9 1.2 2.9 2.9s-1.2 2.9-2.9 2.9z"/><path d="M232 270.1c-1.7 0-2.9-1.2-2.9-2.9V184c0-1.7 1.2-2.9 2.9-2.9s2.9 1.2 2.9 2.9v83.2c0 1.8-1.1 2.9-2.9 2.9zm44.5 0c-1.7 0-2.9-1.2-2.9-2.9V184c0-1.7 1.2-2.9 2.9-2.9s2.9 1.2 2.9 2.9v83.2c0 1.8-1.2 2.9-2.9 2.9z"/><path d="M276.5 187H232c-1.7 0-2.9-1.2-2.9-2.9s1.2-2.9 2.9-2.9h44.5c1.7 0 2.9 1.2 2.9 2.9s-1.2 2.9-2.9 2.9z"/><path d="M300.2 270.1c-1.2 0-2.3-.6-2.9-2.3l-23.7-83.2c-.6-1.7.6-2.9 1.7-3.5 1.7-.6 2.9.6 3.5 1.7l24.3 83.7c.6 1.7-.6 2.9-1.7 3.5-.6.1-1.2.1-1.2.1zm-97 0H202c-1.7-.6-2.3-2.3-1.7-3.5l28.9-83.2c.6-1.7 2.3-2.3 3.5-1.7 1.7.6 2.3 2.3 1.7 3.5l-28.9 83.2c0 1.2-1.2 1.7-2.3 1.7z"/><path d="M276.5 187c-.6 0-1.7 0-2.3-.6-1.2-1.2-1.2-2.9 0-4l28.9-28.9c1.2-1.2 2.9-1.2 4 0 1.2 1.2 1.2 2.9 0 4l-28.9 28.9c0 .6-1.1.6-1.7.6zm-44.5 0c-.6 0-1.7 0-2.3-.6L200.3 157c-1.2-1.2-1.2-2.9 0-4s2.9-1.2 4 0l29.4 29.4c1.2 1.2 1.2 2.9 0 4 .1.6-1.1.6-1.7.6z"/><path d="M305.4 158.1l-102.8-.6c-1.7 0-2.9-1.2-2.9-2.9s1.2-2.9 2.9-2.9l102.8.6c1.7 0 2.9 1.2 2.9 2.9s-1.2 2.9-2.9 2.9z"/><path d="M232 157.5c-1.7 0-2.9-1.2-2.9-2.9v-35.2c0-1.7 1.2-2.9 2.9-2.9s2.9 1.2 2.9 2.9v35.2c0 1.8-1.1 2.9-2.9 2.9zm44.5 0c-1.7 0-2.9-1.2-2.9-2.9v-35.2c0-1.7 1.2-2.9 2.9-2.9s2.9 1.2 2.9 2.9v35.2c0 1.8-1.2 2.9-2.9 2.9z"/><path d="M276.5 122.3H232c-1.7 0-2.9-1.2-2.9-2.9s1.2-2.9 2.9-2.9h44.5c1.7 0 2.9 1.2 2.9 2.9 0 1.8-1.2 2.9-2.9 2.9zm-5.8-25.4c-.6 0-1.7-.6-2.3-1.2-1.2-1.2-.6-2.9.6-4 2.3-2.3 11-9.8 11.5-19.6 0-5.8-2.3-11-7.5-16.7-13.3-13.3-21.4-27.1-24.3-37-1.7 2.3-4 4.6-6.9 8.1-8.7 9.2-20.2 21.9-20.8 31.8-.6 16.2 15 33.5 15.6 33.5 1.2 1.2 1.2 2.9 0 4s-2.9 1.2-4 0c-.6-.6-17.3-19.6-16.7-38.1.6-11.5 12.7-24.8 22.5-35.2 4.6-4.6 9.8-10.4 9.8-12.1s1.7-2.3 2.9-2.3c1.7 0 2.9 1.2 2.9 2.9 0 5.8 5.2 21.9 24.3 40.4 6.4 6.4 9.8 13.3 9.2 20.8-.6 11.5-9.8 20.8-13.3 23.7-2.3 1-2.9 1-3.5 1zM91.1 448H66.9c-1.7 0-2.9-1.2-2.9-2.9s1.2-2.9 2.9-2.9h24.3c1.7 0 2.9 1.2 2.9 2.9-.1 1.7-1.2 2.9-3 2.9zm298.6 0H118.3c-1.7 0-2.9-1.2-2.9-2.9s1.2-2.9 2.9-2.9h271.4c1.7 0 2.9 1.2 2.9 2.9s-1.2 2.9-2.9 2.9zm55.4 0h-28.3c-1.7 0-2.9-1.2-2.9-2.9s1.2-2.9 2.9-2.9h28.3c1.7 0 2.9 1.2 2.9 2.9s-1.2 2.9-2.9 2.9z"/></g></symbol><symbol id="fishery-white" viewBox="0 0 512 512"><g id="Layer_1"><g id="Layer_7_3_"><path d="M445.1 448h-28.3c-1.7 0-2.9-1.2-2.9-2.9s1.2-2.9 2.9-2.9h28.3c1.7 0 2.9 1.2 2.9 2.9s-1.2 2.9-2.9 2.9zm-55.4 0H118.3c-1.7 0-2.9-1.2-2.9-2.9s1.2-2.9 2.9-2.9h271.4c1.7 0 2.9 1.2 2.9 2.9s-1.2 2.9-2.9 2.9zm-298 0H66.9c-1.7 0-2.9-1.2-2.9-2.9s1.2-2.9 2.9-2.9h24.8c1.7 0 2.9 1.2 2.9 2.9s-1.2 2.9-2.9 2.9zm17.9-31.2l-.6-5.8c0-.6-1.7-14.4 1.2-23.7-12.1-5.8-17.3-16.7-17.3-17.3l-1.7-4h4s24.3-1.2 31.8-2.3c4-5.8 13.3-16.2 17.9-20.8-3.5-1.7-8.1-5.2-12.1-7.5l-3.5-1.7 2.9-2.9c7.5-6.9 15.6-11.5 24.8-17.3l5.8-3.5c9.2-5.2 17.3-2.9 24.3 7.5 34.1-6.9 53.7 12.7 54.3 13.3l1.2 1.2v1.2c-3.5 27.1-16.7 39.8-28.9 47.4 1.7 4.6 1.2 9.2-1.2 13.3-8.7 15-44.5 16.7-48.5 16.7h-4l1.2-4s1.7-6.9 3.5-13.3c-8.7 0-23.1-2.3-28.3-2.9l-26.8 26.4zm63.5-28.9l-1.2 4.6c-1.2 4-2.3 9.8-3.5 13.3 12.1-1.2 34.6-4.6 39.8-13.9 1.7-2.9 1.7-6.4 0-9.8l-1.2-2.3 2.3-1.2c11-6.9 24.3-17.9 27.7-43.3-4-4-21.9-17.3-50.2-10.4l-1.7.6-1.2-1.7c-4-6.4-9.2-12.1-17.3-6.9l-5.8 3.5c-8.1 4.6-15 8.7-20.8 13.9 5.2 3.5 11.5 7.5 11.5 7.5l2.9 1.7-2.3 1.2s-16.7 17.3-20.2 23.7l-.6 1.2h-1.2c-4.6 1.2-20.8 1.7-28.9 2.3 2.3 3.5 6.9 8.7 14.4 11.5l2.9 1.2-1.7 2.9c-2.3 4-2.9 11.5-2.3 17.3l20.8-19.6h1.2c10.4 1.7 27.7 3.5 31.8 2.9l4.8-.2zm32.4-33.4c-1.2 0-2.9-.6-4-1.2-2.9-1.2-4.6-3.5-5.8-5.8s-.6-5.2.6-6.9c1.2-2.9 3.5-4.6 5.8-5.8 2.3-1.2 4.6-.6 6.9.6 2.9 1.2 4.6 3.5 5.8 5.8s.6 5.2-.6 6.9c-1.2 2.9-3.5 4.6-5.8 5.8-1.2.6-1.8.6-2.9.6zm-.6-14.5h-1.2c-1.2.6-2.3 1.2-2.9 2.9-.6 1.2-.6 1.7 0 2.9s1.2 2.3 2.9 2.9c1.2.6 1.7.6 2.9 0s2.3-1.2 2.9-2.9c.6-1.2.6-1.7 0-2.9s-1.2-2.3-2.9-2.9h-1.7zm5.8-42.1l-.6-5.2c0-.6-.6-5.2.6-9.2-4.6-2.9-6.9-6.9-6.9-6.9l-2.3-4h4.6c3.5 0 9.2 0 12.1-.6 1.7-2.3 4-4.6 5.8-6.9-1.2-.6-2.3-1.7-2.9-1.7l-4-2.3 2.9-2.9c3.5-3.5 7.5-5.8 13.3-9.2 2.9-1.7 7.5-2.3 12.1 2.9 14.4-2.9 23.1 5.8 23.7 6.4l1.2 1.2v1.2c-1.2 12.1-7.5 17.3-11.5 20.2.6 2.3 0 4-.6 5.2-4 6.9-19.1 8.1-21.9 8.1h-4l1.2-4s.6-1.7 1.2-4c-2.9 0-6.9-.6-9.2-1.2l-14.8 12.9zm29.4-17.4l-.6 4c0 1.2-.6 2.3-.6 3.5 5.2-.6 11.5-2.3 13.3-4.6 0 0 .6-.6-.6-2.3l-1.2-2.3 2.3-1.7c4.6-2.9 9.2-6.4 10.4-16.2-2.3-1.7-8.7-5.8-19.1-3.5l-1.7.6-1.2-1.7c-2.3-2.9-3.5-3.5-5.2-2.3-4 2.3-6.9 4-9.2 5.8 1.7 1.2 2.9 2.3 2.9 2.3l2.9 1.7-2.3 2.9c-2.3 2.3-6.9 7.5-8.1 9.2l-.6 1.2h-1.2c-1.7.6-4.6.6-8.1.6.6.6 1.7 1.2 2.9 1.7l3.5 1.2-2.9 2.9c-.6.6-.6 1.7-.6 2.3l6.9-5.8h1.2c5.2.6 11.5 1.7 12.7 1.2l4.2-.7zm-112-94.7l-1.2-5.8c0-1.2-1.7-10.4 0-17.3-9.2-4-13.9-11.5-13.9-11.5l-2.3-4 4.6-.6c5.2-.6 18.5-2.3 23.1-2.9 2.9-4.6 8.7-12.1 12.1-15.6-2.3-1.2-5.8-3.5-8.7-4.6l-3.5-1.7 2.3-2.9c5.8-6.4 13.3-11.5 21.9-17.3 3.5-2.3 6.9-2.9 10.4-2.3 4.6 1.2 7.5 4 9.2 6.4 24.8-6.9 40.4 6.4 41 6.9l1.2 1.2v1.2c-1.2 21.4-12.7 31.8-19.6 37.5 1.7 4 1.2 7.5 0 9.8-5.8 12.1-32.9 15-35.8 15.6l-3.5.6.6-3.5s.6-4.6 1.7-9.2c-6.4.6-15.6 0-19.6-.6l-20 20.6zm-6.9-34c2.3 2.3 5.8 5.2 10.4 6.4l2.9 1.2-1.2 2.9c-1.2 2.9-1.2 6.9-1.2 11l13.3-14.4h1.2c8.1.6 20.2 1.2 23.1 0l5.2-1.7-1.2 5.2c-.6 2.9-1.2 6.4-1.7 9.2 10.4-1.7 24.8-5.8 27.7-11.5.6-1.2 1.2-3.5-.6-6.4l-1.7-2.3 1.7-1.7c9.2-6.9 17.9-16.2 19.1-33.5-3.5-2.9-16.7-11-36.4-4.6l-2.3.6-.6-1.2c-.6-.6-2.9-4.6-6.9-5.8-1.7-.6-4 0-5.8 1.2-7.5 4.6-13.3 8.7-18.5 13.9 4 2.3 8.1 4.6 8.1 4.6l2.9 1.7-2.3 2.9c-2.9 3.5-11.5 13.9-13.9 18.5l-.6 1.2h-1.2c-2.8.3-13.2 2-19.5 2.6zm82.5-19.1c-1.2 0-1.7 0-2.9-.6-4.6-1.7-6.9-6.4-5.2-11 1.7-4.6 6.4-6.9 10.4-5.2 4 1.2 6.4 5.2 5.2 10.4v.6c-1.1 3.5-4 5.8-7.5 5.8zm0-11.5c-1.2 0-1.7 1.2-2.3 1.7v1.7l1.7 1.7h1.7c.6-.6 1.2-.6 1.2-1.7 0-1.2 0-2.9-1.2-3.5h-.6c.1.1-.5.1-.5.1z"/><path d="M425.5 343.5h-127c-8.1 0-14.4-6.4-14.4-14.4V213.6c-8.7 12.1-20.2 19.1-32.9 19.1-13.9 0-27.1-8.7-35.8-23.7-8.1 15-20.8 24.3-34.6 24.3-14.4 0-27.7-8.7-36.4-24.3-6.9 13.9-17.9 22.5-31.2 23.7-14.4 1.2-28.9-6.4-35.8-19.1-.6-1.2 0-2.9 1.2-4 1.2-.6 2.9 0 4 1.2 5.8 10.4 18.5 17.3 30.6 16.2 12.7-1.2 23.1-10.4 28.3-25.4.6-1.2 1.2-1.7 2.9-1.7 1.2 0 2.3.6 2.9 1.7 6.9 16.7 19.6 26.6 33.5 26.6 13.3 0 25.4-9.8 31.8-26.6.6-1.2 1.7-1.7 2.3-1.7 1.2 0 2.3.6 2.9 1.7 7.5 16.2 19.6 25.4 33.5 25.4 13.3 0 25.4-9.2 32.9-24.8v-59.5c0-8.1 6.4-14.4 14.4-14.4h127c8.1 0 14.4 6.4 14.4 14.4V329c-.1 8.1-6.4 14.5-14.5 14.5zM289.8 202.6V329c0 4.6 4 8.7 8.7 8.7h127c4.6 0 8.7-4 8.7-8.7V142.5c0-4.6-4-8.7-8.7-8.7h-127c-4.6 0-8.7 4-8.7 8.7v60.1zm73.9 129.9c-3.5 0-7.5-2.9-7.5-7.5 0-3.5 2.9-7.5 7.5-7.5s7.5 2.9 7.5 7.5c0 3.5-2.9 7.5-7.5 7.5zm0-9.2c-1.2 0-1.7 1.2-1.7 1.7 0 1.2 1.2 1.7 1.7 1.7 1.2 0 1.7-1.2 1.7-1.7 0-1.2-.6-1.7-1.7-1.7zm60-12.2H300.2c-1.7 0-2.9-1.2-2.9-2.9v-161c0-1.7 1.2-2.9 2.9-2.9h123.6c1.7 0 2.9 1.2 2.9 2.9v161.1c-.1 1.7-1.2 2.8-3 2.8zm-120.6-5.7h117.8V150H303.1v155.4z"/><path d="M402.4 311.1c-1.7 0-2.9-1.2-2.9-2.9V177.8c0-1.7 1.2-2.9 2.9-2.9s2.9 1.2 2.9 2.9v130.5c0 1.7-1.2 2.8-2.9 2.8zm-24.8 0c-1.7 0-2.9-1.2-2.9-2.9v-80.8c0-1.7 1.2-2.9 2.9-2.9s2.9 1.2 2.9 2.9v80.8c-.1 1.8-1.2 2.9-2.9 2.9zm-27.8 0c-1.7 0-2.9-1.2-2.9-2.9V213c0-1.7 1.2-2.9 2.9-2.9s2.9 1.2 2.9 2.9v95.3c0 1.7-1.1 2.8-2.9 2.8zm-24.8 0c-1.7 0-2.9-1.2-2.9-2.9v-80.8c0-1.7 1.2-2.9 2.9-2.9s2.9 1.2 2.9 2.9v80.8c0 1.8-1.2 2.9-2.9 2.9z"/></g></g></symbol><symbol id="fishery" viewBox="0 0 512 512"><g id="Layer_1"><g id="Layer_7_3_"><path d="M445.1 448h-28.3c-1.7 0-2.9-1.2-2.9-2.9s1.2-2.9 2.9-2.9h28.3c1.7 0 2.9 1.2 2.9 2.9s-1.2 2.9-2.9 2.9zm-55.4 0H118.3c-1.7 0-2.9-1.2-2.9-2.9s1.2-2.9 2.9-2.9h271.4c1.7 0 2.9 1.2 2.9 2.9s-1.2 2.9-2.9 2.9zm-298 0H66.9c-1.7 0-2.9-1.2-2.9-2.9s1.2-2.9 2.9-2.9h24.8c1.7 0 2.9 1.2 2.9 2.9s-1.2 2.9-2.9 2.9zm17.9-31.2l-.6-5.8c0-.6-1.7-14.4 1.2-23.7-12.1-5.8-17.3-16.7-17.3-17.3l-1.7-4h4s24.3-1.2 31.8-2.3c4-5.8 13.3-16.2 17.9-20.8-3.5-1.7-8.1-5.2-12.1-7.5l-3.5-1.7 2.9-2.9c7.5-6.9 15.6-11.5 24.8-17.3l5.8-3.5c9.2-5.2 17.3-2.9 24.3 7.5 34.1-6.9 53.7 12.7 54.3 13.3l1.2 1.2v1.2c-3.5 27.1-16.7 39.8-28.9 47.4 1.7 4.6 1.2 9.2-1.2 13.3-8.7 15-44.5 16.7-48.5 16.7h-4l1.2-4s1.7-6.9 3.5-13.3c-8.7 0-23.1-2.3-28.3-2.9l-26.8 26.4zm63.5-28.9l-1.2 4.6c-1.2 4-2.3 9.8-3.5 13.3 12.1-1.2 34.6-4.6 39.8-13.9 1.7-2.9 1.7-6.4 0-9.8l-1.2-2.3 2.3-1.2c11-6.9 24.3-17.9 27.7-43.3-4-4-21.9-17.3-50.2-10.4l-1.7.6-1.2-1.7c-4-6.4-9.2-12.1-17.3-6.9l-5.8 3.5c-8.1 4.6-15 8.7-20.8 13.9 5.2 3.5 11.5 7.5 11.5 7.5l2.9 1.7-2.3 1.2s-16.7 17.3-20.2 23.7l-.6 1.2h-1.2c-4.6 1.2-20.8 1.7-28.9 2.3 2.3 3.5 6.9 8.7 14.4 11.5l2.9 1.2-1.7 2.9c-2.3 4-2.9 11.5-2.3 17.3l20.8-19.6h1.2c10.4 1.7 27.7 3.5 31.8 2.9l4.8-.2zm32.4-33.4c-1.2 0-2.9-.6-4-1.2-2.9-1.2-4.6-3.5-5.8-5.8s-.6-5.2.6-6.9c1.2-2.9 3.5-4.6 5.8-5.8 2.3-1.2 4.6-.6 6.9.6 2.9 1.2 4.6 3.5 5.8 5.8s.6 5.2-.6 6.9c-1.2 2.9-3.5 4.6-5.8 5.8-1.2.6-1.8.6-2.9.6zm-.6-14.5h-1.2c-1.2.6-2.3 1.2-2.9 2.9-.6 1.2-.6 1.7 0 2.9s1.2 2.3 2.9 2.9c1.2.6 1.7.6 2.9 0s2.3-1.2 2.9-2.9c.6-1.2.6-1.7 0-2.9s-1.2-2.3-2.9-2.9h-1.7zm5.8-42.1l-.6-5.2c0-.6-.6-5.2.6-9.2-4.6-2.9-6.9-6.9-6.9-6.9l-2.3-4h4.6c3.5 0 9.2 0 12.1-.6 1.7-2.3 4-4.6 5.8-6.9-1.2-.6-2.3-1.7-2.9-1.7l-4-2.3 2.9-2.9c3.5-3.5 7.5-5.8 13.3-9.2 2.9-1.7 7.5-2.3 12.1 2.9 14.4-2.9 23.1 5.8 23.7 6.4l1.2 1.2v1.2c-1.2 12.1-7.5 17.3-11.5 20.2.6 2.3 0 4-.6 5.2-4 6.9-19.1 8.1-21.9 8.1h-4l1.2-4s.6-1.7 1.2-4c-2.9 0-6.9-.6-9.2-1.2l-14.8 12.9zm29.4-17.4l-.6 4c0 1.2-.6 2.3-.6 3.5 5.2-.6 11.5-2.3 13.3-4.6 0 0 .6-.6-.6-2.3l-1.2-2.3 2.3-1.7c4.6-2.9 9.2-6.4 10.4-16.2-2.3-1.7-8.7-5.8-19.1-3.5l-1.7.6-1.2-1.7c-2.3-2.9-3.5-3.5-5.2-2.3-4 2.3-6.9 4-9.2 5.8 1.7 1.2 2.9 2.3 2.9 2.3l2.9 1.7-2.3 2.9c-2.3 2.3-6.9 7.5-8.1 9.2l-.6 1.2h-1.2c-1.7.6-4.6.6-8.1.6.6.6 1.7 1.2 2.9 1.7l3.5 1.2-2.9 2.9c-.6.6-.6 1.7-.6 2.3l6.9-5.8h1.2c5.2.6 11.5 1.7 12.7 1.2l4.2-.7zm-112-94.7l-1.2-5.8c0-1.2-1.7-10.4 0-17.3-9.2-4-13.9-11.5-13.9-11.5l-2.3-4 4.6-.6c5.2-.6 18.5-2.3 23.1-2.9 2.9-4.6 8.7-12.1 12.1-15.6-2.3-1.2-5.8-3.5-8.7-4.6l-3.5-1.7 2.3-2.9c5.8-6.4 13.3-11.5 21.9-17.3 3.5-2.3 6.9-2.9 10.4-2.3 4.6 1.2 7.5 4 9.2 6.4 24.8-6.9 40.4 6.4 41 6.9l1.2 1.2v1.2c-1.2 21.4-12.7 31.8-19.6 37.5 1.7 4 1.2 7.5 0 9.8-5.8 12.1-32.9 15-35.8 15.6l-3.5.6.6-3.5s.6-4.6 1.7-9.2c-6.4.6-15.6 0-19.6-.6l-20 20.6zm-6.9-34c2.3 2.3 5.8 5.2 10.4 6.4l2.9 1.2-1.2 2.9c-1.2 2.9-1.2 6.9-1.2 11l13.3-14.4h1.2c8.1.6 20.2 1.2 23.1 0l5.2-1.7-1.2 5.2c-.6 2.9-1.2 6.4-1.7 9.2 10.4-1.7 24.8-5.8 27.7-11.5.6-1.2 1.2-3.5-.6-6.4l-1.7-2.3 1.7-1.7c9.2-6.9 17.9-16.2 19.1-33.5-3.5-2.9-16.7-11-36.4-4.6l-2.3.6-.6-1.2c-.6-.6-2.9-4.6-6.9-5.8-1.7-.6-4 0-5.8 1.2-7.5 4.6-13.3 8.7-18.5 13.9 4 2.3 8.1 4.6 8.1 4.6l2.9 1.7-2.3 2.9c-2.9 3.5-11.5 13.9-13.9 18.5l-.6 1.2h-1.2c-2.8.3-13.2 2-19.5 2.6zm82.5-19.1c-1.2 0-1.7 0-2.9-.6-4.6-1.7-6.9-6.4-5.2-11 1.7-4.6 6.4-6.9 10.4-5.2 4 1.2 6.4 5.2 5.2 10.4v.6c-1.1 3.5-4 5.8-7.5 5.8zm0-11.5c-1.2 0-1.7 1.2-2.3 1.7v1.7l1.7 1.7h1.7c.6-.6 1.2-.6 1.2-1.7 0-1.2 0-2.9-1.2-3.5h-.6c.1.1-.5.1-.5.1z"/><path d="M425.5 343.5h-127c-8.1 0-14.4-6.4-14.4-14.4V213.6c-8.7 12.1-20.2 19.1-32.9 19.1-13.9 0-27.1-8.7-35.8-23.7-8.1 15-20.8 24.3-34.6 24.3-14.4 0-27.7-8.7-36.4-24.3-6.9 13.9-17.9 22.5-31.2 23.7-14.4 1.2-28.9-6.4-35.8-19.1-.6-1.2 0-2.9 1.2-4 1.2-.6 2.9 0 4 1.2 5.8 10.4 18.5 17.3 30.6 16.2 12.7-1.2 23.1-10.4 28.3-25.4.6-1.2 1.2-1.7 2.9-1.7 1.2 0 2.3.6 2.9 1.7 6.9 16.7 19.6 26.6 33.5 26.6 13.3 0 25.4-9.8 31.8-26.6.6-1.2 1.7-1.7 2.3-1.7 1.2 0 2.3.6 2.9 1.7 7.5 16.2 19.6 25.4 33.5 25.4 13.3 0 25.4-9.2 32.9-24.8v-59.5c0-8.1 6.4-14.4 14.4-14.4h127c8.1 0 14.4 6.4 14.4 14.4V329c-.1 8.1-6.4 14.5-14.5 14.5zM289.8 202.6V329c0 4.6 4 8.7 8.7 8.7h127c4.6 0 8.7-4 8.7-8.7V142.5c0-4.6-4-8.7-8.7-8.7h-127c-4.6 0-8.7 4-8.7 8.7v60.1zm73.9 129.9c-3.5 0-7.5-2.9-7.5-7.5 0-3.5 2.9-7.5 7.5-7.5s7.5 2.9 7.5 7.5c0 3.5-2.9 7.5-7.5 7.5zm0-9.2c-1.2 0-1.7 1.2-1.7 1.7 0 1.2 1.2 1.7 1.7 1.7 1.2 0 1.7-1.2 1.7-1.7 0-1.2-.6-1.7-1.7-1.7zm60-12.2H300.2c-1.7 0-2.9-1.2-2.9-2.9v-161c0-1.7 1.2-2.9 2.9-2.9h123.6c1.7 0 2.9 1.2 2.9 2.9v161.1c-.1 1.7-1.2 2.8-3 2.8zm-120.6-5.7h117.8V150H303.1v155.4z"/><path d="M402.4 311.1c-1.7 0-2.9-1.2-2.9-2.9V177.8c0-1.7 1.2-2.9 2.9-2.9s2.9 1.2 2.9 2.9v130.5c0 1.7-1.2 2.8-2.9 2.8zm-24.8 0c-1.7 0-2.9-1.2-2.9-2.9v-80.8c0-1.7 1.2-2.9 2.9-2.9s2.9 1.2 2.9 2.9v80.8c-.1 1.8-1.2 2.9-2.9 2.9zm-27.8 0c-1.7 0-2.9-1.2-2.9-2.9V213c0-1.7 1.2-2.9 2.9-2.9s2.9 1.2 2.9 2.9v95.3c0 1.7-1.1 2.8-2.9 2.8zm-24.8 0c-1.7 0-2.9-1.2-2.9-2.9v-80.8c0-1.7 1.2-2.9 2.9-2.9s2.9 1.2 2.9 2.9v80.8c0 1.8-1.2 2.9-2.9 2.9z"/></g></g></symbol><symbol id="maritime-offshore-white" viewBox="0 0 512 512"><g id="Layer_4"><path d="M445.1 447.4h-28.3c-1.7 0-2.9-1.2-2.9-2.9s1.2-2.9 2.9-2.9h28.3c1.7 0 2.9 1.2 2.9 2.9s-1.2 2.9-2.9 2.9zm-54.9 0H118.4c-1.7 0-2.9-1.2-2.9-2.9s1.2-2.9 2.9-2.9h271.8c1.7 0 2.9 1.2 2.9 2.9s-1.2 2.9-2.9 2.9zm-298.4 0H66.9c-1.7 0-2.9-1.2-2.9-2.9s1.2-2.9 2.9-2.9h24.9c1.7 0 2.9 1.2 2.9 2.9s-1.2 2.9-2.9 2.9z"/><path d="M256 448c-1.7 0-2.9-1.2-2.9-2.9V210.3L75 283.8l76.9 159.6c.6 1.2 0 2.9-1.2 4-1.7.6-2.9 0-4-1.2l-78.1-163v-2.4c0-.6.6-.6.6-1.2l.6-.6 184.5-75.8h2.4L441.8 279c.6 0 .6.6.6.6.6.6.6.6.6 1.2v2.4l-76.9 162.5c-.6 1.2-2.3 2.3-4 1.2-1.7-.6-2.3-2.3-1.2-4L437 283.2l-178.1-72.9v234.8c0 1.7-1.2 2.9-2.9 2.9zm122-149.2h-12.1c-1.7 0-2.9-1.2-2.9-2.9s1.2-2.9 2.9-2.9H378c1.7 0 2.9 1.2 2.9 2.9s-1.1 2.9-2.9 2.9zm-232.5 0h-12.1c-1.7 0-2.9-1.2-2.9-2.9s1.2-2.9 2.9-2.9h12.1c1.7 0 2.9 1.2 2.9 2.9s-1.1 2.9-2.9 2.9z"/><path d="M378 258.3c-1.7 0-2.9-1.2-2.9-2.9V160H136.3v95.4c0 1.7-1.2 2.9-2.9 2.9s-2.9-1.2-2.9-2.9v-98.3c0-1.7 1.2-2.9 2.9-2.9h49.2v-41.1c0-1.7 1.2-2.9 2.9-2.9h142.3c1.7 0 2.9 1.2 2.9 2.9v41.1H378c1.7 0 2.9 1.2 2.9 2.9v98.3c0 1.8-1.1 2.9-2.9 2.9zM188.3 154.2h136.5V116H188.3v38.2zm151.6 39.9c-1.7 0-2.9-1.2-2.9-2.9v-12.1c0-1.7 1.2-2.9 2.9-2.9s2.9 1.2 2.9 2.9v12.1c-.1 1.8-1.2 2.9-2.9 2.9zm-23.8 0c-1.7 0-2.9-1.2-2.9-2.9v-12.1c0-1.7 1.2-2.9 2.9-2.9s2.9 1.2 2.9 2.9v12.1c0 1.8-1.1 2.9-2.9 2.9zm-23.1 0c-1.7 0-2.9-1.2-2.9-2.9v-12.1c0-1.7 1.2-2.9 2.9-2.9s2.9 1.2 2.9 2.9v12.1c0 1.8-1.2 2.9-2.9 2.9zm-24.3 0c-1.7 0-2.9-1.2-2.9-2.9v-12.1c0-1.7 1.2-2.9 2.9-2.9s2.9 1.2 2.9 2.9v12.1c0 1.8-1.1 2.9-2.9 2.9zm-24.8 0c-1.7 0-2.9-1.2-2.9-2.9v-12.1c0-1.7 1.2-2.9 2.9-2.9s2.9 1.2 2.9 2.9v12.1c-.1 1.8-1.2 2.9-2.9 2.9zm-23.8 0c-1.7 0-2.9-1.2-2.9-2.9v-12.1c0-1.7 1.2-2.9 2.9-2.9s2.9 1.2 2.9 2.9v12.1c0 1.8-1.1 2.9-2.9 2.9zm-23.1 0c-1.7 0-2.9-1.2-2.9-2.9v-12.1c0-1.7 1.2-2.9 2.9-2.9s2.9 1.2 2.9 2.9v12.1c0 1.8-1.2 2.9-2.9 2.9zm-24.3 0c-1.7 0-2.9-1.2-2.9-2.9v-12.1c0-1.7 1.2-2.9 2.9-2.9s2.9 1.2 2.9 2.9v12.1c0 1.8-1.1 2.9-2.9 2.9z"/><path d="M256 115.5c-1.7 0-2.9-1.2-2.9-2.9V58.8c0-1.7 1.2-2.9 2.9-2.9h57.9c.6 0 .6 0 1.2.6.6 0 .6.6.6 1.2s.6.6.6 1.2v1.2s0 .6-.6.6L304 77.9h45.1c1.7 0 2.9 1.2 2.9 2.9s-1.2 2.9-2.9 2.9H297c-.6 0-.6 0-1.2-.6-.6 0-.6-.6-.6-1.2s-.6-.6-.6-1.2v-1.2s0-.6.6-.6l11.6-17.3h-48.6v50.9c.7 1.8-.5 3-2.2 3z"/></g></symbol><symbol id="maritime-offshore" viewBox="0 0 512 512"><g id="Layer_4"><path d="M445.1 447.4h-28.3c-1.7 0-2.9-1.2-2.9-2.9s1.2-2.9 2.9-2.9h28.3c1.7 0 2.9 1.2 2.9 2.9s-1.2 2.9-2.9 2.9zm-54.9 0H118.4c-1.7 0-2.9-1.2-2.9-2.9s1.2-2.9 2.9-2.9h271.8c1.7 0 2.9 1.2 2.9 2.9s-1.2 2.9-2.9 2.9zm-298.4 0H66.9c-1.7 0-2.9-1.2-2.9-2.9s1.2-2.9 2.9-2.9h24.9c1.7 0 2.9 1.2 2.9 2.9s-1.2 2.9-2.9 2.9z"/><path d="M256 448c-1.7 0-2.9-1.2-2.9-2.9V210.3L75 283.8l76.9 159.6c.6 1.2 0 2.9-1.2 4-1.7.6-2.9 0-4-1.2l-78.1-163v-2.4c0-.6.6-.6.6-1.2l.6-.6 184.5-75.8h2.4L441.8 279c.6 0 .6.6.6.6.6.6.6.6.6 1.2v2.4l-76.9 162.5c-.6 1.2-2.3 2.3-4 1.2-1.7-.6-2.3-2.3-1.2-4L437 283.2l-178.1-72.9v234.8c0 1.7-1.2 2.9-2.9 2.9zm122-149.2h-12.1c-1.7 0-2.9-1.2-2.9-2.9s1.2-2.9 2.9-2.9H378c1.7 0 2.9 1.2 2.9 2.9s-1.1 2.9-2.9 2.9zm-232.5 0h-12.1c-1.7 0-2.9-1.2-2.9-2.9s1.2-2.9 2.9-2.9h12.1c1.7 0 2.9 1.2 2.9 2.9s-1.1 2.9-2.9 2.9z"/><path d="M378 258.3c-1.7 0-2.9-1.2-2.9-2.9V160H136.3v95.4c0 1.7-1.2 2.9-2.9 2.9s-2.9-1.2-2.9-2.9v-98.3c0-1.7 1.2-2.9 2.9-2.9h49.2v-41.1c0-1.7 1.2-2.9 2.9-2.9h142.3c1.7 0 2.9 1.2 2.9 2.9v41.1H378c1.7 0 2.9 1.2 2.9 2.9v98.3c0 1.8-1.1 2.9-2.9 2.9zM188.3 154.2h136.5V116H188.3v38.2zm151.6 39.9c-1.7 0-2.9-1.2-2.9-2.9v-12.1c0-1.7 1.2-2.9 2.9-2.9s2.9 1.2 2.9 2.9v12.1c-.1 1.8-1.2 2.9-2.9 2.9zm-23.8 0c-1.7 0-2.9-1.2-2.9-2.9v-12.1c0-1.7 1.2-2.9 2.9-2.9s2.9 1.2 2.9 2.9v12.1c0 1.8-1.1 2.9-2.9 2.9zm-23.1 0c-1.7 0-2.9-1.2-2.9-2.9v-12.1c0-1.7 1.2-2.9 2.9-2.9s2.9 1.2 2.9 2.9v12.1c0 1.8-1.2 2.9-2.9 2.9zm-24.3 0c-1.7 0-2.9-1.2-2.9-2.9v-12.1c0-1.7 1.2-2.9 2.9-2.9s2.9 1.2 2.9 2.9v12.1c0 1.8-1.1 2.9-2.9 2.9zm-24.8 0c-1.7 0-2.9-1.2-2.9-2.9v-12.1c0-1.7 1.2-2.9 2.9-2.9s2.9 1.2 2.9 2.9v12.1c-.1 1.8-1.2 2.9-2.9 2.9zm-23.8 0c-1.7 0-2.9-1.2-2.9-2.9v-12.1c0-1.7 1.2-2.9 2.9-2.9s2.9 1.2 2.9 2.9v12.1c0 1.8-1.1 2.9-2.9 2.9zm-23.1 0c-1.7 0-2.9-1.2-2.9-2.9v-12.1c0-1.7 1.2-2.9 2.9-2.9s2.9 1.2 2.9 2.9v12.1c0 1.8-1.2 2.9-2.9 2.9zm-24.3 0c-1.7 0-2.9-1.2-2.9-2.9v-12.1c0-1.7 1.2-2.9 2.9-2.9s2.9 1.2 2.9 2.9v12.1c0 1.8-1.1 2.9-2.9 2.9z"/><path d="M256 115.5c-1.7 0-2.9-1.2-2.9-2.9V58.8c0-1.7 1.2-2.9 2.9-2.9h57.9c.6 0 .6 0 1.2.6.6 0 .6.6.6 1.2s.6.6.6 1.2v1.2s0 .6-.6.6L304 77.9h45.1c1.7 0 2.9 1.2 2.9 2.9s-1.2 2.9-2.9 2.9H297c-.6 0-.6 0-1.2-.6-.6 0-.6-.6-.6-1.2s-.6-.6-.6-1.2v-1.2s0-.6.6-.6l11.6-17.3h-48.6v50.9c.7 1.8-.5 3-2.2 3z"/></g></symbol><symbol id="oil-gas-production-white" viewBox="0 0 512 512"><g id="Layer_5"><g id="Layer_4_1_"><path d="M348 446.8c-1.7 0-2.9-1.2-2.9-2.9V336.7h-42.9v107.2c0 1.7-1.2 2.9-2.9 2.9s-2.9-1.2-2.9-2.9V336.7h-93.9v107.2c0 1.7-1.2 2.9-2.9 2.9s-2.9-1.2-2.9-2.9V336.7h-45.8v107.2c0 1.7-1.2 2.9-2.9 2.9s-2.9-1.2-2.9-2.9V336.7h-20.9c-1.7 0-2.9-1.2-2.9-2.9v-36.5c0-1.7 1.2-2.9 2.9-2.9h247.5c1.7 0 2.9 1.2 2.9 2.9v36.5c0 1.7-1.2 2.9-2.9 2.9h-20.9v107.2c.1 1.8-1 2.9-2.8 2.9zM127.2 330.9h241.7v-30.7H127.2v30.7z"/><path d="M262.2 300.2c-1.7 0-2.9-1.2-2.9-2.9-.6-9.9 5.2-22 13.9-31.3 6.4-7 17.4-14.5 34.2-14.5 33 0 48.7 26.7 49.3 45.8 0 1.7-1.2 2.9-2.9 2.9s-2.9-1.2-2.9-2.9c-.6-16.8-14.5-40-43.5-40-14.5 0-24.3 7-30.1 12.8-8.7 9.3-12.2 20.3-12.2 27.2 0 1.7-1.1 2.9-2.9 2.9zm-11 0H136.5c-1.7 0-2.9-1.2-2.9-2.9v-66.7c0-1.7 1.2-2.9 2.9-2.9h114.8c1.7 0 2.9 1.2 2.9 2.9v66.7c-.1 1.7-1.2 2.9-3 2.9zm-111.8-5.8h109v-60.9h-109v60.9z"/><path d="M349.2 281.6s-.6 0 0 0c-1.2 0-1.2 0-1.7-.6-.6 0-.6-.6-.6-.6 0-.6-.6-.6-.6-1.2l-4.6-41.2-20.9 19.7c-1.2 1.2-2.9 1.2-4.1 0s-1.2-2.9 0-4.1l69.6-66.7.6-.6s.6 0 .6-.6h2.4l8.1 5.2.6.6c0 .6.6.6.6 1.2v1.2s0 .6-.6.6l-47.5 84.6c0 .6-.6.6-.6.6-.2 1.9-.2 1.9-1.3 1.9.6 0 0 0 0 0zm-1.8-43.4l3.5 31.3 11.6-20.3-15.1-11zm3.5-4.7l14.5 10.4 10.4-18.5-24.9 8.1zm16.8-20.8L353.8 226l22-7-8.1-6.3zm4.1-3.5l8.1 6.4 4.1-18-12.2 11.6zm18.5-15.7l-1.7 9.3 4.1-7.5-2.4-1.8zm-100.8 66.7c-1.2 0-2.3-1.2-2.9-2.3l-3.5-20.3-30.1 18c-1.2.6-2.9.6-4.1-1.2-.6-1.2-.6-2.9 1.2-4.1l30.1-18-64.3-51-8.7 50.4c0 1.7-1.7 2.9-3.5 2.3-1.7 0-2.9-1.7-2.3-3.5l9.3-54.5v-.6l9.9-57.4v-1.2l9.9-57.4h-11c-1.7 0-2.9-1.2-2.9-2.9V30.1c0-1.7 1.2-2.9 2.9-2.9h20.9V6.9c0-1.7 1.2-2.9 2.9-2.9s2.9 1.2 2.9 2.9v20.3h20.9c1.7 0 2.9 1.2 2.9 2.9v26.7c0 1.7-1.2 2.9-2.9 2.9h-11l10.4 56.8c.6.6.6 1.2.6 1.7v.6l20.9 113c.6.6.6 1.7.6 2.9l4.1 22.6c-.3 1.2-.9 2.3-3.2 2.9.6 0 0 0 0 0zM221.7 179l59.1 47-8.7-47h-50.4zm-1.8-5.7h51l-9.3-48.7-41.7 48.7zm5.8-52.8l-7.5 45.8 39.4-45.8h-31.9zm1.2-5.8h32.5l-23.8-49.3-8.7 49.3zm11.6-55.6L257 97.3 250 59h-11.5zm13.9-5.8H264V32.4h-41.7v20.9h30.1zm4.6-7.6h-27.2c-1.7 0-2.9-1.2-2.9-2.9s1.2-2.9 2.9-2.9H257c1.7 0 2.9 1.2 2.9 2.9s-1.1 2.9-2.9 2.9zm-93.9 227.8c-1.7 0-2.9-1.2-2.9-2.9v-20.9c0-1.7 1.2-2.9 2.9-2.9s2.9 1.2 2.9 2.9v20.9c0 1.8-1.1 2.9-2.9 2.9zm27.8 0c-1.7 0-2.9-1.2-2.9-2.9v-20.9c0-1.7 1.2-2.9 2.9-2.9s2.9 1.2 2.9 2.9v20.9c0 1.8-1.1 2.9-2.9 2.9zm30.2 0c-1.7 0-2.9-1.2-2.9-2.9v-20.9c0-1.7 1.2-2.9 2.9-2.9s2.9 1.2 2.9 2.9v20.9c0 1.8-1.2 2.9-2.9 2.9zM446 448h-28.4c-1.7 0-2.9-1.2-2.9-2.9s1.2-2.9 2.9-2.9H446c1.7 0 2.9 1.2 2.9 2.9s-1.2 2.9-2.9 2.9zm-55.1 0H118.5c-1.7 0-2.9-1.2-2.9-2.9s1.2-2.9 2.9-2.9h272.4c1.7 0 2.9 1.2 2.9 2.9s-1.1 2.9-2.9 2.9zm-299.1 0H66.9c-1.7 0-2.9-1.2-2.9-2.9s1.2-2.9 2.9-2.9h24.9c1.7 0 2.9 1.2 2.9 2.9s-1.1 2.9-2.9 2.9z"/></g></g></symbol><symbol id="oil-gas-production" viewBox="0 0 512 512"><g id="Layer_5"><g id="Layer_4_1_"><path d="M348 446.8c-1.7 0-2.9-1.2-2.9-2.9V336.7h-42.9v107.2c0 1.7-1.2 2.9-2.9 2.9s-2.9-1.2-2.9-2.9V336.7h-93.9v107.2c0 1.7-1.2 2.9-2.9 2.9s-2.9-1.2-2.9-2.9V336.7h-45.8v107.2c0 1.7-1.2 2.9-2.9 2.9s-2.9-1.2-2.9-2.9V336.7h-20.9c-1.7 0-2.9-1.2-2.9-2.9v-36.5c0-1.7 1.2-2.9 2.9-2.9h247.5c1.7 0 2.9 1.2 2.9 2.9v36.5c0 1.7-1.2 2.9-2.9 2.9h-20.9v107.2c.1 1.8-1 2.9-2.8 2.9zM127.2 330.9h241.7v-30.7H127.2v30.7z"/><path d="M262.2 300.2c-1.7 0-2.9-1.2-2.9-2.9-.6-9.9 5.2-22 13.9-31.3 6.4-7 17.4-14.5 34.2-14.5 33 0 48.7 26.7 49.3 45.8 0 1.7-1.2 2.9-2.9 2.9s-2.9-1.2-2.9-2.9c-.6-16.8-14.5-40-43.5-40-14.5 0-24.3 7-30.1 12.8-8.7 9.3-12.2 20.3-12.2 27.2 0 1.7-1.1 2.9-2.9 2.9zm-11 0H136.5c-1.7 0-2.9-1.2-2.9-2.9v-66.7c0-1.7 1.2-2.9 2.9-2.9h114.8c1.7 0 2.9 1.2 2.9 2.9v66.7c-.1 1.7-1.2 2.9-3 2.9zm-111.8-5.8h109v-60.9h-109v60.9z"/><path d="M349.2 281.6s-.6 0 0 0c-1.2 0-1.2 0-1.7-.6-.6 0-.6-.6-.6-.6 0-.6-.6-.6-.6-1.2l-4.6-41.2-20.9 19.7c-1.2 1.2-2.9 1.2-4.1 0s-1.2-2.9 0-4.1l69.6-66.7.6-.6s.6 0 .6-.6h2.4l8.1 5.2.6.6c0 .6.6.6.6 1.2v1.2s0 .6-.6.6l-47.5 84.6c0 .6-.6.6-.6.6-.2 1.9-.2 1.9-1.3 1.9.6 0 0 0 0 0zm-1.8-43.4l3.5 31.3 11.6-20.3-15.1-11zm3.5-4.7l14.5 10.4 10.4-18.5-24.9 8.1zm16.8-20.8L353.8 226l22-7-8.1-6.3zm4.1-3.5l8.1 6.4 4.1-18-12.2 11.6zm18.5-15.7l-1.7 9.3 4.1-7.5-2.4-1.8zm-100.8 66.7c-1.2 0-2.3-1.2-2.9-2.3l-3.5-20.3-30.1 18c-1.2.6-2.9.6-4.1-1.2-.6-1.2-.6-2.9 1.2-4.1l30.1-18-64.3-51-8.7 50.4c0 1.7-1.7 2.9-3.5 2.3-1.7 0-2.9-1.7-2.3-3.5l9.3-54.5v-.6l9.9-57.4v-1.2l9.9-57.4h-11c-1.7 0-2.9-1.2-2.9-2.9V30.1c0-1.7 1.2-2.9 2.9-2.9h20.9V6.9c0-1.7 1.2-2.9 2.9-2.9s2.9 1.2 2.9 2.9v20.3h20.9c1.7 0 2.9 1.2 2.9 2.9v26.7c0 1.7-1.2 2.9-2.9 2.9h-11l10.4 56.8c.6.6.6 1.2.6 1.7v.6l20.9 113c.6.6.6 1.7.6 2.9l4.1 22.6c-.3 1.2-.9 2.3-3.2 2.9.6 0 0 0 0 0zM221.7 179l59.1 47-8.7-47h-50.4zm-1.8-5.7h51l-9.3-48.7-41.7 48.7zm5.8-52.8l-7.5 45.8 39.4-45.8h-31.9zm1.2-5.8h32.5l-23.8-49.3-8.7 49.3zm11.6-55.6L257 97.3 250 59h-11.5zm13.9-5.8H264V32.4h-41.7v20.9h30.1zm4.6-7.6h-27.2c-1.7 0-2.9-1.2-2.9-2.9s1.2-2.9 2.9-2.9H257c1.7 0 2.9 1.2 2.9 2.9s-1.1 2.9-2.9 2.9zm-93.9 227.8c-1.7 0-2.9-1.2-2.9-2.9v-20.9c0-1.7 1.2-2.9 2.9-2.9s2.9 1.2 2.9 2.9v20.9c0 1.8-1.1 2.9-2.9 2.9zm27.8 0c-1.7 0-2.9-1.2-2.9-2.9v-20.9c0-1.7 1.2-2.9 2.9-2.9s2.9 1.2 2.9 2.9v20.9c0 1.8-1.1 2.9-2.9 2.9zm30.2 0c-1.7 0-2.9-1.2-2.9-2.9v-20.9c0-1.7 1.2-2.9 2.9-2.9s2.9 1.2 2.9 2.9v20.9c0 1.8-1.2 2.9-2.9 2.9zM446 448h-28.4c-1.7 0-2.9-1.2-2.9-2.9s1.2-2.9 2.9-2.9H446c1.7 0 2.9 1.2 2.9 2.9s-1.2 2.9-2.9 2.9zm-55.1 0H118.5c-1.7 0-2.9-1.2-2.9-2.9s1.2-2.9 2.9-2.9h272.4c1.7 0 2.9 1.2 2.9 2.9s-1.1 2.9-2.9 2.9zm-299.1 0H66.9c-1.7 0-2.9-1.2-2.9-2.9s1.2-2.9 2.9-2.9h24.9c1.7 0 2.9 1.2 2.9 2.9s-1.1 2.9-2.9 2.9z"/></g></g></symbol><symbol id="other-industries-white" viewBox="0 0 512 512"><g id="Layer_6"><path d="M445.1 448h-28.3c-1.7 0-2.9-1.2-2.9-2.9s1.2-2.9 2.9-2.9h28.3c1.7 0 2.9 1.2 2.9 2.9s-1.2 2.9-2.9 2.9zm-55.4 0H118.3c-1.7 0-2.9-1.2-2.9-2.9s1.2-2.9 2.9-2.9h271.4c1.7 0 2.9 1.2 2.9 2.9s-1.2 2.9-2.9 2.9zm-298 0H66.9c-1.7 0-2.9-1.2-2.9-2.9s1.2-2.9 2.9-2.9h24.8c1.7 0 2.9 1.2 2.9 2.9s-1.2 2.9-2.9 2.9zm165.2-91.2c-67 0-121.3-54.3-121.3-120.7s54.3-120.7 120.7-120.7c67 0 121.3 54.3 121.3 120.7s-54.3 120.7-120.7 120.7zm-.6-235.6c-63.5 0-114.9 51.4-114.9 114.9S193.3 351 256.9 351s114.9-51.4 114.9-114.9-52-114.9-115.5-114.9z"/><path d="M366.6 245.9c-8.1 0-20.8-.6-26-5.8l-3.5-3.5c-5.2-5.8-7.5-8.1-12.7-6.4-11.5 4-20.8 4.6-28.3 2.3-5.8-1.7-11.5-8.7-16.7-15.6-3.5-4-6.9-8.7-9.2-10.4-5.2-4-26.6-3.5-39.3-2.3-.6 0-1.7 0-2.3-.6-.6-.6-1.2-1.2-1.2-1.7-.6-10.4 1.7-17.9 6.4-23.7 8.1-8.1 20.8-7.5 26.6-7.5h2.3c2.3 0 4-2.9 6.4-6.4 1.2-2.3 2.9-4.6 4.6-6.4 2.9-2.9 11-2.3 21.9-1.2 3.5.6 7.5.6 8.7.6 2.3-.6 9.8-9.2 15.6-19.1 1.2-1.2 2.9-1.7 4-.6 1.2.6 1.7 2.9.6 4-4 6.4-13.9 20.8-20.2 21.4-2.3 0-5.8 0-10.4-.6-5.2-.6-15.6-1.7-17.9 0-1.2 1.2-2.3 2.9-3.5 4.6-2.3 4-5.2 8.7-11 9.2h-2.3c-5.8 0-16.2-.6-21.9 5.8-3.5 3.5-5.2 9.2-5.2 16.2 9.2-.6 32.9-1.7 39.8 3.5 3.5 2.3 6.9 6.9 10.4 11.5 4.6 5.8 9.8 12.7 13.9 13.9 6.4 2.3 14.4 1.2 24.8-2.3 9.2-2.9 13.9 2.3 19.1 8.1 1.2 1.2 1.7 2.3 2.9 3.5 4 4 19.6 4.6 28.9 4 1.7 0 2.9 1.2 2.9 2.9s-1.2 2.9-2.9 2.9c1.6-.3-1.3-.3-5.3-.3zM161 236.1h-22.5c-1.7 0-2.9-1.2-2.9-2.9s1.2-2.9 2.9-2.9h19.6c0-10.4 2.9-18.5 8.1-24.3 5.2-5.2 12.1-6.9 15.6-6.9 0-6.9-1.7-12.7-5.2-16.2-7.5-7.5-20.8-5.2-20.8-5.2-1.7 0-2.9-1.2-3.5-2.3 0-1.7 1.2-2.9 2.3-3.5.6 0 16.2-2.3 26 6.9 5.8 5.2 8.1 13.3 6.9 23.1 0 1.7-1.7 2.9-2.9 2.9 0 0-8.1-.6-14.4 5.2-4.6 4.6-6.9 12.1-6.4 22.5 0 .6 0 1.7-.6 2.3-.5.7-1.6 1.3-2.2 1.3zm12.7 87.2c-1.2 0-2.3-.6-2.3-1.7-.6-1.2 0-2.9 1.2-4 3.5-1.7 9.8-8.7 9.8-11v-23.7c0-.6.6-1.7 1.2-2.3 6.9-5.8 11-14.4 8.7-20.2-1.7-5.2-8.1-8.7-17.9-9.2-26-1.7-30 11.5-30 11.5-.6 1.7-1.7 2.3-3.5 2.3-1.7-.6-2.3-1.7-2.3-3.5 0-.6 5.2-17.9 35.8-16.2 16.2 1.2 21.4 7.5 23.1 13.3 2.3 8.1-1.2 18.5-9.8 25.4v23.1c0 5.8-9.8 14.4-13.3 15.6.5.6-.1.6-.7.6zm99.3 8.1c-5.2 0-10.4-.6-12.7-1.2-1.7 0-2.3-1.7-2.3-2.9 0 0 1.2-27.7.6-42.7 0-2.3-1.2-4-2.3-5.8-5.2-4.6-18.5-3.5-23.1-2.9H232c-1.7 0-2.9-.6-4-1.2-2.9-2.9-2.3-8.1-1.7-14.4 0-3.5.6-6.9 0-9.2-.6-7.5 4-10.4 7.5-13.3 1.7-1.2 3.5-2.3 4.6-3.5 5.2-5.2 16.7-4.6 27.1-4h6.9c8.7 0 20.2 12.7 30 25.4l1.2 1.2c4 4.6 3.5 19.6 1.2 41.6 0 2.3-.6 4-.6 4.6-.6 8.7-19.1 24.3-22.5 26-2.3 1.7-5.2 2.3-8.7 2.3zm-9.2-6.4c6.4.6 12.7 1.2 14.4 0 4.6-2.3 19.1-16.2 19.6-21.4 0-1.2 0-2.9.6-5.2.6-8.1 3.5-33.5 0-37.5l-1.2-1.2c-12.1-15.6-20.8-23.1-26-23.1h-6.9c-7.5-.6-19.6-1.2-22.5 2.3-1.7 1.7-3.5 3.5-5.2 4.6-3.5 2.9-5.8 4-5.2 7.5.6 2.9 0 6.4 0 10.4 0 2.9-.6 8.1 0 9.8h.6c5.8-.6 20.2-2.3 27.7 4 2.9 2.3 4.6 5.8 4.6 9.8.7 11.7.1 32.5-.5 40zm-8.7 102.2c-1.7 0-2.9-1.2-2.9-2.9v-46.2c0-1.7 1.2-2.9 2.9-2.9s2.9 1.2 2.9 2.9v46.2c0 1.8-1.1 2.9-2.9 2.9zm18.5-28.9c-1.7 0-2.9-1.2-2.9-2.9v-23.1c0-1.7 1.2-2.9 2.9-2.9s2.9 1.2 2.9 2.9v23.1c0 1.8-1.2 2.9-2.9 2.9zm-36.9 0c-1.7 0-2.9-1.2-2.9-2.9v-23.1c0-1.7 1.2-2.9 2.9-2.9s2.9 1.2 2.9 2.9v23.1c-.1 1.8-1.2 2.9-2.9 2.9z"/></g></symbol><symbol id="other-industries" viewBox="0 0 512 512"><g id="Layer_6"><path d="M445.1 448h-28.3c-1.7 0-2.9-1.2-2.9-2.9s1.2-2.9 2.9-2.9h28.3c1.7 0 2.9 1.2 2.9 2.9s-1.2 2.9-2.9 2.9zm-55.4 0H118.3c-1.7 0-2.9-1.2-2.9-2.9s1.2-2.9 2.9-2.9h271.4c1.7 0 2.9 1.2 2.9 2.9s-1.2 2.9-2.9 2.9zm-298 0H66.9c-1.7 0-2.9-1.2-2.9-2.9s1.2-2.9 2.9-2.9h24.8c1.7 0 2.9 1.2 2.9 2.9s-1.2 2.9-2.9 2.9zm165.2-91.2c-67 0-121.3-54.3-121.3-120.7s54.3-120.7 120.7-120.7c67 0 121.3 54.3 121.3 120.7s-54.3 120.7-120.7 120.7zm-.6-235.6c-63.5 0-114.9 51.4-114.9 114.9S193.3 351 256.9 351s114.9-51.4 114.9-114.9-52-114.9-115.5-114.9z"/><path d="M366.6 245.9c-8.1 0-20.8-.6-26-5.8l-3.5-3.5c-5.2-5.8-7.5-8.1-12.7-6.4-11.5 4-20.8 4.6-28.3 2.3-5.8-1.7-11.5-8.7-16.7-15.6-3.5-4-6.9-8.7-9.2-10.4-5.2-4-26.6-3.5-39.3-2.3-.6 0-1.7 0-2.3-.6-.6-.6-1.2-1.2-1.2-1.7-.6-10.4 1.7-17.9 6.4-23.7 8.1-8.1 20.8-7.5 26.6-7.5h2.3c2.3 0 4-2.9 6.4-6.4 1.2-2.3 2.9-4.6 4.6-6.4 2.9-2.9 11-2.3 21.9-1.2 3.5.6 7.5.6 8.7.6 2.3-.6 9.8-9.2 15.6-19.1 1.2-1.2 2.9-1.7 4-.6 1.2.6 1.7 2.9.6 4-4 6.4-13.9 20.8-20.2 21.4-2.3 0-5.8 0-10.4-.6-5.2-.6-15.6-1.7-17.9 0-1.2 1.2-2.3 2.9-3.5 4.6-2.3 4-5.2 8.7-11 9.2h-2.3c-5.8 0-16.2-.6-21.9 5.8-3.5 3.5-5.2 9.2-5.2 16.2 9.2-.6 32.9-1.7 39.8 3.5 3.5 2.3 6.9 6.9 10.4 11.5 4.6 5.8 9.8 12.7 13.9 13.9 6.4 2.3 14.4 1.2 24.8-2.3 9.2-2.9 13.9 2.3 19.1 8.1 1.2 1.2 1.7 2.3 2.9 3.5 4 4 19.6 4.6 28.9 4 1.7 0 2.9 1.2 2.9 2.9s-1.2 2.9-2.9 2.9c1.6-.3-1.3-.3-5.3-.3zM161 236.1h-22.5c-1.7 0-2.9-1.2-2.9-2.9s1.2-2.9 2.9-2.9h19.6c0-10.4 2.9-18.5 8.1-24.3 5.2-5.2 12.1-6.9 15.6-6.9 0-6.9-1.7-12.7-5.2-16.2-7.5-7.5-20.8-5.2-20.8-5.2-1.7 0-2.9-1.2-3.5-2.3 0-1.7 1.2-2.9 2.3-3.5.6 0 16.2-2.3 26 6.9 5.8 5.2 8.1 13.3 6.9 23.1 0 1.7-1.7 2.9-2.9 2.9 0 0-8.1-.6-14.4 5.2-4.6 4.6-6.9 12.1-6.4 22.5 0 .6 0 1.7-.6 2.3-.5.7-1.6 1.3-2.2 1.3zm12.7 87.2c-1.2 0-2.3-.6-2.3-1.7-.6-1.2 0-2.9 1.2-4 3.5-1.7 9.8-8.7 9.8-11v-23.7c0-.6.6-1.7 1.2-2.3 6.9-5.8 11-14.4 8.7-20.2-1.7-5.2-8.1-8.7-17.9-9.2-26-1.7-30 11.5-30 11.5-.6 1.7-1.7 2.3-3.5 2.3-1.7-.6-2.3-1.7-2.3-3.5 0-.6 5.2-17.9 35.8-16.2 16.2 1.2 21.4 7.5 23.1 13.3 2.3 8.1-1.2 18.5-9.8 25.4v23.1c0 5.8-9.8 14.4-13.3 15.6.5.6-.1.6-.7.6zm99.3 8.1c-5.2 0-10.4-.6-12.7-1.2-1.7 0-2.3-1.7-2.3-2.9 0 0 1.2-27.7.6-42.7 0-2.3-1.2-4-2.3-5.8-5.2-4.6-18.5-3.5-23.1-2.9H232c-1.7 0-2.9-.6-4-1.2-2.9-2.9-2.3-8.1-1.7-14.4 0-3.5.6-6.9 0-9.2-.6-7.5 4-10.4 7.5-13.3 1.7-1.2 3.5-2.3 4.6-3.5 5.2-5.2 16.7-4.6 27.1-4h6.9c8.7 0 20.2 12.7 30 25.4l1.2 1.2c4 4.6 3.5 19.6 1.2 41.6 0 2.3-.6 4-.6 4.6-.6 8.7-19.1 24.3-22.5 26-2.3 1.7-5.2 2.3-8.7 2.3zm-9.2-6.4c6.4.6 12.7 1.2 14.4 0 4.6-2.3 19.1-16.2 19.6-21.4 0-1.2 0-2.9.6-5.2.6-8.1 3.5-33.5 0-37.5l-1.2-1.2c-12.1-15.6-20.8-23.1-26-23.1h-6.9c-7.5-.6-19.6-1.2-22.5 2.3-1.7 1.7-3.5 3.5-5.2 4.6-3.5 2.9-5.8 4-5.2 7.5.6 2.9 0 6.4 0 10.4 0 2.9-.6 8.1 0 9.8h.6c5.8-.6 20.2-2.3 27.7 4 2.9 2.3 4.6 5.8 4.6 9.8.7 11.7.1 32.5-.5 40zm-8.7 102.2c-1.7 0-2.9-1.2-2.9-2.9v-46.2c0-1.7 1.2-2.9 2.9-2.9s2.9 1.2 2.9 2.9v46.2c0 1.8-1.1 2.9-2.9 2.9zm18.5-28.9c-1.7 0-2.9-1.2-2.9-2.9v-23.1c0-1.7 1.2-2.9 2.9-2.9s2.9 1.2 2.9 2.9v23.1c0 1.8-1.2 2.9-2.9 2.9zm-36.9 0c-1.7 0-2.9-1.2-2.9-2.9v-23.1c0-1.7 1.2-2.9 2.9-2.9s2.9 1.2 2.9 2.9v23.1c-.1 1.8-1.2 2.9-2.9 2.9z"/></g></symbol><symbol id="renewables-white" viewBox="0 0 512 512"><g id="Layer_7_1_"><g id="Layer_5_2_"><path d="M445.1 448h-28.3c-1.7 0-2.9-1.2-2.9-2.9s1.2-2.9 2.9-2.9h28.3c1.7 0 2.9 1.2 2.9 2.9s-1.2 2.9-2.9 2.9zm-54.9 0H118.4c-1.7 0-2.9-1.2-2.9-2.9s1.2-2.9 2.9-2.9h271.8c1.7 0 2.9 1.2 2.9 2.9s-1.2 2.9-2.9 2.9zm-298.4 0H66.9c-1.7 0-2.9-1.2-2.9-2.9s1.2-2.9 2.9-2.9h24.9c1.7 0 2.9 1.2 2.9 2.9s-1.2 2.9-2.9 2.9z"/><path d="M236.3 448c-1.7 0-2.9-1.2-2.9-2.9l8.7-196.6c-6.4-4.6-11-12.1-11-20.8 0-13.9 11-24.9 24.9-24.9 13.9 0 24.9 11 24.9 24.9 0 13.9-11 24.9-24.9 24.9-2.9 0-5.8-.6-8.1-1.2l-8.7 193.7c0 1.7-1.1 2.9-2.9 2.9zM256 208.6c-10.4 0-19.1 8.7-19.1 19.1s8.7 19.1 19.1 19.1c10.4 0 19.1-8.7 19.1-19.1s-8.7-19.1-19.1-19.1zm16.8 238.8c-1.7 0-2.9-1.2-2.9-2.9l-5.8-189.7c0-1.7 1.2-2.9 2.9-2.9 1.2 0 2.9 1.2 2.9 2.9l5.8 189.7c0 1.8-1.2 2.9-2.9 2.9zM256 234c-4 0-6.9-2.9-6.9-6.9s2.9-6.9 6.9-6.9c2.3 0 4.6 1.2 5.8 2.9 1.2 1.2 1.2 2.9 1.2 4-.1 4-3.5 6.9-7 6.9zm0-8.1c-.6 0-1.2.6-1.2 1.2 0 1.2 2.3 1.2 2.3 0v-1.2c.1.6-.5 0-1.1 0z"/><path d="M274.5 213.2l-5.2-1.7 46.3-141.7 5.2 1.7-46.3 141.7zm-25.4-4l-5.2-2.3 9.8-21.4-16.2-23.1 59-100 5.2 2.9-57.3 97.2 15.6 22.6-10.9 24.1zm-39.9 68.2L93 276.8V271l112.8.6 12.1-24.9 26.6-2.9.6 5.8-23.1 2.9-12.8 24.9zM88.9 256.6l-1.2-5.8 145.7-30.7 1.2 5.8-145.7 30.7zm268.9 107l-98.3-112.2 4.6-4 98.3 112.2-4.6 4zm15.6-14.5L319 250.8l-27.2 1.7-15.6-21.4 4.6-3.5 13.3 19.1 27.2-1.7L378 346.8l-4.6 2.3z"/><path d="M202.2 390.2H201c-62.5-20.8-105.3-71.7-114.5-136.5 0-1.7 1.2-2.9 2.3-3.5 1.7 0 2.9 1.2 3.5 2.3 8.7 62.5 50.3 111.6 111 131.9 1.7.6 2.3 2.3 1.7 3.5-.5 1.7-1.6 2.3-2.8 2.3zm157.3-26.1c-.6 0-1.7-.6-2.3-1.2-1.2-1.2-.6-2.9.6-4 41.1-32.4 64.8-80.4 64.8-131.3 0-11-1.2-22-3.5-33-.6-1.7.6-2.9 2.3-3.5 1.7-.6 2.9.6 3.5 2.3 2.3 11.6 3.5 22.6 3.5 34.1 0 53.2-24.3 102.4-67.1 135.9-.6.7-1.2.7-1.8.7zm-144-13.8h-1.2c-37-11.6-71.1-44-79.2-75.2-.6-1.7.6-2.9 2.3-3.5 1.7-.6 2.9.6 3.5 2.3 8.1 29.5 40.5 60.1 75.8 71.7 1.7.6 2.3 2.3 1.7 3.5-.6.6-1.7 1.2-2.9 1.2zm138.2-39.4c-.6 0-1.2 0-1.7-.6-1.2-1.2-1.2-2.9 0-4 17.3-19.7 28.3-48.6 28.9-76.9-.6-.6-.6-1.2-.6-1.7 0-9.3-.6-17.3-2.3-24.3-.6-1.7.6-2.9 2.3-3.5 1.7-.6 2.9.6 3.5 2.3 1.7 6.9 2.3 14.5 2.3 23.1.6.6.6 1.2.6 1.7 0 30.7-11.6 61.3-30.1 82.7-1.1.7-2.3 1.2-2.9 1.2zM172.1 135.1c-.6 0-1.7-.6-2.3-1.2-1.2-1.2-1.2-2.9 0-4 24.3-21.4 53.8-32.4 85.6-32.4 8.7 0 17.9 1.2 20.8 1.7 1.7.6 2.3 1.7 2.3 3.5-.6 1.7-1.7 2.3-3.5 2.3-2.9-.6-11-1.7-19.7-1.7-30.1 0-58.4 11-82.1 31.2.1.6-.5.6-1.1.6zm-27.7-31.2c-.6 0-1.7-.6-2.3-1.2-1.2-1.2-1.2-2.9 0-4 30.7-27.8 71.1-42.8 113.3-42.8 22.6 0 43.4 4 63.6 12.1 1.7.6 2.3 2.3 1.7 4-.6 1.7-2.3 2.3-4 1.7-19.7-8.1-39.3-12.1-61.3-12.1-41.1 0-79.8 14.5-109.9 41.6 0 .7-.5.7-1.1.7z"/></g></g></symbol><symbol id="renewables" viewBox="0 0 512 512"><g id="Layer_7_1_"><g id="Layer_5_2_"><path d="M445.1 448h-28.3c-1.7 0-2.9-1.2-2.9-2.9s1.2-2.9 2.9-2.9h28.3c1.7 0 2.9 1.2 2.9 2.9s-1.2 2.9-2.9 2.9zm-54.9 0H118.4c-1.7 0-2.9-1.2-2.9-2.9s1.2-2.9 2.9-2.9h271.8c1.7 0 2.9 1.2 2.9 2.9s-1.2 2.9-2.9 2.9zm-298.4 0H66.9c-1.7 0-2.9-1.2-2.9-2.9s1.2-2.9 2.9-2.9h24.9c1.7 0 2.9 1.2 2.9 2.9s-1.2 2.9-2.9 2.9z"/><path d="M236.3 448c-1.7 0-2.9-1.2-2.9-2.9l8.7-196.6c-6.4-4.6-11-12.1-11-20.8 0-13.9 11-24.9 24.9-24.9 13.9 0 24.9 11 24.9 24.9 0 13.9-11 24.9-24.9 24.9-2.9 0-5.8-.6-8.1-1.2l-8.7 193.7c0 1.7-1.1 2.9-2.9 2.9zM256 208.6c-10.4 0-19.1 8.7-19.1 19.1s8.7 19.1 19.1 19.1c10.4 0 19.1-8.7 19.1-19.1s-8.7-19.1-19.1-19.1zm16.8 238.8c-1.7 0-2.9-1.2-2.9-2.9l-5.8-189.7c0-1.7 1.2-2.9 2.9-2.9 1.2 0 2.9 1.2 2.9 2.9l5.8 189.7c0 1.8-1.2 2.9-2.9 2.9zM256 234c-4 0-6.9-2.9-6.9-6.9s2.9-6.9 6.9-6.9c2.3 0 4.6 1.2 5.8 2.9 1.2 1.2 1.2 2.9 1.2 4-.1 4-3.5 6.9-7 6.9zm0-8.1c-.6 0-1.2.6-1.2 1.2 0 1.2 2.3 1.2 2.3 0v-1.2c.1.6-.5 0-1.1 0z"/><path d="M274.5 213.2l-5.2-1.7 46.3-141.7 5.2 1.7-46.3 141.7zm-25.4-4l-5.2-2.3 9.8-21.4-16.2-23.1 59-100 5.2 2.9-57.3 97.2 15.6 22.6-10.9 24.1zm-39.9 68.2L93 276.8V271l112.8.6 12.1-24.9 26.6-2.9.6 5.8-23.1 2.9-12.8 24.9zM88.9 256.6l-1.2-5.8 145.7-30.7 1.2 5.8-145.7 30.7zm268.9 107l-98.3-112.2 4.6-4 98.3 112.2-4.6 4zm15.6-14.5L319 250.8l-27.2 1.7-15.6-21.4 4.6-3.5 13.3 19.1 27.2-1.7L378 346.8l-4.6 2.3z"/><path d="M202.2 390.2H201c-62.5-20.8-105.3-71.7-114.5-136.5 0-1.7 1.2-2.9 2.3-3.5 1.7 0 2.9 1.2 3.5 2.3 8.7 62.5 50.3 111.6 111 131.9 1.7.6 2.3 2.3 1.7 3.5-.5 1.7-1.6 2.3-2.8 2.3zm157.3-26.1c-.6 0-1.7-.6-2.3-1.2-1.2-1.2-.6-2.9.6-4 41.1-32.4 64.8-80.4 64.8-131.3 0-11-1.2-22-3.5-33-.6-1.7.6-2.9 2.3-3.5 1.7-.6 2.9.6 3.5 2.3 2.3 11.6 3.5 22.6 3.5 34.1 0 53.2-24.3 102.4-67.1 135.9-.6.7-1.2.7-1.8.7zm-144-13.8h-1.2c-37-11.6-71.1-44-79.2-75.2-.6-1.7.6-2.9 2.3-3.5 1.7-.6 2.9.6 3.5 2.3 8.1 29.5 40.5 60.1 75.8 71.7 1.7.6 2.3 2.3 1.7 3.5-.6.6-1.7 1.2-2.9 1.2zm138.2-39.4c-.6 0-1.2 0-1.7-.6-1.2-1.2-1.2-2.9 0-4 17.3-19.7 28.3-48.6 28.9-76.9-.6-.6-.6-1.2-.6-1.7 0-9.3-.6-17.3-2.3-24.3-.6-1.7.6-2.9 2.3-3.5 1.7-.6 2.9.6 3.5 2.3 1.7 6.9 2.3 14.5 2.3 23.1.6.6.6 1.2.6 1.7 0 30.7-11.6 61.3-30.1 82.7-1.1.7-2.3 1.2-2.9 1.2zM172.1 135.1c-.6 0-1.7-.6-2.3-1.2-1.2-1.2-1.2-2.9 0-4 24.3-21.4 53.8-32.4 85.6-32.4 8.7 0 17.9 1.2 20.8 1.7 1.7.6 2.3 1.7 2.3 3.5-.6 1.7-1.7 2.3-3.5 2.3-2.9-.6-11-1.7-19.7-1.7-30.1 0-58.4 11-82.1 31.2.1.6-.5.6-1.1.6zm-27.7-31.2c-.6 0-1.7-.6-2.3-1.2-1.2-1.2-1.2-2.9 0-4 30.7-27.8 71.1-42.8 113.3-42.8 22.6 0 43.4 4 63.6 12.1 1.7.6 2.3 2.3 1.7 4-.6 1.7-2.3 2.3-4 1.7-19.7-8.1-39.3-12.1-61.3-12.1-41.1 0-79.8 14.5-109.9 41.6 0 .7-.5.7-1.1.7z"/></g></g></symbol><symbol id="subsea-white" viewBox="0 0 512 512"><g id="Layer_8"><path d="M445.1 448h-28.3c-1.7 0-2.9-1.2-2.9-2.9s1.2-2.9 2.9-2.9h28.3c1.7 0 2.9 1.2 2.9 2.9s-1.2 2.9-2.9 2.9zm-55.4 0H118.3c-1.7 0-2.9-1.2-2.9-2.9s1.2-2.9 2.9-2.9h271.4c1.7 0 2.9 1.2 2.9 2.9s-1.2 2.9-2.9 2.9zm-298 0H66.9c-1.7 0-2.9-1.2-2.9-2.9s1.2-2.9 2.9-2.9h24.8c1.7 0 2.9 1.2 2.9 2.9s-1.2 2.9-2.9 2.9zm299.7-173.8h-9.8l-17.9-29.4c-7.5 2.9-13.9 6.9-20.8 10.4-13.3 7.5-25.4 13.9-42.7 13.9H155.8c-12.7 0-29.4-4-49.7-11-17.9-6.9-38.7-17.9-38.7-30 0-15.6 20.2-22.5 41.6-30.6l1.7-.6c18.5-6.4 34.1-10.4 56-10.4h3.5l9.8-42.7h22l.6 2.3c0 .6 8.1 31.2 28.9 40.4h72.2c23.7 0 34.6 6.9 46.2 13.9 4 2.3 8.1 5.2 12.7 6.9l19.1-31.2h9.8c5.2 0 14.4 0 14.4 9.8v30c2.3 0 4.6 0 6.9.6 4 0 7.5.6 11 .6v-27.7h5.8v28.3c9.2 1.2 15 2.9 15 8.1 0 5.8-5.8 8.1-15 9.2v8.7h-5.8v-8.1c-3.5 0-6.9.6-11 .6-2.3 0-4.6 0-6.9.6v27.7c-.1 9.7-9.3 9.7-14.5 9.7zm-6.3-5.8h6.4c7.5 0 8.7-.6 8.7-4v-27.7c-8.7.6-16.7 1.7-24.3 4-2.3.6-4.6 1.2-6.9 2.3l16.1 25.4zm-218.3-76.2c-20.8 0-36.4 4-53.7 10.4l-1.7.6c-19.1 6.9-37.5 13.3-37.5 24.8 0 6.4 13.3 16.2 35.2 24.3 19.1 6.9 35.8 11 47.4 11h144.4c15.6 0 26.6-6.4 39.8-13.3 9.2-5.2 20.2-11 34.1-15 11-3.5 25.4-4 37.5-4.6 9.8-.6 26.6-1.2 26.6-4.6-1.2-2.3-16.2-3.5-26-4-13.3-.6-28.3-1.2-39.8-4.6-11-3.5-18.5-8.1-26-12.1-11-6.9-21.4-13.3-43.3-13.3-19.6 0-120.7.6-133.4.6h-3.6zm201.5 17.3c1.7.6 4 1.7 6.4 2.3 7.5 2.3 16.7 3.5 26 4v-30c0-3.5-1.2-4-8.7-4h-6.4l-17.3 27.7zm-183.6-60l-8.7 37h44.5c-14.4-11-20.8-30-23.1-37h-12.7zm70.4 247.1c-41.6 0-64.7-39.8-65.3-41.6-.6-1.2-.6-2.9 1.2-4 1.2-.6 2.9-.6 4 1.2 0 .6 21.9 38.1 60.6 38.1 38.1 0 62.4-38.1 62.9-38.7.6-1.2 2.9-1.7 4-1.2 1.2.6 1.7 2.9 1.2 4-2.2 2.9-27 42.2-68.6 42.2zm0-34.1c-31.2 0-47.9-29.4-48.5-31.2-.6-1.2 0-2.9 1.2-4 1.2-.6 2.9 0 4 1.2 0 0 15.6 27.7 43.9 27.7 27.7 0 45-27.7 45.6-28.3.6-1.2 2.9-1.7 4-1.2 1.2.6 1.7 2.9 1.2 4-1.7 2.4-20.2 31.8-51.4 31.8zm.6-34.6c-20.2 0-31.2-19.1-31.2-20.2-.6-1.2-.6-2.9 1.2-4 1.2-.6 2.9-.6 4 1.2 0 0 9.8 16.7 26.6 16.7s27.7-16.7 27.7-17.3c.6-1.2 2.9-1.7 4-1.2 1.2.6 1.7 2.9 1.2 4-1.7 1.7-13.9 20.8-33.5 20.8z" id="Layer_2_1_"/></g></symbol><symbol id="subsea" viewBox="0 0 512 512"><g id="Layer_8"><path d="M445.1 448h-28.3c-1.7 0-2.9-1.2-2.9-2.9s1.2-2.9 2.9-2.9h28.3c1.7 0 2.9 1.2 2.9 2.9s-1.2 2.9-2.9 2.9zm-55.4 0H118.3c-1.7 0-2.9-1.2-2.9-2.9s1.2-2.9 2.9-2.9h271.4c1.7 0 2.9 1.2 2.9 2.9s-1.2 2.9-2.9 2.9zm-298 0H66.9c-1.7 0-2.9-1.2-2.9-2.9s1.2-2.9 2.9-2.9h24.8c1.7 0 2.9 1.2 2.9 2.9s-1.2 2.9-2.9 2.9zm299.7-173.8h-9.8l-17.9-29.4c-7.5 2.9-13.9 6.9-20.8 10.4-13.3 7.5-25.4 13.9-42.7 13.9H155.8c-12.7 0-29.4-4-49.7-11-17.9-6.9-38.7-17.9-38.7-30 0-15.6 20.2-22.5 41.6-30.6l1.7-.6c18.5-6.4 34.1-10.4 56-10.4h3.5l9.8-42.7h22l.6 2.3c0 .6 8.1 31.2 28.9 40.4h72.2c23.7 0 34.6 6.9 46.2 13.9 4 2.3 8.1 5.2 12.7 6.9l19.1-31.2h9.8c5.2 0 14.4 0 14.4 9.8v30c2.3 0 4.6 0 6.9.6 4 0 7.5.6 11 .6v-27.7h5.8v28.3c9.2 1.2 15 2.9 15 8.1 0 5.8-5.8 8.1-15 9.2v8.7h-5.8v-8.1c-3.5 0-6.9.6-11 .6-2.3 0-4.6 0-6.9.6v27.7c-.1 9.7-9.3 9.7-14.5 9.7zm-6.3-5.8h6.4c7.5 0 8.7-.6 8.7-4v-27.7c-8.7.6-16.7 1.7-24.3 4-2.3.6-4.6 1.2-6.9 2.3l16.1 25.4zm-218.3-76.2c-20.8 0-36.4 4-53.7 10.4l-1.7.6c-19.1 6.9-37.5 13.3-37.5 24.8 0 6.4 13.3 16.2 35.2 24.3 19.1 6.9 35.8 11 47.4 11h144.4c15.6 0 26.6-6.4 39.8-13.3 9.2-5.2 20.2-11 34.1-15 11-3.5 25.4-4 37.5-4.6 9.8-.6 26.6-1.2 26.6-4.6-1.2-2.3-16.2-3.5-26-4-13.3-.6-28.3-1.2-39.8-4.6-11-3.5-18.5-8.1-26-12.1-11-6.9-21.4-13.3-43.3-13.3-19.6 0-120.7.6-133.4.6h-3.6zm201.5 17.3c1.7.6 4 1.7 6.4 2.3 7.5 2.3 16.7 3.5 26 4v-30c0-3.5-1.2-4-8.7-4h-6.4l-17.3 27.7zm-183.6-60l-8.7 37h44.5c-14.4-11-20.8-30-23.1-37h-12.7zm70.4 247.1c-41.6 0-64.7-39.8-65.3-41.6-.6-1.2-.6-2.9 1.2-4 1.2-.6 2.9-.6 4 1.2 0 .6 21.9 38.1 60.6 38.1 38.1 0 62.4-38.1 62.9-38.7.6-1.2 2.9-1.7 4-1.2 1.2.6 1.7 2.9 1.2 4-2.2 2.9-27 42.2-68.6 42.2zm0-34.1c-31.2 0-47.9-29.4-48.5-31.2-.6-1.2 0-2.9 1.2-4 1.2-.6 2.9 0 4 1.2 0 0 15.6 27.7 43.9 27.7 27.7 0 45-27.7 45.6-28.3.6-1.2 2.9-1.7 4-1.2 1.2.6 1.7 2.9 1.2 4-1.7 2.4-20.2 31.8-51.4 31.8zm.6-34.6c-20.2 0-31.2-19.1-31.2-20.2-.6-1.2-.6-2.9 1.2-4 1.2-.6 2.9-.6 4 1.2 0 0 9.8 16.7 26.6 16.7s27.7-16.7 27.7-17.3c.6-1.2 2.9-1.7 4-1.2 1.2.6 1.7 2.9 1.2 4-1.7 1.7-13.9 20.8-33.5 20.8z" id="Layer_2_1_"/></g></symbol><symbol id="utilities-white" viewBox="0 0 512 512"><g id="Layer_10"><g id="Layer_6_2_"><path d="M445.1 448h-28.3c-1.7 0-2.9-1.2-2.9-2.9s1.2-2.9 2.9-2.9h28.3c1.7 0 2.9 1.2 2.9 2.9s-1.2 2.9-2.9 2.9zm-55.4 0H118.3c-1.7 0-2.9-1.2-2.9-2.9s1.2-2.9 2.9-2.9h271.4c1.7 0 2.9 1.2 2.9 2.9s-1.2 2.9-2.9 2.9zm-298 0H66.9c-1.7 0-2.9-1.2-2.9-2.9s1.2-2.9 2.9-2.9h24.8c1.7 0 2.9 1.2 2.9 2.9s-1.2 2.9-2.9 2.9z"/><path d="M351.6 448c-1.2 0-2.3-.6-2.9-1.7L299 328.5l-39.3 39.3 73.9 73.3c1.2 1.2 1.2 2.9 0 4-1.2 1.2-2.9 1.2-4 0l-73.9-73.9-73.9 73.9c-1.2 1.2-2.9 1.2-4 0s-1.2-2.9 0-4l73.9-73.3-39.3-39.3-49.1 116.1c-.6 1.7-2.3 2.3-4 1.7-1.7-.6-2.3-2.3-1.7-4l50.2-119c0-1.2 0-1.7.6-2.9.6-.6 1.7-1.2 2.3-.6h1.2c.6.6 1.7 1.2 1.7 1.7l41.6 41 41.6-41c0-.6.6-1.7 1.7-1.7h1.2c.6 0 1.7 0 2.3.6s1.2 1.7.6 2.9L353.3 444c.6 1.7 0 2.8-1.7 4 .5 0 .5 0 0 0zm-186-211.3c-1.7 0-2.9-1.2-2.9-2.9V224h-20.2v9.8c0 1.7-1.2 2.9-2.9 2.9s-2.9-1.2-2.9-2.9V224h-3.5c-.6 0-.6-.6-1.2-.6 0 0-.6-.6-.6-1.2v-2.4c0-.6.6-.6.6-1.2l75.6-75.6c1.7-11 16.2-94.1 47.4-94.1s46.2 82 47.9 93.5l76.2 76.2s.6.6.6 1.2v2.4c0 .6-.6.6-.6 1.2 0 0-.6.6-1.2.6H168.5v9.8c0 1.7-1.1 2.9-2.9 2.9zm0-18.5H370l-71-71h-86.6l-71 71h24.2zm48.5-76.8h82.6c-2.9-15.6-17.9-86-41.6-86-21.3-.1-36.3 59.4-41 86z"/><path d="M347.5 236.7c-1.7 0-2.9-1.2-2.9-2.9v-12.7c0-1.7 1.2-2.9 2.9-2.9s2.9 1.2 2.9 2.9v12.7c0 1.7-1.1 2.9-2.9 2.9zm26 0c-1.7 0-2.9-1.2-2.9-2.9v-12.7c0-1.7 1.2-2.9 2.9-2.9s2.9 1.2 2.9 2.9v12.7c0 1.7-1.2 2.9-2.9 2.9z"/><path d="M165.6 327.3c-1.7 0-2.9-1.2-2.9-2.9v-11h-20.2v11c0 1.7-1.2 2.9-2.9 2.9s-2.9-1.2-2.9-2.9v-11h-3.5c-.6 0-.6-.6-.6-.6l-.6-.6v-2.4c0-.6.6-.6.6-1.2l76.2-76.2v-89.5c0-.6.6-.6.6-1.2l.6-.6c.6-.6 1.7-.6 2.3 0 .6 0 .6.6.6.6l42.7 42.7 41.6-41.6c.6-1.2 1.7-2.3 2.9-2.3.6 0 1.7 0 2.3.6 1.2 1.2 1.2 2.9 0 4V232l76.2 75.1c.6.6 1.2 1.7.6 2.9v.6c0 1.7-1.2 2.9-2.9 2.9v9.8c0 1.7-1.2 2.9-2.9 2.9s-2.9-1.2-2.9-2.9v-9.8h-20.2v9.8c0 1.7-1.2 2.9-2.9 2.9s-2.9-1.2-2.9-2.9v-9.8h-41.6v9.2c0 .6 0 1.7-.6 2.3-1.2 1.2-2.9 1.2-4 0l-12.1-12.1h-60.6l-12 12.1c-1.2 1.2-2.9 1.2-4 0v-.6c-.6-.6-1.2-1.2-1.2-2.3v-9.2h-39.8v11.5c-.1 1.8-1.2 2.9-3 2.9zm48.5-13.8v3.5l3.5-3.5h-3.5zm80.3 0l2.9 2.9v-2.9h-2.9zm53.1-5.8h23.1L303 240.1v67.6h44.5zm-58.9 0h8.7v-65.8l-37 37 28.3 28.8zm-57.1 0h49.1l-24.8-24.3-24.3 24.3zm-17.4 0h9.2l28.3-28.9-37.5-37.5v66.4zm-72.7 0h67v-67l-67 67zm73.9-73.9l41 41 41-41-41.6-40.4-40.4 40.4zm-1.2-82.6v75.6l37.5-37.5-37.5-38.1zm46.2 37.5l37 37v-73.9l-37 36.9z"/></g></g></symbol><symbol id="utilities" viewBox="0 0 512 512"><g id="Layer_10"><g id="Layer_6_2_"><path d="M445.1 448h-28.3c-1.7 0-2.9-1.2-2.9-2.9s1.2-2.9 2.9-2.9h28.3c1.7 0 2.9 1.2 2.9 2.9s-1.2 2.9-2.9 2.9zm-55.4 0H118.3c-1.7 0-2.9-1.2-2.9-2.9s1.2-2.9 2.9-2.9h271.4c1.7 0 2.9 1.2 2.9 2.9s-1.2 2.9-2.9 2.9zm-298 0H66.9c-1.7 0-2.9-1.2-2.9-2.9s1.2-2.9 2.9-2.9h24.8c1.7 0 2.9 1.2 2.9 2.9s-1.2 2.9-2.9 2.9z"/><path d="M351.6 448c-1.2 0-2.3-.6-2.9-1.7L299 328.5l-39.3 39.3 73.9 73.3c1.2 1.2 1.2 2.9 0 4-1.2 1.2-2.9 1.2-4 0l-73.9-73.9-73.9 73.9c-1.2 1.2-2.9 1.2-4 0s-1.2-2.9 0-4l73.9-73.3-39.3-39.3-49.1 116.1c-.6 1.7-2.3 2.3-4 1.7-1.7-.6-2.3-2.3-1.7-4l50.2-119c0-1.2 0-1.7.6-2.9.6-.6 1.7-1.2 2.3-.6h1.2c.6.6 1.7 1.2 1.7 1.7l41.6 41 41.6-41c0-.6.6-1.7 1.7-1.7h1.2c.6 0 1.7 0 2.3.6s1.2 1.7.6 2.9L353.3 444c.6 1.7 0 2.8-1.7 4 .5 0 .5 0 0 0zm-186-211.3c-1.7 0-2.9-1.2-2.9-2.9V224h-20.2v9.8c0 1.7-1.2 2.9-2.9 2.9s-2.9-1.2-2.9-2.9V224h-3.5c-.6 0-.6-.6-1.2-.6 0 0-.6-.6-.6-1.2v-2.4c0-.6.6-.6.6-1.2l75.6-75.6c1.7-11 16.2-94.1 47.4-94.1s46.2 82 47.9 93.5l76.2 76.2s.6.6.6 1.2v2.4c0 .6-.6.6-.6 1.2 0 0-.6.6-1.2.6H168.5v9.8c0 1.7-1.1 2.9-2.9 2.9zm0-18.5H370l-71-71h-86.6l-71 71h24.2zm48.5-76.8h82.6c-2.9-15.6-17.9-86-41.6-86-21.3-.1-36.3 59.4-41 86z"/><path d="M347.5 236.7c-1.7 0-2.9-1.2-2.9-2.9v-12.7c0-1.7 1.2-2.9 2.9-2.9s2.9 1.2 2.9 2.9v12.7c0 1.7-1.1 2.9-2.9 2.9zm26 0c-1.7 0-2.9-1.2-2.9-2.9v-12.7c0-1.7 1.2-2.9 2.9-2.9s2.9 1.2 2.9 2.9v12.7c0 1.7-1.2 2.9-2.9 2.9z"/><path d="M165.6 327.3c-1.7 0-2.9-1.2-2.9-2.9v-11h-20.2v11c0 1.7-1.2 2.9-2.9 2.9s-2.9-1.2-2.9-2.9v-11h-3.5c-.6 0-.6-.6-.6-.6l-.6-.6v-2.4c0-.6.6-.6.6-1.2l76.2-76.2v-89.5c0-.6.6-.6.6-1.2l.6-.6c.6-.6 1.7-.6 2.3 0 .6 0 .6.6.6.6l42.7 42.7 41.6-41.6c.6-1.2 1.7-2.3 2.9-2.3.6 0 1.7 0 2.3.6 1.2 1.2 1.2 2.9 0 4V232l76.2 75.1c.6.6 1.2 1.7.6 2.9v.6c0 1.7-1.2 2.9-2.9 2.9v9.8c0 1.7-1.2 2.9-2.9 2.9s-2.9-1.2-2.9-2.9v-9.8h-20.2v9.8c0 1.7-1.2 2.9-2.9 2.9s-2.9-1.2-2.9-2.9v-9.8h-41.6v9.2c0 .6 0 1.7-.6 2.3-1.2 1.2-2.9 1.2-4 0l-12.1-12.1h-60.6l-12 12.1c-1.2 1.2-2.9 1.2-4 0v-.6c-.6-.6-1.2-1.2-1.2-2.3v-9.2h-39.8v11.5c-.1 1.8-1.2 2.9-3 2.9zm48.5-13.8v3.5l3.5-3.5h-3.5zm80.3 0l2.9 2.9v-2.9h-2.9zm53.1-5.8h23.1L303 240.1v67.6h44.5zm-58.9 0h8.7v-65.8l-37 37 28.3 28.8zm-57.1 0h49.1l-24.8-24.3-24.3 24.3zm-17.4 0h9.2l28.3-28.9-37.5-37.5v66.4zm-72.7 0h67v-67l-67 67zm73.9-73.9l41 41 41-41-41.6-40.4-40.4 40.4zm-1.2-82.6v75.6l37.5-37.5-37.5-38.1zm46.2 37.5l37 37v-73.9l-37 36.9z"/></g></g></symbol></svg>