<?xml version="1.0" encoding="utf-8"?>
<!-- Generator: Adobe Illustrator 22.0.1, SVG Export Plug-In . SVG Version: 6.00 Build 0)  -->
<svg version="1.1" xmlns="http://www.w3.org/2000/svg" xmlns:xlink="http://www.w3.org/1999/xlink" x="0px" y="0px"
	 viewBox="0 0 512 512" enable-background="new 0 0 512 512" xml:space="preserve">
<g id="Layer_3" display="none">
	<g display="inline">
		<g>
			<path fill="#FFFFFF" d="M131,446.8c-0.6,0-0.6,0-1.2,0c-1.7-0.6-2.3-2.3-1.7-4l60.6-135.7c0.6-1.7,2.3-2.3,4-1.7
				c1.7,0.6,2.3,2.3,1.7,4l-60.6,135.7C133.3,446.3,132.1,446.8,131,446.8z"/>
		</g>
		<g>
			<path fill="#FFFFFF" d="M374.7,446.8c-1.2,0-2.3-0.6-2.9-1.7L310,310.6c-0.6-1.7,0-2.9,1.2-4c1.7-0.6,2.9,0,4,1.2L377,442.2
				c0.6,1.7,0,2.9-1.2,4C375.2,446.8,375.2,446.8,374.7,446.8z"/>
		</g>
		<g>
			<path fill="#FFFFFF" d="M312.9,312.3L312.9,312.3l-121.3-1.2c-1.7,0-2.9-1.2-2.9-2.9s1.2-2.9,2.9-2.9l0,0l121.3,1.2
				c1.7,0,2.9,1.2,2.9,2.9S314.6,312.3,312.9,312.3z"/>
		</g>
		<g>
			<path fill="#FFFFFF" d="M360.8,416.2h-216c-1.7,0-2.9-1.2-2.9-2.9c0-1.7,1.2-2.9,2.9-2.9h216c1.7,0,2.9,1.2,2.9,2.9
				C363.7,415.1,362.5,416.2,360.8,416.2z"/>
		</g>
		<g>
			<path fill="#FFFFFF" d="M276.5,416.2c-1.7,0-2.9-1.2-2.9-2.9V308.8c0-1.7,1.2-2.9,2.9-2.9s2.9,1.2,2.9,2.9v104.5
				C279.4,415.1,278.2,416.2,276.5,416.2z"/>
		</g>
		<g>
			<path fill="#FFFFFF" d="M232,416.2c-1.7,0-2.9-1.2-2.9-2.9V308.8c0-1.7,1.2-2.9,2.9-2.9c1.7,0,2.9,1.2,2.9,2.9v104.5
				C234.9,415.1,233.8,416.2,232,416.2z"/>
		</g>
		<g>
			<path fill="#FFFFFF" d="M232,416.2c-1.2,0-2.3-0.6-2.9-1.7l-40.4-105.1c-0.6-1.7,0-2.9,1.7-3.5c1.7-0.6,2.9,0,3.5,1.7l40.4,105.1
				c0.6,1.7,0,2.9-1.7,3.5C232.6,416.2,232.6,416.2,232,416.2z"/>
		</g>
		<g>
			<path fill="#FFFFFF" d="M276.5,416.2c-0.6,0-0.6,0-1.2,0c-1.7-0.6-2.3-2.3-1.7-3.5L310,308.8c0.6-1.7,2.3-2.3,3.5-1.7
				c1.7,0.6,2.3,2.3,1.7,3.5l-36.4,103.9C278.8,415.7,277.7,416.2,276.5,416.2z"/>
		</g>
		<g>
			<path fill="#FFFFFF" d="M191.6,311.1c-1.2,0-1.7-0.6-2.3-1.7l-23.7-41c-0.6-1.2-0.6-2.9,1.2-4c1.2-0.6,2.9-0.6,4,1.2l23.1,41.6
				c0.6,1.2,0.6,2.9-1.2,4C192.8,311.1,192.2,311.1,191.6,311.1z"/>
		</g>
		<g>
			<path fill="#FFFFFF" d="M312.9,312.3c-0.6,0-1.2,0-1.2-0.6c-1.2-0.6-1.7-2.3-1.2-4l22.5-42.2c0.6-1.2,2.3-1.7,4-1.2
				c1.2,0.6,1.7,2.3,1.2,4l-23.1,42.2C315.2,311.7,314,312.3,312.9,312.3z"/>
		</g>
		<g>
			<path fill="#FFFFFF" d="M335.4,270.1H167.9c-1.7,0-2.9-1.2-2.9-2.9s1.2-2.9,2.9-2.9h167.5c1.7,0,2.9,1.2,2.9,2.9
				S337.1,270.1,335.4,270.1z"/>
		</g>
		<g>
			<path fill="#FFFFFF" d="M232,270.1c-1.7,0-2.9-1.2-2.9-2.9v-83.2c0-1.7,1.2-2.9,2.9-2.9c1.7,0,2.9,1.2,2.9,2.9v83.2
				C234.9,269,233.8,270.1,232,270.1z"/>
		</g>
		<g>
			<path fill="#FFFFFF" d="M276.5,270.1c-1.7,0-2.9-1.2-2.9-2.9v-83.2c0-1.7,1.2-2.9,2.9-2.9s2.9,1.2,2.9,2.9v83.2
				C279.4,269,278.2,270.1,276.5,270.1z"/>
		</g>
		<g>
			<path fill="#FFFFFF" d="M276.5,187H232c-1.7,0-2.9-1.2-2.9-2.9c0-1.7,1.2-2.9,2.9-2.9h44.5c1.7,0,2.9,1.2,2.9,2.9
				C279.4,185.8,278.2,187,276.5,187z"/>
		</g>
		<g>
			<path fill="#FFFFFF" d="M300.2,270.1c-1.2,0-2.3-0.6-2.9-2.3l-23.7-83.2c-0.6-1.7,0.6-2.9,1.7-3.5c1.7-0.6,2.9,0.6,3.5,1.7
				l24.3,83.7c0.6,1.7-0.6,2.9-1.7,3.5C300.8,270.1,300.2,270.1,300.2,270.1z"/>
		</g>
		<g>
			<path fill="#FFFFFF" d="M203.2,270.1c-0.6,0-0.6,0-1.2,0c-1.7-0.6-2.3-2.3-1.7-3.5l28.9-83.2c0.6-1.7,2.3-2.3,3.5-1.7
				c1.7,0.6,2.3,2.3,1.7,3.5l-28.9,83.2C205.5,269.6,204.3,270.1,203.2,270.1z"/>
		</g>
		<g>
			<path fill="#FFFFFF" d="M276.5,187c-0.6,0-1.7,0-2.3-0.6c-1.2-1.2-1.2-2.9,0-4l28.9-28.9c1.2-1.2,2.9-1.2,4,0
				c1.2,1.2,1.2,2.9,0,4l-28.9,28.9C278.2,187,277.1,187,276.5,187z"/>
		</g>
		<g>
			<path fill="#FFFFFF" d="M232,187c-0.6,0-1.7,0-2.3-0.6L200.3,157c-1.2-1.2-1.2-2.9,0-4s2.9-1.2,4,0l29.4,29.4
				c1.2,1.2,1.2,2.9,0,4C233.8,187,232.6,187,232,187z"/>
		</g>
		<g>
			<path fill="#FFFFFF" d="M305.4,158.1L305.4,158.1l-102.8-0.6c-1.7,0-2.9-1.2-2.9-2.9c0-1.7,1.2-2.9,2.9-2.9l0,0l102.8,0.6
				c1.7,0,2.9,1.2,2.9,2.9S307.1,158.1,305.4,158.1z"/>
		</g>
		<g>
			<path fill="#FFFFFF" d="M232,157.5c-1.7,0-2.9-1.2-2.9-2.9v-35.2c0-1.7,1.2-2.9,2.9-2.9c1.7,0,2.9,1.2,2.9,2.9v35.2
				C234.9,156.4,233.8,157.5,232,157.5z"/>
		</g>
		<g>
			<path fill="#FFFFFF" d="M276.5,157.5c-1.7,0-2.9-1.2-2.9-2.9v-35.2c0-1.7,1.2-2.9,2.9-2.9s2.9,1.2,2.9,2.9v35.2
				C279.4,156.4,278.2,157.5,276.5,157.5z"/>
		</g>
		<g>
			<path fill="#FFFFFF" d="M276.5,122.3H232c-1.7,0-2.9-1.2-2.9-2.9c0-1.7,1.2-2.9,2.9-2.9h44.5c1.7,0,2.9,1.2,2.9,2.9
				C279.4,121.2,278.2,122.3,276.5,122.3z"/>
		</g>
		<g>
			<path fill="#FFFFFF" d="M270.7,96.9c-0.6,0-1.7-0.6-2.3-1.2c-1.2-1.2-0.6-2.9,0.6-4c2.3-2.3,11-9.8,11.5-19.6
				c0-5.8-2.3-11-7.5-16.7c-13.3-13.3-21.4-27.1-24.3-37c-1.7,2.3-4,4.6-6.9,8.1c-8.7,9.2-20.2,21.9-20.8,31.8
				c-0.6,16.2,15,33.5,15.6,33.5c1.2,1.2,1.2,2.9,0,4s-2.9,1.2-4,0c-0.6-0.6-17.3-19.6-16.7-38.1c0.6-11.5,12.7-24.8,22.5-35.2
				c4.6-4.6,9.8-10.4,9.8-12.1s1.7-2.3,2.9-2.3c1.7,0,2.9,1.2,2.9,2.9c0,5.8,5.2,21.9,24.3,40.4c6.4,6.4,9.8,13.3,9.2,20.8
				c-0.6,11.5-9.8,20.8-13.3,23.7C271.9,96.9,271.3,96.9,270.7,96.9z"/>
		</g>
		<g>
			<path fill="#FFFFFF" d="M91.1,448H66.9c-1.7,0-2.9-1.2-2.9-2.9c0-1.7,1.2-2.9,2.9-2.9h24.3c1.7,0,2.9,1.2,2.9,2.9
				C94,446.8,92.9,448,91.1,448z"/>
		</g>
		<g>
			<path fill="#FFFFFF" d="M389.7,448H118.3c-1.7,0-2.9-1.2-2.9-2.9c0-1.7,1.2-2.9,2.9-2.9h271.4c1.7,0,2.9,1.2,2.9,2.9
				C392.6,446.8,391.4,448,389.7,448z"/>
		</g>
		<g>
			<path fill="#FFFFFF" d="M445.1,448h-28.3c-1.7,0-2.9-1.2-2.9-2.9c0-1.7,1.2-2.9,2.9-2.9h28.3c1.7,0,2.9,1.2,2.9,2.9
				C448,446.8,446.8,448,445.1,448z"/>
		</g>
	</g>
</g>
<g id="Layer_4" display="none">
	<g display="inline">
		<g>
			<path fill="#FFFFFF" d="M445.1,447.4h-28.3c-1.7,0-2.9-1.2-2.9-2.9s1.2-2.9,2.9-2.9h28.3c1.7,0,2.9,1.2,2.9,2.9
				S446.8,447.4,445.1,447.4z M390.2,447.4H118.4c-1.7,0-2.9-1.2-2.9-2.9s1.2-2.9,2.9-2.9h271.8c1.7,0,2.9,1.2,2.9,2.9
				S391.9,447.4,390.2,447.4z M91.8,447.4H66.9c-1.7,0-2.9-1.2-2.9-2.9s1.2-2.9,2.9-2.9h24.9c1.7,0,2.9,1.2,2.9,2.9
				S93.5,447.4,91.8,447.4z"/>
		</g>
		<g>
			<path fill="#FFFFFF" d="M256,448c-1.7,0-2.9-1.2-2.9-2.9V210.3L75,283.8l76.9,159.6c0.6,1.2,0,2.9-1.2,4c-1.7,0.6-2.9,0-4-1.2
				L68.6,283.2l0,0c0-0.6,0-0.6,0-1.2c0-0.6,0-0.6,0-1.2l0,0l0,0l0,0l0,0c0-0.6,0.6-0.6,0.6-1.2l0.6-0.6l0,0l184.5-75.8
				c0.6,0,1.2,0,1.2,0c0.6,0,0.6,0,0.6,0h0.6l185.1,75.8l0,0c0.6,0,0.6,0.6,0.6,0.6c0.6,0.6,0.6,0.6,0.6,1.2l0,0l0,0l0,0
				c0,0.6,0,0.6,0,1.2s0,0.6,0,1.2l0,0l-76.9,162.5c-0.6,1.2-2.3,2.3-4,1.2c-1.7-0.6-2.3-2.3-1.2-4L437,283.2l-178.1-72.9v234.8
				C258.9,446.8,257.7,448,256,448z M378,298.8h-12.1c-1.7,0-2.9-1.2-2.9-2.9c0-1.7,1.2-2.9,2.9-2.9H378c1.7,0,2.9,1.2,2.9,2.9
				C380.9,297.6,379.8,298.8,378,298.8z M145.5,298.8h-12.1c-1.7,0-2.9-1.2-2.9-2.9c0-1.7,1.2-2.9,2.9-2.9h12.1
				c1.7,0,2.9,1.2,2.9,2.9C148.4,297.6,147.3,298.8,145.5,298.8z"/>
		</g>
		<g>
			<path fill="#FFFFFF" d="M378,258.3c-1.7,0-2.9-1.2-2.9-2.9V160H136.3v95.4c0,1.7-1.2,2.9-2.9,2.9c-1.7,0-2.9-1.2-2.9-2.9v-98.3
				c0-1.7,1.2-2.9,2.9-2.9h49.2v-41.1c0-1.7,1.2-2.9,2.9-2.9h142.3c1.7,0,2.9,1.2,2.9,2.9v41.1H378c1.7,0,2.9,1.2,2.9,2.9v98.3
				C380.9,257.2,379.8,258.3,378,258.3z M188.3,154.2h136.5V116H188.3V154.2z M339.9,194.1c-1.7,0-2.9-1.2-2.9-2.9v-12.1
				c0-1.7,1.2-2.9,2.9-2.9s2.9,1.2,2.9,2.9v12.1C342.7,193,341.6,194.1,339.9,194.1z M316.1,194.1c-1.7,0-2.9-1.2-2.9-2.9v-12.1
				c0-1.7,1.2-2.9,2.9-2.9c1.7,0,2.9,1.2,2.9,2.9v12.1C319,193,317.9,194.1,316.1,194.1z M293,194.1c-1.7,0-2.9-1.2-2.9-2.9v-12.1
				c0-1.7,1.2-2.9,2.9-2.9c1.7,0,2.9,1.2,2.9,2.9v12.1C295.9,193,294.7,194.1,293,194.1z M268.7,194.1c-1.7,0-2.9-1.2-2.9-2.9v-12.1
				c0-1.7,1.2-2.9,2.9-2.9c1.7,0,2.9,1.2,2.9,2.9v12.1C271.6,193,270.5,194.1,268.7,194.1z M243.9,194.1c-1.7,0-2.9-1.2-2.9-2.9
				v-12.1c0-1.7,1.2-2.9,2.9-2.9c1.7,0,2.9,1.2,2.9,2.9v12.1C246.7,193,245.6,194.1,243.9,194.1z M220.1,194.1
				c-1.7,0-2.9-1.2-2.9-2.9v-12.1c0-1.7,1.2-2.9,2.9-2.9c1.7,0,2.9,1.2,2.9,2.9v12.1C223,193,221.9,194.1,220.1,194.1z M197,194.1
				c-1.7,0-2.9-1.2-2.9-2.9v-12.1c0-1.7,1.2-2.9,2.9-2.9s2.9,1.2,2.9,2.9v12.1C199.9,193,198.7,194.1,197,194.1z M172.7,194.1
				c-1.7,0-2.9-1.2-2.9-2.9v-12.1c0-1.7,1.2-2.9,2.9-2.9c1.7,0,2.9,1.2,2.9,2.9v12.1C175.6,193,174.5,194.1,172.7,194.1z"/>
		</g>
		<g>
			<path fill="#FFFFFF" d="M256,115.5c-1.7,0-2.9-1.2-2.9-2.9V58.8c0-1.7,1.2-2.9,2.9-2.9h56.7c0.6,0,0.6,0,1.2,0s0.6,0,1.2,0.6
				c0.6,0,0.6,0.6,0.6,1.2c0,0.6,0.6,0.6,0.6,1.2s0,0.6,0,1.2c0,0,0,0.6-0.6,0.6L304,77.9h45.1c1.7,0,2.9,1.2,2.9,2.9
				c0,1.7-1.2,2.9-2.9,2.9h-50.9c0,0-0.6,0-1.2,0l0,0l0,0c-0.6,0-0.6,0-1.2-0.6c-0.6,0-0.6-0.6-0.6-1.2s-0.6-0.6-0.6-1.2
				s0-0.6,0-1.2c0,0,0-0.6,0.6-0.6l11.6-17.3h-48.6v50.9C258.9,114.3,257.7,115.5,256,115.5z"/>
		</g>
	</g>
</g>
<g id="Layer_5" display="none">
	<g id="Layer_4_1_" display="inline">
		<g>
			<path fill="#FFFFFF" d="M348,446.8c-1.7,0-2.9-1.2-2.9-2.9V336.7h-42.9v107.2c0,1.7-1.2,2.9-2.9,2.9c-1.7,0-2.9-1.2-2.9-2.9
				V336.7h-93.9v107.2c0,1.7-1.2,2.9-2.9,2.9c-1.7,0-2.9-1.2-2.9-2.9V336.7h-45.8v107.2c0,1.7-1.2,2.9-2.9,2.9
				c-1.7,0-2.9-1.2-2.9-2.9V336.7h-20.9c-1.7,0-2.9-1.2-2.9-2.9v-36.5c0-1.7,1.2-2.9,2.9-2.9h247.5c1.7,0,2.9,1.2,2.9,2.9v36.5
				c0,1.7-1.2,2.9-2.9,2.9h-20.9v107.2C350.9,445.7,349.8,446.8,348,446.8z M127.2,330.9h241.7v-30.7H127.2V330.9z"/>
		</g>
		<g>
			<path fill="#FFFFFF" d="M262.2,300.2c-1.7,0-2.9-1.2-2.9-2.9c-0.6-9.9,5.2-22,13.9-31.3c6.4-7,17.4-14.5,34.2-14.5
				c33,0,48.7,26.7,49.3,45.8c0,1.7-1.2,2.9-2.9,2.9s-2.9-1.2-2.9-2.9c-0.6-16.8-14.5-40-43.5-40c-14.5,0-24.3,7-30.1,12.8
				c-8.7,9.3-12.2,20.3-12.2,27.2C265.1,299,264,300.2,262.2,300.2L262.2,300.2z M251.2,300.2H136.5c-1.7,0-2.9-1.2-2.9-2.9v-66.7
				c0-1.7,1.2-2.9,2.9-2.9h114.8c1.7,0,2.9,1.2,2.9,2.9v66.7C254.1,299,253,300.2,251.2,300.2z M139.4,294.4h109v-60.9h-109V294.4z"
				/>
		</g>
		<g>
			<path fill="#FFFFFF" d="M349.2,281.6C349.2,281.6,348.6,281.6,349.2,281.6L349.2,281.6L349.2,281.6c-1.2,0-1.2,0-1.7-0.6l0,0l0,0
				c-0.6,0-0.6-0.6-0.6-0.6c0-0.6-0.6-0.6-0.6-1.2l0,0l-4.6-41.2l-20.9,19.7c-1.2,1.2-2.9,1.2-4.1,0s-1.2-2.9,0-4.1l69.6-66.7
				l0.6-0.6c0,0,0.6,0,0.6-0.6c0.6,0,0.6,0,1.2,0h0.6h0.6l0,0l8.1,5.2l0.6,0.6l0,0l0,0c0,0.6,0.6,0.6,0.6,1.2s0,0.6,0,1.2l0,0l0,0
				c0,0,0,0.6-0.6,0.6l-47.5,84.6l0,0c0,0.6-0.6,0.6-0.6,0.6C350.3,281.6,350.3,281.6,349.2,281.6
				C349.8,281.6,349.2,281.6,349.2,281.6z M347.4,238.2l3.5,31.3l11.6-20.3L347.4,238.2z M350.9,233.5l14.5,10.4l10.4-18.5
				L350.9,233.5z M367.7,212.7L353.8,226l22-7L367.7,212.7z M371.8,209.2l8.1,6.4l4.1-18L371.8,209.2z M390.3,193.5l-1.7,9.3
				l4.1-7.5L390.3,193.5z M289.5,260.2c-1.2,0-2.3-1.2-2.9-2.3l-3.5-20.3l-30.1,18c-1.2,0.6-2.9,0.6-4.1-1.2
				c-0.6-1.2-0.6-2.9,1.2-4.1l30.1-18l-64.3-51l-8.7,50.4c0,1.7-1.7,2.9-3.5,2.3c-1.7,0-2.9-1.7-2.3-3.5l9.3-54.5v-0.6l9.9-57.4l0,0
				c0-0.6,0-0.6,0-1.2l9.9-57.4h-11c-1.7,0-2.9-1.2-2.9-2.9V30.1c0-1.7,1.2-2.9,2.9-2.9h20.9V6.9c0-1.7,1.2-2.9,2.9-2.9
				c1.7,0,2.9,1.2,2.9,2.9v20.3h20.9c1.7,0,2.9,1.2,2.9,2.9v26.7c0,1.7-1.2,2.9-2.9,2.9h-11l10.4,56.8c0.6,0.6,0.6,1.2,0.6,1.7l0,0
				v0.6l20.9,113c0.6,0.6,0.6,1.7,0.6,2.9l4.1,22.6C292.4,258.5,291.8,259.6,289.5,260.2C290.1,260.2,289.5,260.2,289.5,260.2z
				 M221.7,179l59.1,47l-8.7-47H221.7z M219.9,173.3h51l-9.3-48.7L219.9,173.3z M225.7,120.5l-7.5,45.8l39.4-45.8H225.7z
				 M226.9,114.7h32.5l-23.8-49.3L226.9,114.7z M238.5,59.1L257,97.3l-7-38.3H238.5z M252.4,53.3H264V32.4h-41.7v20.9h11.6l0,0
				H252.4L252.4,53.3z M257,45.7h-27.2c-1.7,0-2.9-1.2-2.9-2.9s1.2-2.9,2.9-2.9H257c1.7,0,2.9,1.2,2.9,2.9S258.8,45.7,257,45.7z"/>
		</g>
		<g>
			<path fill="#FFFFFF" d="M163.1,273.5c-1.7,0-2.9-1.2-2.9-2.9v-20.9c0-1.7,1.2-2.9,2.9-2.9c1.7,0,2.9,1.2,2.9,2.9v20.9
				C166,272.4,164.9,273.5,163.1,273.5z"/>
		</g>
		<g>
			<path fill="#FFFFFF" d="M190.9,273.5c-1.7,0-2.9-1.2-2.9-2.9v-20.9c0-1.7,1.2-2.9,2.9-2.9c1.7,0,2.9,1.2,2.9,2.9v20.9
				C193.8,272.4,192.7,273.5,190.9,273.5z"/>
		</g>
		<g>
			<path fill="#FFFFFF" d="M221.1,273.5c-1.7,0-2.9-1.2-2.9-2.9v-20.9c0-1.7,1.2-2.9,2.9-2.9c1.7,0,2.9,1.2,2.9,2.9v20.9
				C224,272.4,222.8,273.5,221.1,273.5z"/>
		</g>
		<g>
			<path fill="#FFFFFF" d="M446,448h-28.4c-1.7,0-2.9-1.2-2.9-2.9s1.2-2.9,2.9-2.9H446c1.7,0,2.9,1.2,2.9,2.9S447.7,448,446,448z
				 M390.9,448H118.5c-1.7,0-2.9-1.2-2.9-2.9s1.2-2.9,2.9-2.9h272.4c1.7,0,2.9,1.2,2.9,2.9S392.7,448,390.9,448z M91.8,448H66.9
				c-1.7,0-2.9-1.2-2.9-2.9s1.2-2.9,2.9-2.9h24.9c1.7,0,2.9,1.2,2.9,2.9S93.6,448,91.8,448z"/>
		</g>
	</g>
</g>
<g id="Layer_6" display="none">
	<g display="inline">
		<g>
			<path fill="#FFFFFF" d="M445.1,448h-28.3c-1.7,0-2.9-1.2-2.9-2.9c0-1.7,1.2-2.9,2.9-2.9h28.3c1.7,0,2.9,1.2,2.9,2.9
				C448,446.8,446.8,448,445.1,448z M389.7,448H118.3c-1.7,0-2.9-1.2-2.9-2.9c0-1.7,1.2-2.9,2.9-2.9h271.4c1.7,0,2.9,1.2,2.9,2.9
				C392.6,446.8,391.4,448,389.7,448z M91.7,448H66.9c-1.7,0-2.9-1.2-2.9-2.9c0-1.7,1.2-2.9,2.9-2.9h24.8c1.7,0,2.9,1.2,2.9,2.9
				C94.6,446.8,93.4,448,91.7,448z"/>
		</g>
		<g>
			<path fill="#FFFFFF" d="M256.9,356.8c-67,0-121.3-54.3-121.3-120.7s54.3-120.7,120.7-120.7c67,0,121.3,54.3,121.3,120.7
				S323.3,356.8,256.9,356.8z M256.3,121.2c-63.5,0-114.9,51.4-114.9,114.9S193.3,351,256.9,351s114.9-51.4,114.9-114.9
				S319.8,121.2,256.3,121.2z"/>
		</g>
		<g>
			<path fill="#FFFFFF" d="M366.6,245.9c-8.1,0-20.8-0.6-26-5.8c-1.2-1.2-2.3-2.3-3.5-3.5c-5.2-5.8-7.5-8.1-12.7-6.4
				c-11.5,4-20.8,4.6-28.3,2.3c-5.8-1.7-11.5-8.7-16.7-15.6c-3.5-4-6.9-8.7-9.2-10.4c-5.2-4-26.6-3.5-39.3-2.3c-0.6,0-1.7,0-2.3-0.6
				c-0.6-0.6-1.2-1.2-1.2-1.7c-0.6-10.4,1.7-17.9,6.4-23.7c8.1-8.1,20.8-7.5,26.6-7.5c0.6,0,1.7,0,2.3,0c2.3,0,4-2.9,6.4-6.4
				c1.2-2.3,2.9-4.6,4.6-6.4c2.9-2.9,11-2.3,21.9-1.2c3.5,0.6,7.5,0.6,8.7,0.6c2.3-0.6,9.8-9.2,15.6-19.1c1.2-1.2,2.9-1.7,4-0.6
				c1.2,0.6,1.7,2.9,0.6,4c-4,6.4-13.9,20.8-20.2,21.4c-2.3,0-5.8,0-10.4-0.6c-5.2-0.6-15.6-1.7-17.9,0c-1.2,1.2-2.3,2.9-3.5,4.6
				c-2.3,4-5.2,8.7-11,9.2c-0.6,0-1.7,0-2.3,0c-5.8,0-16.2-0.6-21.9,5.8c-3.5,3.5-5.2,9.2-5.2,16.2c9.2-0.6,32.9-1.7,39.8,3.5
				c3.5,2.3,6.9,6.9,10.4,11.5c4.6,5.8,9.8,12.7,13.9,13.9c6.4,2.3,14.4,1.2,24.8-2.3c9.2-2.9,13.9,2.3,19.1,8.1
				c1.2,1.2,1.7,2.3,2.9,3.5c4,4,19.6,4.6,28.9,4c1.7,0,2.9,1.2,2.9,2.9s-1.2,2.9-2.9,2.9C373.5,245.9,370.6,245.9,366.6,245.9z"/>
		</g>
		<g>
			<path fill="#FFFFFF" d="M161,236.1h-22.5c-1.7,0-2.9-1.2-2.9-2.9s1.2-2.9,2.9-2.9h19.6c0-10.4,2.9-18.5,8.1-24.3
				c5.2-5.2,12.1-6.9,15.6-6.9c0-6.9-1.7-12.7-5.2-16.2c-7.5-7.5-20.8-5.2-20.8-5.2c-1.7,0-2.9-1.2-3.5-2.3c0-1.7,1.2-2.9,2.3-3.5
				c0.6,0,16.2-2.3,26,6.9c5.8,5.2,8.1,13.3,6.9,23.1c0,1.7-1.7,2.9-2.9,2.9c0,0-8.1-0.6-14.4,5.2c-4.6,4.6-6.9,12.1-6.4,22.5
				c0,0.6,0,1.7-0.6,2.3C162.7,235.5,161.6,236.1,161,236.1z"/>
		</g>
		<g>
			<path fill="#FFFFFF" d="M173.7,323.3c-1.2,0-2.3-0.6-2.3-1.7c-0.6-1.2,0-2.9,1.2-4c3.5-1.7,9.8-8.7,9.8-11v-23.7
				c0-0.6,0.6-1.7,1.2-2.3c6.9-5.8,11-14.4,8.7-20.2c-1.7-5.2-8.1-8.7-17.9-9.2c-26-1.7-30,11.5-30,11.5c-0.6,1.7-1.7,2.3-3.5,2.3
				c-1.7-0.6-2.3-1.7-2.3-3.5c0-0.6,5.2-17.9,35.8-16.2c16.2,1.2,21.4,7.5,23.1,13.3c2.3,8.1-1.2,18.5-9.8,25.4v23.1
				c0,5.8-9.8,14.4-13.3,15.6C174.9,323.3,174.3,323.3,173.7,323.3z"/>
		</g>
		<g>
			<path fill="#FFFFFF" d="M273,331.4c-5.2,0-10.4-0.6-12.7-1.2c-1.7,0-2.3-1.7-2.3-2.9c0,0,1.2-27.7,0.6-42.7l0,0
				c0-2.3-1.2-4-2.3-5.8c-5.2-4.6-18.5-3.5-23.1-2.9H232c-1.7,0-2.9-0.6-4-1.2c-2.9-2.9-2.3-8.1-1.7-14.4c0-3.5,0.6-6.9,0-9.2
				c-0.6-7.5,4-10.4,7.5-13.3c1.7-1.2,3.5-2.3,4.6-3.5c5.2-5.2,16.7-4.6,27.1-4c2.3,0,4.6,0,6.9,0c8.7,0,20.2,12.7,30,25.4l1.2,1.2
				c4,4.6,3.5,19.6,1.2,41.6c0,2.3-0.6,4-0.6,4.6c-0.6,8.7-19.1,24.3-22.5,26C279.4,330.8,276.5,331.4,273,331.4z M263.8,325
				c6.4,0.6,12.7,1.2,14.4,0c4.6-2.3,19.1-16.2,19.6-21.4c0-1.2,0-2.9,0.6-5.2c0.6-8.1,3.5-33.5,0-37.5l-1.2-1.2
				c-12.1-15.6-20.8-23.1-26-23.1c-2.3,0-4.6,0-6.9,0c-7.5-0.6-19.6-1.2-22.5,2.3c-1.7,1.7-3.5,3.5-5.2,4.6c-3.5,2.9-5.8,4-5.2,7.5
				c0.6,2.9,0,6.4,0,10.4c0,2.9-0.6,8.1,0,9.8h0.6c5.8-0.6,20.2-2.3,27.7,4c2.9,2.3,4.6,5.8,4.6,9.8l0,0
				C265,296.7,264.4,317.5,263.8,325z"/>
		</g>
		<g>
			<path fill="#FFFFFF" d="M255.1,427.2c-1.7,0-2.9-1.2-2.9-2.9v-46.2c0-1.7,1.2-2.9,2.9-2.9c1.7,0,2.9,1.2,2.9,2.9v46.2
				C258,426.1,256.9,427.2,255.1,427.2z M273.6,398.3c-1.7,0-2.9-1.2-2.9-2.9v-23.1c0-1.7,1.2-2.9,2.9-2.9s2.9,1.2,2.9,2.9v23.1
				C276.5,397.2,275.3,398.3,273.6,398.3z M236.7,398.3c-1.7,0-2.9-1.2-2.9-2.9v-23.1c0-1.7,1.2-2.9,2.9-2.9c1.7,0,2.9,1.2,2.9,2.9
				v23.1C239.5,397.2,238.4,398.3,236.7,398.3z"/>
		</g>
	</g>
</g>
<g id="Layer_1" display="none">
	<g id="Layer_7_3_" display="inline">
		<g>
			<path fill="#FFFFFF" d="M445.1,448h-28.3c-1.7,0-2.9-1.2-2.9-2.9c0-1.7,1.2-2.9,2.9-2.9h28.3c1.7,0,2.9,1.2,2.9,2.9
				C448,446.8,446.8,448,445.1,448z M389.7,448H118.3c-1.7,0-2.9-1.2-2.9-2.9c0-1.7,1.2-2.9,2.9-2.9h271.4c1.7,0,2.9,1.2,2.9,2.9
				C392.6,446.8,391.4,448,389.7,448z M91.7,448H66.9c-1.7,0-2.9-1.2-2.9-2.9c0-1.7,1.2-2.9,2.9-2.9h24.8c1.7,0,2.9,1.2,2.9,2.9
				C94.6,446.8,93.4,448,91.7,448z"/>
		</g>
		<g>
			<path fill="#FFFFFF" d="M109.6,416.8L109,411c0-0.6-1.7-14.4,1.2-23.7c-12.1-5.8-17.3-16.7-17.3-17.3l-1.7-4h4
				c0,0,24.3-1.2,31.8-2.3c4-5.8,13.3-16.2,17.9-20.8c-3.5-1.7-8.1-5.2-12.1-7.5l-3.5-1.7l2.9-2.9c7.5-6.9,15.6-11.5,24.8-17.3
				l5.8-3.5c9.2-5.2,17.3-2.9,24.3,7.5c34.1-6.9,53.7,12.7,54.3,13.3l1.2,1.2v1.2c-3.5,27.1-16.7,39.8-28.9,47.4
				c1.7,4.6,1.2,9.2-1.2,13.3c-8.7,15-44.5,16.7-48.5,16.7h-4l1.2-4c0,0,1.7-6.9,3.5-13.3c-8.7,0-23.1-2.3-28.3-2.9L109.6,416.8z
				 M173.1,387.9l-1.2,4.6c-1.2,4-2.3,9.8-3.5,13.3c12.1-1.2,34.6-4.6,39.8-13.9c1.7-2.9,1.7-6.4,0-9.8l-1.2-2.3l2.3-1.2
				c11-6.9,24.3-17.9,27.7-43.3c-4-4-21.9-17.3-50.2-10.4l-1.7,0.6l-1.2-1.7c-4-6.4-9.2-12.1-17.3-6.9l-5.8,3.5
				c-8.1,4.6-15,8.7-20.8,13.9c5.2,3.5,11.5,7.5,11.5,7.5l2.9,1.7l-2.3,1.2c0,0-16.7,17.3-20.2,23.7l-0.6,1.2h-1.2
				c-4.6,1.2-20.8,1.7-28.9,2.3c2.3,3.5,6.9,8.7,14.4,11.5l2.9,1.2l-1.7,2.9c-2.3,4-2.9,11.5-2.3,17.3l20.8-19.6h1.2
				c10.4,1.7,27.7,3.5,31.8,2.9L173.1,387.9z M205.5,354.5c-1.2,0-2.9-0.6-4-1.2c-2.9-1.2-4.6-3.5-5.8-5.8s-0.6-5.2,0.6-6.9
				c1.2-2.9,3.5-4.6,5.8-5.8c2.3-1.2,4.6-0.6,6.9,0.6c2.9,1.2,4.6,3.5,5.8,5.8s0.6,5.2-0.6,6.9c-1.2,2.9-3.5,4.6-5.8,5.8
				C207.2,354.5,206.6,354.5,205.5,354.5z M204.9,340c-0.6,0-0.6,0-1.2,0c-1.2,0.6-2.3,1.2-2.9,2.9c-0.6,1.2-0.6,1.7,0,2.9
				s1.2,2.3,2.9,2.9c1.2,0.6,1.7,0.6,2.9,0c1.2-0.6,2.3-1.2,2.9-2.9c0.6-1.2,0.6-1.7,0-2.9c-0.6-1.2-1.2-2.3-2.9-2.9l0,0
				C206.1,340,205.5,340,204.9,340z M210.7,297.9l-0.6-5.2c0-0.6-0.6-5.2,0.6-9.2c-4.6-2.9-6.9-6.9-6.9-6.9l-2.3-4h4.6
				c3.5,0,9.2,0,12.1-0.6c1.7-2.3,4-4.6,5.8-6.9c-1.2-0.6-2.3-1.7-2.9-1.7l-4-2.3l2.9-2.9c3.5-3.5,7.5-5.8,13.3-9.2
				c2.9-1.7,7.5-2.3,12.1,2.9c14.4-2.9,23.1,5.8,23.7,6.4l1.2,1.2v1.2c-1.2,12.1-7.5,17.3-11.5,20.2c0.6,2.3,0,4-0.6,5.2
				c-4,6.9-19.1,8.1-21.9,8.1h-4l1.2-4c0,0,0.6-1.7,1.2-4c-2.9,0-6.9-0.6-9.2-1.2L210.7,297.9z M240.1,280.5l-0.6,4
				c0,1.2-0.6,2.3-0.6,3.5c5.2-0.6,11.5-2.3,13.3-4.6c0,0,0.6-0.6-0.6-2.3l-1.2-2.3l2.3-1.7c4.6-2.9,9.2-6.4,10.4-16.2
				c-2.3-1.7-8.7-5.8-19.1-3.5l-1.7,0.6l-1.2-1.7c-2.3-2.9-3.5-3.5-5.2-2.3c-4,2.3-6.9,4-9.2,5.8c1.7,1.2,2.9,2.3,2.9,2.3l2.9,1.7
				l-2.3,2.9c-2.3,2.3-6.9,7.5-8.1,9.2l-0.6,1.2h-1.2c-1.7,0.6-4.6,0.6-8.1,0.6c0.6,0.6,1.7,1.2,2.9,1.7l3.5,1.2l-2.9,2.9
				c-0.6,0.6-0.6,1.7-0.6,2.3l6.9-5.8h1.2c5.2,0.6,11.5,1.7,12.7,1.2L240.1,280.5z M128.1,185.8l-1.2-5.8c0-1.2-1.7-10.4,0-17.3
				c-9.2-4-13.9-11.5-13.9-11.5l-2.3-4l4.6-0.6c5.2-0.6,18.5-2.3,23.1-2.9c2.9-4.6,8.7-12.1,12.1-15.6c-2.3-1.2-5.8-3.5-8.7-4.6
				l-3.5-1.7l2.3-2.9c5.8-6.4,13.3-11.5,21.9-17.3c3.5-2.3,6.9-2.9,10.4-2.3c4.6,1.2,7.5,4,9.2,6.4c24.8-6.9,40.4,6.4,41,6.9
				l1.2,1.2v1.2c-1.2,21.4-12.7,31.8-19.6,37.5c1.7,4,1.2,7.5,0,9.8c-5.8,12.1-32.9,15-35.8,15.6l-3.5,0.6l0.6-3.5
				c0,0,0.6-4.6,1.7-9.2c-6.4,0.6-15.6,0-19.6-0.6L128.1,185.8z M121.2,151.8c2.3,2.3,5.8,5.2,10.4,6.4l2.9,1.2l-1.2,2.9
				c-1.2,2.9-1.2,6.9-1.2,11l13.3-14.4h1.2c8.1,0.6,20.2,1.2,23.1,0l5.2-1.7l-1.2,5.2c-0.6,2.9-1.2,6.4-1.7,9.2
				c10.4-1.7,24.8-5.8,27.7-11.5c0.6-1.2,1.2-3.5-0.6-6.4l-1.7-2.3l1.7-1.7c9.2-6.9,17.9-16.2,19.1-33.5c-3.5-2.9-16.7-11-36.4-4.6
				l-2.3,0.6l-0.6-1.2c-0.6-0.6-2.9-4.6-6.9-5.8c-1.7-0.6-4,0-5.8,1.2c-7.5,4.6-13.3,8.7-18.5,13.9c4,2.3,8.1,4.6,8.1,4.6l2.9,1.7
				l-2.3,2.9c-2.9,3.5-11.5,13.9-13.9,18.5l-0.6,1.2h-1.2C137.9,149.5,127.5,151.2,121.2,151.8z M203.7,132.7c-1.2,0-1.7,0-2.9-0.6
				c-4.6-1.7-6.9-6.4-5.2-11c1.7-4.6,6.4-6.9,10.4-5.2c4,1.2,6.4,5.2,5.2,10.4v0.6C210.1,130.4,207.2,132.7,203.7,132.7z
				 M203.7,121.2c-1.2,0-1.7,1.2-2.3,1.7c0,0.6,0,1.2,0,1.7c0.6,0.6,1.2,1.2,1.7,1.7c0.6,0,1.2,0,1.7,0c0.6-0.6,1.2-0.6,1.2-1.7
				c0-1.2,0-2.9-1.2-3.5h-0.6C204.3,121.2,203.7,121.2,203.7,121.2z"/>
		</g>
		<g>
			<path fill="#FFFFFF" d="M425.5,343.5h-127c-8.1,0-14.4-6.4-14.4-14.4V213.6c-8.7,12.1-20.2,19.1-32.9,19.1l0,0
				c-13.9,0-27.1-8.7-35.8-23.7c-8.1,15-20.8,24.3-34.6,24.3c-14.4,0-27.7-8.7-36.4-24.3c-6.9,13.9-17.9,22.5-31.2,23.7
				c-14.4,1.2-28.9-6.4-35.8-19.1c-0.6-1.2,0-2.9,1.2-4c1.2-0.6,2.9,0,4,1.2c5.8,10.4,18.5,17.3,30.6,16.2
				c12.7-1.2,23.1-10.4,28.3-25.4c0.6-1.2,1.2-1.7,2.9-1.7c1.2,0,2.3,0.6,2.9,1.7c6.9,16.7,19.6,26.6,33.5,26.6
				c13.3,0,25.4-9.8,31.8-26.6c0.6-1.2,1.7-1.7,2.3-1.7c1.2,0,2.3,0.6,2.9,1.7c7.5,16.2,19.6,25.4,33.5,25.4
				c13.3,0,25.4-9.2,32.9-24.8v-59.5c0-8.1,6.4-14.4,14.4-14.4h127c8.1,0,14.4,6.4,14.4,14.4V329
				C439.9,337.1,433.6,343.5,425.5,343.5z M289.8,202.6V329c0,4.6,4,8.7,8.7,8.7h127c4.6,0,8.7-4,8.7-8.7V142.5c0-4.6-4-8.7-8.7-8.7
				h-127c-4.6,0-8.7,4-8.7,8.7L289.8,202.6C289.8,202.6,289.8,202.6,289.8,202.6z M363.7,332.5c-3.5,0-7.5-2.9-7.5-7.5
				c0-3.5,2.9-7.5,7.5-7.5s7.5,2.9,7.5,7.5C371.2,328.5,368.3,332.5,363.7,332.5z M363.7,323.3c-1.2,0-1.7,1.2-1.7,1.7
				c0,1.2,1.2,1.7,1.7,1.7c1.2,0,1.7-1.2,1.7-1.7C365.4,323.8,364.8,323.3,363.7,323.3z M423.7,311.1H300.2c-1.7,0-2.9-1.2-2.9-2.9
				V147.2c0-1.7,1.2-2.9,2.9-2.9h123.6c1.7,0,2.9,1.2,2.9,2.9v161.1C426.6,310,425.5,311.1,423.7,311.1z M303.1,305.4h117.8V150
				H303.1V305.4z"/>
		</g>
		<g>
			<path fill="#FFFFFF" d="M402.4,311.1c-1.7,0-2.9-1.2-2.9-2.9V177.8c0-1.7,1.2-2.9,2.9-2.9s2.9,1.2,2.9,2.9v130.5
				C405.3,310,404.1,311.1,402.4,311.1z M377.6,311.1c-1.7,0-2.9-1.2-2.9-2.9v-80.8c0-1.7,1.2-2.9,2.9-2.9c1.7,0,2.9,1.2,2.9,2.9
				v80.8C380.4,310,379.3,311.1,377.6,311.1z M349.8,311.1c-1.7,0-2.9-1.2-2.9-2.9V213c0-1.7,1.2-2.9,2.9-2.9c1.7,0,2.9,1.2,2.9,2.9
				v95.3C352.7,310,351.6,311.1,349.8,311.1z M325,311.1c-1.7,0-2.9-1.2-2.9-2.9v-80.8c0-1.7,1.2-2.9,2.9-2.9c1.7,0,2.9,1.2,2.9,2.9
				v80.8C327.9,310,326.7,311.1,325,311.1z"/>
		</g>
	</g>
</g>
<g id="Layer_7_1_" display="none">
	<g id="Layer_5_2_" display="inline">
		<g>
			<path fill="#FFFFFF" d="M445.1,448h-28.3c-1.7,0-2.9-1.2-2.9-2.9s1.2-2.9,2.9-2.9h28.3c1.7,0,2.9,1.2,2.9,2.9
				S446.8,448,445.1,448z M390.2,448H118.4c-1.7,0-2.9-1.2-2.9-2.9s1.2-2.9,2.9-2.9h271.8c1.7,0,2.9,1.2,2.9,2.9
				S391.9,448,390.2,448z M91.8,448H66.9c-1.7,0-2.9-1.2-2.9-2.9s1.2-2.9,2.9-2.9h24.9c1.7,0,2.9,1.2,2.9,2.9S93.5,448,91.8,448z"/>
		</g>
		<g>
			<path fill="#FFFFFF" d="M236.3,448L236.3,448c-1.7,0-2.9-1.2-2.9-2.9l8.7-196.6c-6.4-4.6-11-12.1-11-20.8
				c0-13.9,11-24.9,24.9-24.9c13.9,0,24.9,11,24.9,24.9c0,13.9-11,24.9-24.9,24.9c-2.9,0-5.8-0.6-8.1-1.2l-8.7,193.7
				C239.2,446.8,238.1,448,236.3,448z M256,208.6c-10.4,0-19.1,8.7-19.1,19.1s8.7,19.1,19.1,19.1c10.4,0,19.1-8.7,19.1-19.1
				S266.4,208.6,256,208.6z M272.8,447.4c-1.7,0-2.9-1.2-2.9-2.9l-5.8-189.7c0-1.7,1.2-2.9,2.9-2.9c1.2,0,2.9,1.2,2.9,2.9l5.8,189.7
				C275.7,446.3,274.5,447.4,272.8,447.4L272.8,447.4z M256,234c-4,0-6.9-2.9-6.9-6.9c0-4,2.9-6.9,6.9-6.9c2.3,0,4.6,1.2,5.8,2.9
				c1.2,1.2,1.2,2.9,1.2,4C262.9,231.1,259.5,234,256,234z M256,225.9c-0.6,0-1.2,0.6-1.2,1.2c0,1.2,2.3,1.2,2.3,0
				c0-0.6,0-0.6,0-1.2C257.2,226.5,256.6,225.9,256,225.9z"/>
		</g>
		<g>
			<path fill="#FFFFFF" d="M274.5,213.2l-5.2-1.7l46.3-141.7l5.2,1.7L274.5,213.2z M249.1,209.2l-5.2-2.3l9.8-21.4l-16.2-23.1
				l59-100l5.2,2.9l-57.3,97.2l15.6,22.6L249.1,209.2z"/>
		</g>
		<g>
			<path fill="#FFFFFF" d="M209.2,277.4l-116.2-0.6V271l112.8,0.6l12.1-24.9l26.6-2.9l0.6,5.8l-23.1,2.9L209.2,277.4z M88.9,256.6
				l-1.2-5.8l145.7-30.7l1.2,5.8L88.9,256.6z"/>
		</g>
		<g>
			<path fill="#FFFFFF" d="M357.8,363.6l-98.3-112.2l4.6-4l98.3,112.2L357.8,363.6z M373.4,349.1L319,250.8l-27.2,1.7l-15.6-21.4
				l4.6-3.5l13.3,19.1l27.2-1.7L378,346.8L373.4,349.1z"/>
		</g>
		<g>
			<path fill="#FFFFFF" d="M202.2,390.2c-0.6,0-0.6,0-1.2,0c-62.5-20.8-105.3-71.7-114.5-136.5c0-1.7,1.2-2.9,2.3-3.5
				c1.7,0,2.9,1.2,3.5,2.3c8.7,62.5,50.3,111.6,111,131.9c1.7,0.6,2.3,2.3,1.7,3.5C204.5,389.6,203.4,390.2,202.2,390.2z
				 M359.5,364.1c-0.6,0-1.7-0.6-2.3-1.2c-1.2-1.2-0.6-2.9,0.6-4c41.1-32.4,64.8-80.4,64.8-131.3c0-11-1.2-22-3.5-33
				c-0.6-1.7,0.6-2.9,2.3-3.5c1.7-0.6,2.9,0.6,3.5,2.3c2.3,11.6,3.5,22.6,3.5,34.1c0,53.2-24.3,102.4-67.1,135.9
				C360.7,364.1,360.1,364.1,359.5,364.1z M215.5,350.3c0,0-0.6,0-1.2,0c-37-11.6-71.1-44-79.2-75.2c-0.6-1.7,0.6-2.9,2.3-3.5
				c1.7-0.6,2.9,0.6,3.5,2.3c8.1,29.5,40.5,60.1,75.8,71.7c1.7,0.6,2.3,2.3,1.7,3.5C217.8,349.7,216.7,350.3,215.5,350.3z
				 M353.7,310.9c-0.6,0-1.2,0-1.7-0.6c-1.2-1.2-1.2-2.9,0-4c17.3-19.7,28.3-48.6,28.9-76.9c-0.6-0.6-0.6-1.2-0.6-1.7
				c0-9.3-0.6-17.3-2.3-24.3c-0.6-1.7,0.6-2.9,2.3-3.5c1.7-0.6,2.9,0.6,3.5,2.3c1.7,6.9,2.3,14.5,2.3,23.1c0.6,0.6,0.6,1.2,0.6,1.7
				c0,30.7-11.6,61.3-30.1,82.7C355.5,310.4,354.3,310.9,353.7,310.9z M172.1,135.1c-0.6,0-1.7-0.6-2.3-1.2c-1.2-1.2-1.2-2.9,0-4
				c24.3-21.4,53.8-32.4,85.6-32.4c8.7,0,17.9,1.2,20.8,1.7c1.7,0.6,2.3,1.7,2.3,3.5c-0.6,1.7-1.7,2.3-3.5,2.3
				c-2.9-0.6-11-1.7-19.7-1.7c-30.1,0-58.4,11-82.1,31.2C173.3,135.1,172.7,135.1,172.1,135.1z M144.4,103.9c-0.6,0-1.7-0.6-2.3-1.2
				c-1.2-1.2-1.2-2.9,0-4c30.7-27.8,71.1-42.8,113.3-42.8c22.6,0,43.4,4,63.6,12.1c1.7,0.6,2.3,2.3,1.7,4c-0.6,1.7-2.3,2.3-4,1.7
				c-19.7-8.1-39.3-12.1-61.3-12.1c-41.1,0-79.8,14.5-109.9,41.6C145.5,103.9,145,103.9,144.4,103.9z"/>
		</g>
	</g>
</g>
<g id="Layer_8" display="none">
	<g id="Layer_2_1_" display="inline">
		<g>
			<path fill="#FFFFFF" d="M445.1,448h-28.3c-1.7,0-2.9-1.2-2.9-2.9c0-1.7,1.2-2.9,2.9-2.9h28.3c1.7,0,2.9,1.2,2.9,2.9
				C448,446.8,446.8,448,445.1,448z M389.7,448H118.3c-1.7,0-2.9-1.2-2.9-2.9c0-1.7,1.2-2.9,2.9-2.9h271.4c1.7,0,2.9,1.2,2.9,2.9
				C392.6,446.8,391.4,448,389.7,448z M91.7,448H66.9c-1.7,0-2.9-1.2-2.9-2.9c0-1.7,1.2-2.9,2.9-2.9h24.8c1.7,0,2.9,1.2,2.9,2.9
				C94.6,446.8,93.4,448,91.7,448z"/>
		</g>
		<g>
			<path fill="#FFFFFF" d="M391.4,274.2h-9.8l-17.9-29.4c-7.5,2.9-13.9,6.9-20.8,10.4c-13.3,7.5-25.4,13.9-42.7,13.9H155.8
				c-12.7,0-29.4-4-49.7-11c-17.9-6.9-38.7-17.9-38.7-30c0-15.6,20.2-22.5,41.6-30.6l1.7-0.6c18.5-6.4,34.1-10.4,56-10.4h2.3
				c0,0,0.6,0,1.2,0l9.8-42.7H202l0.6,2.3c0,0.6,8.1,31.2,28.9,40.4l0,0c30,0,62.4,0,72.2,0c23.7,0,34.6,6.9,46.2,13.9
				c4,2.3,8.1,5.2,12.7,6.9l19.1-31.2h9.8c5.2,0,14.4,0,14.4,9.8v30c2.3,0,4.6,0,6.9,0.6c4,0,7.5,0.6,11,0.6v-27.7h5.8v28.3
				c9.2,1.2,15,2.9,15,8.1c0,5.8-5.8,8.1-15,9.2v8.7h-5.8v-8.1c-3.5,0-6.9,0.6-11,0.6c-2.3,0-4.6,0-6.9,0.6v27.7
				C405.8,274.2,396.6,274.2,391.4,274.2z M385.1,268.4h6.4c7.5,0,8.7-0.6,8.7-4v-27.7c-8.7,0.6-16.7,1.7-24.3,4
				c-2.3,0.6-4.6,1.2-6.9,2.3L385.1,268.4z M166.8,192.2c-20.8,0-36.4,4-53.7,10.4l-1.7,0.6c-19.1,6.9-37.5,13.3-37.5,24.8
				c0,6.4,13.3,16.2,35.2,24.3c19.1,6.9,35.8,11,47.4,11h144.4c15.6,0,26.6-6.4,39.8-13.3c9.2-5.2,20.2-11,34.1-15
				c11-3.5,25.4-4,37.5-4.6c9.8-0.6,26.6-1.2,26.6-4.6c-1.2-2.3-16.2-3.5-26-4c-13.3-0.6-28.3-1.2-39.8-4.6
				c-11-3.5-18.5-8.1-26-12.1c-11-6.9-21.4-13.3-43.3-13.3c-19.6,0-120.7,0.6-133.4,0.6l0,0H166.8z M368.3,209.5
				c1.7,0.6,4,1.7,6.4,2.3c7.5,2.3,16.7,3.5,26,4v-30c0-3.5-1.2-4-8.7-4h-6.4L368.3,209.5z M184.7,149.5l-8.7,37c9.2,0,26,0,44.5,0
				c-14.4-11-20.8-30-23.1-37H184.7z"/>
		</g>
		<g>
			<path fill="#FFFFFF" d="M255.1,396.6c-41.6,0-64.7-39.8-65.3-41.6c-0.6-1.2-0.6-2.9,1.2-4c1.2-0.6,2.9-0.6,4,1.2
				c0,0.6,21.9,38.1,60.6,38.1c38.1,0,62.4-38.1,62.9-38.7c0.6-1.2,2.9-1.7,4-1.2c1.2,0.6,1.7,2.9,1.2,4
				C321.5,357.3,296.7,396.6,255.1,396.6z M255.1,362.5c-31.2,0-47.9-29.4-48.5-31.2c-0.6-1.2,0-2.9,1.2-4c1.2-0.6,2.9,0,4,1.2
				c0,0,15.6,27.7,43.9,27.7c27.7,0,45-27.7,45.6-28.3c0.6-1.2,2.9-1.7,4-1.2c1.2,0.6,1.7,2.9,1.2,4
				C304.8,333.1,286.3,362.5,255.1,362.5z M255.7,327.9c-20.2,0-31.2-19.1-31.2-20.2c-0.6-1.2-0.6-2.9,1.2-4c1.2-0.6,2.9-0.6,4,1.2
				c0,0,9.8,16.7,26.6,16.7s27.7-16.7,27.7-17.3c0.6-1.2,2.9-1.7,4-1.2c1.2,0.6,1.7,2.9,1.2,4C287.5,308.8,275.3,327.9,255.7,327.9z
				"/>
		</g>
	</g>
</g>
<g id="Layer_10">
	<g id="Layer_6_2_">
		<g>
			<path fill="#FFFFFF" d="M445.1,448h-28.3c-1.7,0-2.9-1.2-2.9-2.9c0-1.7,1.2-2.9,2.9-2.9h28.3c1.7,0,2.9,1.2,2.9,2.9
				C448,446.8,446.8,448,445.1,448z M389.7,448H118.3c-1.7,0-2.9-1.2-2.9-2.9c0-1.7,1.2-2.9,2.9-2.9h271.4c1.7,0,2.9,1.2,2.9,2.9
				C392.6,446.8,391.4,448,389.7,448z M91.7,448H66.9c-1.7,0-2.9-1.2-2.9-2.9c0-1.7,1.2-2.9,2.9-2.9h24.8c1.7,0,2.9,1.2,2.9,2.9
				C94.6,446.8,93.4,448,91.7,448z"/>
		</g>
		<g>
			<path fill="#FFFFFF" d="M351.6,448c-1.2,0-2.3-0.6-2.9-1.7L299,328.5l-39.3,39.3l73.9,73.3c1.2,1.2,1.2,2.9,0,4
				c-1.2,1.2-2.9,1.2-4,0l-73.9-73.9l-73.9,73.9c-1.2,1.2-2.9,1.2-4,0s-1.2-2.9,0-4l73.9-73.3l-39.3-39.3l-49.1,116.1
				c-0.6,1.7-2.3,2.3-4,1.7c-1.7-0.6-2.3-2.3-1.7-4l50.2-119c0-1.2,0-1.7,0.6-2.9c0.6-0.6,1.7-1.2,2.3-0.6c0.6,0,1.2,0,1.2,0
				c0.6,0.6,1.7,1.2,1.7,1.7l41.6,41l41.6-41c0-0.6,0.6-1.7,1.7-1.7c0.6,0,1.2,0,1.2,0c0.6,0,1.7,0,2.3,0.6s1.2,1.7,0.6,2.9
				L353.3,444C353.9,445.7,353.3,446.8,351.6,448C352.1,448,352.1,448,351.6,448z"/>
		</g>
		<g>
			<path fill="#FFFFFF" d="M165.6,236.7c-1.7,0-2.9-1.2-2.9-2.9V224h-20.2v9.8c0,1.7-1.2,2.9-2.9,2.9c-1.7,0-2.9-1.2-2.9-2.9V224
				h-2.3l0,0l0,0l0,0l0,0l0,0c-0.6,0-0.6,0-1.2,0l0,0l0,0c-0.6,0-0.6-0.6-1.2-0.6c0,0-0.6-0.6-0.6-1.2c0-0.6,0-0.6,0-1.2l0,0l0,0
				l0,0l0,0l0,0l0,0l0,0l0,0l0,0l0,0c0-0.6,0-0.6,0-1.2c0-0.6,0.6-0.6,0.6-1.2l75.6-75.6c1.7-11,16.2-94.1,47.4-94.1
				s46.2,82,47.9,93.5l76.2,76.2c0,0,0.6,0.6,0.6,1.2c0,0.6,0,0.6,0,1.2l0,0l0,0l0,0l0,0l0,0l0,0l0,0l0,0l0,0c0,0.6,0,0.6,0,1.2
				c0,0.6-0.6,0.6-0.6,1.2c0,0-0.6,0.6-1.2,0.6l0,0l0,0c-0.6,0-0.6,0-1.2,0l0,0l0,0l0,0l0,0l0,0l0,0l0,0H168.5v9.8
				C168.5,235.5,167.4,236.7,165.6,236.7z M165.6,218.2H370l-71-71h-86.6l-71,71H165.6z M214.1,141.4h82.6
				c-2.9-15.6-17.9-86-41.6-86C233.8,55.3,218.8,114.8,214.1,141.4z"/>
		</g>
		<g>
			<path fill="#FFFFFF" d="M347.5,236.7c-1.7,0-2.9-1.2-2.9-2.9v-12.7c0-1.7,1.2-2.9,2.9-2.9s2.9,1.2,2.9,2.9v12.7
				C350.4,235.5,349.3,236.7,347.5,236.7z"/>
		</g>
		<g>
			<path fill="#FFFFFF" d="M373.5,236.7c-1.7,0-2.9-1.2-2.9-2.9v-12.7c0-1.7,1.2-2.9,2.9-2.9c1.7,0,2.9,1.2,2.9,2.9v12.7
				C376.4,235.5,375.2,236.7,373.5,236.7z"/>
		</g>
		<g>
			<path fill="#FFFFFF" d="M165.6,327.3c-1.7,0-2.9-1.2-2.9-2.9v-11h-20.2v11c0,1.7-1.2,2.9-2.9,2.9c-1.7,0-2.9-1.2-2.9-2.9v-11
				h-2.3c-0.6,0-0.6,0-1.2,0l0,0l0,0c-0.6,0-0.6-0.6-0.6-0.6l0,0l0,0l0,0l0,0l0,0l-0.6-0.6c0-0.6,0-0.6,0-1.2s0-0.6,0-1.2
				s0.6-0.6,0.6-1.2l76.2-76.2v-88.3l0,0l0,0l0,0l0,0l0,0c0-0.6,0-0.6,0-1.2c0-0.6,0.6-0.6,0.6-1.2l0,0l0,0l0,0l0,0l0,0l0,0l0.6-0.6
				c0.6-0.6,1.7-0.6,2.3,0c0.6,0,0.6,0.6,0.6,0.6l0,0l0,0l0,0l42.7,42.7l41.6-41.6c0.6-1.2,1.7-2.3,2.9-2.3c0.6,0,1.7,0,2.3,0.6
				c1.2,1.2,1.2,2.9,0,4V232l76.2,75.1c0.6,0.6,1.2,1.7,0.6,2.9v0.6c0,1.7-1.2,2.9-2.9,2.9v9.8c0,1.7-1.2,2.9-2.9,2.9
				c-1.7,0-2.9-1.2-2.9-2.9v-9.8h-20.2v9.8c0,1.7-1.2,2.9-2.9,2.9s-2.9-1.2-2.9-2.9v-9.8h-41.6v9.2l0,0c0,0.6,0,1.7-0.6,2.3
				c-1.2,1.2-2.9,1.2-4,0l-12.1-12.1h-60.6L213.6,325c-1.2,1.2-2.9,1.2-4,0c0,0,0,0,0-0.6c-0.6-0.6-1.2-1.2-1.2-2.3v-9.2h-39.8v11.5
				C168.5,326.2,167.4,327.3,165.6,327.3z M214.1,313.5v3.5l3.5-3.5H214.1z M294.4,313.5l2.9,2.9v-2.9H294.4z M347.5,307.7h23.1
				l-67.6-67.6v67.6C303.1,307.7,347.5,307.7,347.5,307.7z M288.6,307.7h8.7v-65.8l-37,37L288.6,307.7z M231.5,307.7h49.1
				l-24.8-24.3L231.5,307.7z M214.1,307.7h9.2l28.3-28.9l-37.5-37.5V307.7z M141.4,307.7h67v-67L141.4,307.7z M215.3,233.8l41,41
				l41-41l-41.6-40.4L215.3,233.8z M214.1,151.2v75.6l37.5-37.5L214.1,151.2z M260.3,188.7l37,37v-73.9L260.3,188.7z"/>
		</g>
	</g>
</g>
</svg>
