<svg id="Layer_1" data-name="Layer 1" xmlns="http://www.w3.org/2000/svg" viewBox="0 0 951.8 278">
  <title>kognifai logo</title>
  <g>
    <g>
      <path d="M784.3,156c-26,0-34.6,8.7-34.6,23.8,0,13,6.5,21.6,26,21.6,23.8,0,34.6-17.3,34.6-32.5v-8.7l-2.2-2.2C808.1,158.2,797.3,156,784.3,156Z" fill="#fff"/>
      <path d="M673.8,0V278h278V0ZM823.3,207.9l-2.2,2.2h-6.5l-2.2-2.2-2.2-10.8H808c-4.3,6.5-13,15.1-34.6,15.1-23.8,0-36.8-13-36.8-32.5,0-23.8,17.3-34.6,45.4-34.6a178.27,178.27,0,0,1,26,2.2l2.2-2.2v-6.5c0-19.5-6.5-28.1-28.1-28.1S754,121.3,754,132.1l-2.2,2.2h-8.7l-2.2-2.2c0-17.3,13-32.5,41.1-32.5,32.5,0,41.1,15.1,41.1,39v69.3Zm50.8,0-2.2,2.2h-8.7l-2.2-2.2V104.1l2.2-2.2h8.7l2.2,2.2Zm0-125.5-2.2,2.2h-8.7L861,82.4v-13l2.2-2.2h8.7l2.2,2.2Z" fill="#fff"/>
    </g>
    <g>
      <path d="M86.6,212.3H77.9l-4.3-2.2L41.1,169H38.9L23.8,184.1l-2.2,4.3V210l-2.2,2.2H2.2L0,210V63l2.2-2.2H19.5L21.7,63v93.1h2.2l49.8-49.8,4.3-2.2h6.5l2.2,2.2v15.1L56.4,151.7v2.2L88.9,195v15.2Z" fill="#fff"/>
      <path d="M165.6,101.9c32.5,0,51.9,21.6,51.9,56.3s-19.5,56.3-51.9,56.3-51.9-21.6-51.9-56.3S133.1,101.9,165.6,101.9Zm0,93.1c19.5,0,30.3-13,30.3-36.8s-10.8-36.8-30.3-36.8-30.3,13-30.3,36.8S146.1,195,165.6,195Z" fill="#fff"/>
      <path d="M322.5,201.5h-2.2s-8.7,13-28.1,13c-30.3,0-47.6-23.8-47.6-56.3s17.3-56.3,47.6-56.3c19.5,0,28.1,13,28.1,13h2.2l2.2-8.7,2.2-2.2H342l2.2,2.2v93.1c0,43.3-23.8,58.4-49.8,58.4s-41.1-13-43.3-30.3l2.2-2.2h17.3l2.2,2.2c4.3,8.7,10.8,10.8,21.6,10.8C313.8,238.3,322.5,225.3,322.5,201.5Zm-28.2-80.1c-17.3,0-28.1,13-28.1,36.8S277,195,294.3,195s28.1-10.8,28.1-36.8S311.7,121.4,294.3,121.4Z" fill="#fff"/>
      <path d="M475,212.3H457.7l-2.2-2.2V147.3c0-10.8-2.2-26-21.6-26s-28.1,10.8-28.1,36.8V210l-2.2,2.2H386.3l-2.2-2.2V106.3l2.2-2.2h15.1l2.2,2.2,2.2,8.7H408s8.7-13,28.1-13c30.3,0,41.1,19.5,41.1,45.4v62.8Z" fill="#fff"/>
      <path d="M534.5,86.8H517.2L515,84.6V67.3l2.2-2.2h17.3l2.2,2.2V84.6Zm0,125.5H517.2l-2.2-2.2V106.3l2.2-2.2h17.3l2.2,2.2V210.2Z" fill="#fff"/>
      <path d="M635.1,123.6H613.5l-2.2,2.2v84.4l-2.2,2.2H591.8l-2.2-2.2V125.8l-2.2-2.2H572.3l-2.2-2.2V106.3l2.2-2.2h15.1l2.2-2.2V93.2c0-19.5,15.1-28.1,30.3-28.1h17.3l2.2,2.2V82.4l-2.2,2.2H619.9c-4.3,0-8.7,2.2-8.7,8.7V102l2.2,2.2H635l2.2,2.2v15.1Z" fill="#fff"/>
    </g>
  </g>
</svg>
